SplineFontDB: 3.0
FontName: Fjord-One
FullName: Fjord One
FamilyName: Fjord
Weight: Book
Copyright: Copyright (c) 2011, Sorkin Type Co (www.sorkintype.com)\nwith Reserved Font Names "Fjord" and "Fjord One"\n\nThis Font Software is licensed under the SIL Open Font License, Version 1.1. This license is copied below, and is also available with a FAQ at: http://scripts.sil.org/OFL
Version: 1.002
ItalicAngle: 0
UnderlinePosition: 32
UnderlineWidth: 120
Ascent: 1638
Descent: 410
LayerCount: 2
Layer: 0 1 "Back"  1
Layer: 1 1 "Fore"  0
XUID: [1021 631 1661839179 11863647]
FSType: 0
OS2Version: 3
OS2_WeightWidthSlopeOnly: 0
OS2_UseTypoMetrics: 1
CreationTime: 1319797620
ModificationTime: 1319784035
PfmFamily: 17
TTFWeight: 400
TTFWidth: 5
LineGap: 0
VLineGap: 0
Panose: 2 6 5 3 5 5 0 5 10 3
OS2TypoAscent: 302
OS2TypoAOffset: 1
OS2TypoDescent: -210
OS2TypoDOffset: 1
OS2TypoLinegap: 0
OS2WinAscent: 0
OS2WinAOffset: 1
OS2WinDescent: 0
OS2WinDOffset: 1
HheadAscent: 0
HheadAOffset: 1
HheadDescent: 0
HheadDOffset: 1
OS2SubXSize: 1434
OS2SubYSize: 1331
OS2SubXOff: 0
OS2SubYOff: 287
OS2SupXSize: 1434
OS2SupYSize: 1331
OS2SupXOff: 0
OS2SupYOff: 977
OS2StrikeYSize: 102
OS2StrikeYPos: 512
OS2Vendor: 'STC '
OS2CodePages: 20000191.41000000
OS2UnicodeRanges: a00000af.40000002.00000000.00000000
Lookup: 258 0 0 "'kern' Horizontal Kerning in Latin lookup 0"  {"'kern' Horizontal Kerning in Latin lookup 0 subtable"  } ['kern' ('latn' <'dflt' > ) ]
DEI: 91125
TtTable: prep
PUSHW_1
 511
SCANCTRL
PUSHB_1
 4
SVTCA[y-axis]
EndTTInstrs
ShortTable: maxp 16
  1
  0
  282
  213
  5
  0
  0
  1
  0
  0
  0
  0
  0
  0
  0
  0
EndShort

StartChar: .notdef
Encoding: 65536 -1 0
Width: 1583
Flags: W
LayerCount: 2
Fore
SplineSet
160 523 m 0,0,1
 160 610 160 610 182.5 690.5 c 128,-1,2
 205 771 205 771 246 841 c 128,-1,3
 287 911 287 911 344 968.5 c 128,-1,4
 401 1026 401 1026 471.5 1067 c 128,-1,5
 542 1108 542 1108 623 1130.5 c 128,-1,6
 704 1153 704 1153 792 1153 c 0,7,8
 879 1153 879 1153 960 1130.5 c 128,-1,9
 1041 1108 1041 1108 1111 1067 c 128,-1,10
 1181 1026 1181 1026 1238.5 968.5 c 128,-1,11
 1296 911 1296 911 1337 841 c 128,-1,12
 1378 771 1378 771 1400.5 690.5 c 128,-1,13
 1423 610 1423 610 1423 523 c 0,14,15
 1423 391 1423 391 1373.5 275.5 c 128,-1,16
 1324 160 1324 160 1238.5 75 c 128,-1,17
 1153 -10 1153 -10 1038 -59 c 128,-1,18
 923 -108 923 -108 792 -108 c 0,19,20
 704 -108 704 -108 623 -86 c 128,-1,21
 542 -64 542 -64 471.5 -23 c 128,-1,22
 401 18 401 18 344 75 c 128,-1,23
 287 132 287 132 246 202.5 c 128,-1,24
 205 273 205 273 182.5 354 c 128,-1,25
 160 435 160 435 160 523 c 0,0,1
390 319 m 1,26,27
 456 361 456 361 538.5 404 c 128,-1,28
 621 447 621 447 728 485 c 1,29,30
 686 385 686 385 649.5 292 c 128,-1,31
 613 199 613 199 593 111 c 1,32,33
 607 97 607 97 632.5 87 c 128,-1,34
 658 77 658 77 685 72 c 128,-1,35
 712 67 712 67 737 66 c 128,-1,36
 762 65 762 65 775 68 c 1,37,38
 770 170 770 170 773.5 262.5 c 128,-1,39
 777 355 777 355 785 451 c 1,40,41
 842 370 842 370 900.5 290 c 128,-1,42
 959 210 959 210 1031 137 c 1,43,44
 1051 144 1051 144 1071.5 159.5 c 128,-1,45
 1092 175 1092 175 1110 194.5 c 128,-1,46
 1128 214 1128 214 1142 234.5 c 128,-1,47
 1156 255 1156 255 1163 272 c 1,48,49
 1137 283 1137 283 1098.5 306.5 c 128,-1,50
 1060 330 1060 330 1016.5 359.5 c 128,-1,51
 973 389 973 389 928 420.5 c 128,-1,52
 883 452 883 452 844 480 c 1,53,54
 895 483 895 483 950.5 488.5 c 128,-1,55
 1006 494 1006 494 1059 501.5 c 128,-1,56
 1112 509 1112 509 1160 518.5 c 128,-1,57
 1208 528 1208 528 1245 539 c 1,58,59
 1248 559 1248 559 1245.5 583.5 c 128,-1,60
 1243 608 1243 608 1236 633 c 128,-1,61
 1229 658 1229 658 1217.5 681.5 c 128,-1,62
 1206 705 1206 705 1191 724 c 1,63,64
 1158 703 1158 703 1117.5 679 c 128,-1,65
 1077 655 1077 655 1033 631.5 c 128,-1,66
 989 608 989 608 941.5 586.5 c 128,-1,67
 894 565 894 565 848 548 c 1,68,69
 897 632 897 632 930.5 729 c 128,-1,70
 964 826 964 826 986 929 c 1,71,72
 952 952 952 952 902 960.5 c 128,-1,73
 852 969 852 969 801 959 c 1,74,75
 811 863 811 863 806 771.5 c 128,-1,76
 801 680 801 680 796 584 c 1,77,78
 743 673 743 673 680 749 c 128,-1,79
 617 825 617 825 537 898 c 1,80,81
 520 889 520 889 501 873.5 c 128,-1,82
 482 858 482 858 464.5 839 c 128,-1,83
 447 820 447 820 433 800 c 128,-1,84
 419 780 419 780 413 764 c 1,85,86
 454 744 454 744 496 718.5 c 128,-1,87
 538 693 538 693 579 665 c 128,-1,88
 620 637 620 637 659.5 607.5 c 128,-1,89
 699 578 699 578 735 550 c 1,90,91
 638 548 638 548 535 538.5 c 128,-1,92
 432 529 432 529 338 503 c 1,93,94
 335 482 335 482 337.5 457 c 128,-1,95
 340 432 340 432 347 407 c 128,-1,96
 354 382 354 382 365 359 c 128,-1,97
 376 336 376 336 390 319 c 1,26,27
EndSplineSet
EndChar

StartChar: n
Encoding: 110 110 4
Width: 1269
Flags: W
LayerCount: 2
Fore
SplineSet
111 78 m 1,0,1
 148 89 148 89 189.5 96.5 c 128,-1,2
 231 104 231 104 267 111 c 1,3,-1
 267 841 l 1,4,-1
 95 841 l 1,5,-1
 83 927 l 1,6,7
 95 932 95 932 122.5 941 c 128,-1,8
 150 950 150 950 184.5 958.5 c 128,-1,9
 219 967 219 967 254.5 973 c 128,-1,10
 290 979 290 979 319 979 c 0,11,12
 361 979 361 979 384 968 c 128,-1,13
 407 957 407 957 418 941 c 128,-1,14
 429 925 429 925 431.5 906 c 128,-1,15
 434 887 434 887 435 872 c 1,16,-1
 435 855 l 1,17,18
 520 918 520 918 602 948.5 c 128,-1,19
 684 979 684 979 775 979 c 0,20,21
 854 979 854 979 907.5 965 c 128,-1,22
 961 951 961 951 993.5 915 c 128,-1,23
 1026 879 1026 879 1040 816.5 c 128,-1,24
 1054 754 1054 754 1054 657 c 2,25,-1
 1054 108 l 1,26,-1
 1211 81 l 1,27,28
 1213 75 1213 75 1213 67 c 128,-1,29
 1213 59 1213 59 1213 52 c 0,30,31
 1213 38 1213 38 1208.5 22.5 c 128,-1,32
 1204 7 1204 7 1200 0 c 1,33,-1
 758 0 l 1,34,-1
 751 78 l 1,35,36
 787 89 787 89 819 95 c 128,-1,37
 851 101 851 101 886 108 c 1,38,-1
 886 647 l 2,39,40
 886 704 886 704 878.5 742 c 128,-1,41
 871 780 871 780 853 802.5 c 128,-1,42
 835 825 835 825 806 834.5 c 128,-1,43
 777 844 777 844 735 844 c 0,44,45
 690 844 690 844 650.5 840 c 128,-1,46
 611 836 611 836 575 828 c 128,-1,47
 539 820 539 820 505 808 c 128,-1,48
 471 796 471 796 435 780 c 1,49,-1
 435 111 l 1,50,-1
 593 81 l 1,51,52
 595 75 595 75 595 67 c 128,-1,53
 595 59 595 59 595 52 c 0,54,55
 595 38 595 38 591.5 22.5 c 128,-1,56
 588 7 588 7 584 0 c 1,57,-1
 120 0 l 1,58,-1
 111 78 l 1,0,1
EndSplineSet
EndChar

StartChar: l
Encoding: 108 108 5
Width: 627
Flags: W
LayerCount: 2
Fore
SplineSet
76 78 m 1,0,1
 114 89 114 89 156.5 96.5 c 128,-1,2
 199 104 199 104 237 111 c 1,3,-1
 237 1470 l 1,4,-1
 52 1470 l 1,5,-1
 40 1558 l 1,6,7
 52 1563 52 1563 82.5 1572 c 128,-1,8
 113 1581 113 1581 149.5 1589.5 c 128,-1,9
 186 1598 186 1598 224 1604 c 128,-1,10
 262 1610 262 1610 291 1610 c 0,11,12
 333 1610 333 1610 356 1598.5 c 128,-1,13
 379 1587 379 1587 390 1570.5 c 128,-1,14
 401 1554 401 1554 403.5 1534.5 c 128,-1,15
 406 1515 406 1515 406 1500 c 2,16,-1
 406 111 l 1,17,-1
 579 81 l 1,18,19
 583 59 583 59 580 38 c 128,-1,20
 577 17 577 17 572 0 c 1,21,-1
 85 0 l 1,22,-1
 76 78 l 1,0,1
EndSplineSet
EndChar

StartChar: e
Encoding: 101 101 6
Width: 983
Flags: W
LayerCount: 2
Fore
SplineSet
97 430 m 0,0,1
 96 576 96 576 126.5 680 c 128,-1,2
 157 784 157 784 213 850.5 c 128,-1,3
 269 917 269 917 349.5 948 c 128,-1,4
 430 979 430 979 530 979 c 0,5,6
 639 979 639 979 709 953.5 c 128,-1,7
 779 928 779 928 819 873.5 c 128,-1,8
 859 819 859 819 874.5 734 c 128,-1,9
 890 649 890 649 889 530 c 1,10,-1
 269 525 l 1,11,12
 269 454 269 454 271.5 395 c 128,-1,13
 274 336 274 336 284.5 288.5 c 128,-1,14
 295 241 295 241 315 205.5 c 128,-1,15
 335 170 335 170 370.5 146.5 c 128,-1,16
 406 123 406 123 458.5 111 c 128,-1,17
 511 99 511 99 586 99 c 0,18,19
 624 99 624 99 668.5 106 c 128,-1,20
 713 113 713 113 752.5 122 c 128,-1,21
 792 131 792 131 820.5 139.5 c 128,-1,22
 849 148 849 148 857 151 c 1,23,-1
 891 66 l 1,24,25
 884 61 884 61 855 45.5 c 128,-1,26
 826 30 826 30 779.5 13.5 c 128,-1,27
 733 -3 733 -3 670 -16 c 128,-1,28
 607 -29 607 -29 532 -29 c 0,29,30
 439 -29 439 -29 359.5 -12.5 c 128,-1,31
 280 4 280 4 222 53 c 128,-1,32
 164 102 164 102 131 192 c 128,-1,33
 98 282 98 282 97 430 c 0,0,1
717 638 m 1,34,35
 715 723 715 723 695.5 771 c 128,-1,36
 676 819 676 819 647.5 842.5 c 128,-1,37
 619 866 619 866 586 871.5 c 128,-1,38
 553 877 553 877 523 877 c 0,39,40
 458 877 458 877 413.5 862.5 c 128,-1,41
 369 848 369 848 340 817 c 128,-1,42
 311 786 311 786 296 737.5 c 128,-1,43
 281 689 281 689 275 622 c 1,44,-1
 717 638 l 1,34,35
EndSplineSet
EndChar

StartChar: t
Encoding: 116 116 7
Width: 719
Flags: W
LayerCount: 2
Fore
SplineSet
187 846 m 1,0,-1
 50 846 l 1,1,2
 46 871 46 871 47.5 892 c 128,-1,3
 49 913 49 913 54 938 c 1,4,-1
 187 950 l 1,5,-1
 230 1224 l 1,6,-1
 350 1224 l 1,7,-1
 350 950 l 1,8,-1
 650 950 l 1,9,10
 656 899 656 899 650 846 c 1,11,-1
 350 846 l 1,12,-1
 350 331 l 2,13,14
 350 252 350 252 354 205 c 128,-1,15
 358 158 358 158 371 133.5 c 128,-1,16
 384 109 384 109 408.5 102 c 128,-1,17
 433 95 433 95 475 95 c 0,18,19
 494 95 494 95 520 98 c 128,-1,20
 546 101 546 101 572.5 106.5 c 128,-1,21
 599 112 599 112 623 118.5 c 128,-1,22
 647 125 647 125 664 133 c 1,23,-1
 695 47 l 1,24,25
 664 29 664 29 627.5 14.5 c 128,-1,26
 591 0 591 0 553 -9.5 c 128,-1,27
 515 -19 515 -19 477.5 -24 c 128,-1,28
 440 -29 440 -29 406 -29 c 0,29,30
 348 -29 348 -29 309.5 -16 c 128,-1,31
 271 -3 271 -3 246.5 20.5 c 128,-1,32
 222 44 222 44 210 77.5 c 128,-1,33
 198 111 198 111 192.5 152 c 128,-1,34
 187 193 187 193 187 240.5 c 128,-1,35
 187 288 187 288 187 340 c 2,36,-1
 187 846 l 1,0,-1
EndSplineSet
EndChar

StartChar: h
Encoding: 104 104 8
Width: 1243
Flags: W
LayerCount: 2
Fore
SplineSet
85 78 m 1,0,1
 114 88 114 88 154.5 96 c 128,-1,2
 195 104 195 104 241 111 c 1,3,-1
 241 1470 l 1,4,-1
 68 1470 l 1,5,-1
 57 1556 l 1,6,7
 69 1561 69 1561 97 1569.5 c 128,-1,8
 125 1578 125 1578 159 1586.5 c 128,-1,9
 193 1595 193 1595 228.5 1601.5 c 128,-1,10
 264 1608 264 1608 293 1608 c 0,11,12
 335 1608 335 1608 358 1597 c 128,-1,13
 381 1586 381 1586 392.5 1569.5 c 128,-1,14
 404 1553 404 1553 406.5 1534 c 128,-1,15
 409 1515 409 1515 409 1500 c 2,16,-1
 409 857 l 1,17,18
 501 923 501 923 583.5 951 c 128,-1,19
 666 979 666 979 749 979 c 0,20,21
 828 979 828 979 881.5 965 c 128,-1,22
 935 951 935 951 967.5 915 c 128,-1,23
 1000 879 1000 879 1014 816.5 c 128,-1,24
 1028 754 1028 754 1028 657 c 2,25,-1
 1028 107 l 1,26,-1
 1184 78 l 1,27,28
 1189 62 1189 62 1185.5 39 c 128,-1,29
 1182 16 1182 16 1175 0 c 1,30,-1
 733 0 l 1,31,-1
 726 78 l 1,32,33
 752 87 752 87 789 95 c 128,-1,34
 826 103 826 103 860 109 c 1,35,-1
 860 647 l 2,36,37
 860 704 860 704 852.5 742 c 128,-1,38
 845 780 845 780 827.5 802.5 c 128,-1,39
 810 825 810 825 781 834.5 c 128,-1,40
 752 844 752 844 709 844 c 0,41,42
 631 844 631 844 557.5 829.5 c 128,-1,43
 484 815 484 815 409 780 c 1,44,-1
 409 111 l 1,45,-1
 568 78 l 1,46,47
 571 60 571 60 568 38 c 128,-1,48
 565 16 565 16 557 0 c 1,49,-1
 95 0 l 1,50,-1
 85 78 l 1,0,1
EndSplineSet
EndChar

StartChar: m
Encoding: 109 109 9
Width: 1869
Flags: W
LayerCount: 2
Fore
SplineSet
111 78 m 1,0,1
 148 91 148 91 188.5 97.5 c 128,-1,2
 229 104 229 104 267 111 c 1,3,-1
 267 841 l 1,4,-1
 95 841 l 1,5,-1
 83 927 l 1,6,7
 95 932 95 932 122.5 941 c 128,-1,8
 150 950 150 950 184.5 958.5 c 128,-1,9
 219 967 219 967 254.5 973 c 128,-1,10
 290 979 290 979 319 979 c 0,11,12
 361 979 361 979 383.5 968 c 128,-1,13
 406 957 406 957 416.5 941 c 128,-1,14
 427 925 427 925 428.5 906 c 128,-1,15
 430 887 430 887 430 872 c 2,16,-1
 430 855 l 1,17,18
 473 886 473 886 512.5 909.5 c 128,-1,19
 552 933 552 933 591.5 948.5 c 128,-1,20
 631 964 631 964 672 971.5 c 128,-1,21
 713 979 713 979 758 979 c 0,22,23
 812 979 812 979 854.5 972.5 c 128,-1,24
 897 966 897 966 928.5 950.5 c 128,-1,25
 960 935 960 935 981 909.5 c 128,-1,26
 1002 884 1002 884 1015 845 c 1,27,-1
 1037 860 l 2,28,29
 1080 889 1080 889 1121.5 911.5 c 128,-1,30
 1163 934 1163 934 1204 949 c 128,-1,31
 1245 964 1245 964 1287.5 971.5 c 128,-1,32
 1330 979 1330 979 1376 979 c 0,33,34
 1455 979 1455 979 1508.5 965 c 128,-1,35
 1562 951 1562 951 1594.5 915 c 128,-1,36
 1627 879 1627 879 1641 816.5 c 128,-1,37
 1655 754 1655 754 1655 657 c 2,38,-1
 1655 108 l 1,39,-1
 1811 81 l 1,40,41
 1813 75 1813 75 1813 67 c 128,-1,42
 1813 59 1813 59 1813 52 c 0,43,44
 1813 38 1813 38 1809 22.5 c 128,-1,45
 1805 7 1805 7 1801 0 c 1,46,-1
 1359 0 l 1,47,-1
 1351 78 l 1,48,49
 1387 91 1387 91 1419 96 c 128,-1,50
 1451 101 1451 101 1486 108 c 1,51,-1
 1486 647 l 2,52,53
 1486 700 1486 700 1478.5 737.5 c 128,-1,54
 1471 775 1471 775 1453 798.5 c 128,-1,55
 1435 822 1435 822 1406 833 c 128,-1,56
 1377 844 1377 844 1335 844 c 0,57,58
 1290 844 1290 844 1252.5 840 c 128,-1,59
 1215 836 1215 836 1181 828 c 128,-1,60
 1147 820 1147 820 1114.5 807.5 c 128,-1,61
 1082 795 1082 795 1047 778 c 2,62,-1
 1031 770 l 1,63,64
 1037 720 1037 720 1037 657 c 2,65,-1
 1037 108 l 1,66,-1
 1193 81 l 1,67,68
 1195 75 1195 75 1195.5 67 c 128,-1,69
 1196 59 1196 59 1196 52 c 0,70,71
 1196 38 1196 38 1192 22.5 c 128,-1,72
 1188 7 1188 7 1184 0 c 1,73,-1
 742 0 l 1,74,-1
 735 78 l 1,75,76
 770 91 770 91 802.5 96 c 128,-1,77
 835 101 835 101 870 108 c 1,78,-1
 870 647 l 2,79,80
 870 699 870 699 862.5 736.5 c 128,-1,81
 855 774 855 774 837 798 c 128,-1,82
 819 822 819 822 790 833 c 128,-1,83
 761 844 761 844 719 844 c 0,84,85
 674 844 674 844 636.5 840 c 128,-1,86
 599 836 599 836 565 828 c 128,-1,87
 531 820 531 820 498.5 808 c 128,-1,88
 466 796 466 796 430 780 c 1,89,-1
 430 111 l 1,90,-1
 593 81 l 1,91,92
 595 75 595 75 595 67 c 128,-1,93
 595 59 595 59 595 52 c 0,94,95
 595 38 595 38 591.5 22.5 c 128,-1,96
 588 7 588 7 584 0 c 1,97,-1
 120 0 l 1,98,-1
 111 78 l 1,0,1
EndSplineSet
EndChar

StartChar: i
Encoding: 105 105 10
Width: 657
Flags: W
LayerCount: 2
Fore
SplineSet
327 1206 m 256,0,1
 303 1206 303 1206 281.5 1211.5 c 128,-1,2
 260 1217 260 1217 244 1230.5 c 128,-1,3
 228 1244 228 1244 219 1266 c 128,-1,4
 210 1288 210 1288 210 1321 c 256,5,6
 210 1354 210 1354 219 1376 c 128,-1,7
 228 1398 228 1398 244 1411.5 c 128,-1,8
 260 1425 260 1425 281.5 1430.5 c 128,-1,9
 303 1436 303 1436 327 1436 c 256,10,11
 351 1436 351 1436 371.5 1430.5 c 128,-1,12
 392 1425 392 1425 408 1411.5 c 128,-1,13
 424 1398 424 1398 433 1376 c 128,-1,14
 442 1354 442 1354 442 1321 c 256,15,16
 442 1288 442 1288 433 1266 c 128,-1,17
 424 1244 424 1244 408 1230.5 c 128,-1,18
 392 1217 392 1217 371.5 1211.5 c 128,-1,19
 351 1206 351 1206 327 1206 c 256,0,1
97 78 m 1,20,21
 135 91 135 91 179.5 97.5 c 128,-1,22
 224 104 224 104 262 111 c 1,23,-1
 262 841 l 1,24,-1
 92 841 l 1,25,-1
 81 927 l 1,26,27
 100 934 100 934 130.5 943.5 c 128,-1,28
 161 953 161 953 194 960.5 c 128,-1,29
 227 968 227 968 259 973.5 c 128,-1,30
 291 979 291 979 314 979 c 0,31,32
 357 979 357 979 380.5 968 c 128,-1,33
 404 957 404 957 414.5 941 c 128,-1,34
 425 925 425 925 427 906 c 128,-1,35
 429 887 429 887 430 872 c 1,36,-1
 430 111 l 1,37,-1
 602 81 l 1,38,39
 604 61 604 61 602 39 c 128,-1,40
 600 17 600 17 593 0 c 1,41,-1
 106 0 l 1,42,-1
 97 78 l 1,20,21
EndSplineSet
EndChar

StartChar: r
Encoding: 114 114 11
Width: 825
Flags: W
LayerCount: 2
Fore
SplineSet
99 78 m 1,0,1
 137 91 137 91 179.5 97.5 c 128,-1,2
 222 104 222 104 260 111 c 1,3,-1
 260 841 l 1,4,-1
 81 841 l 1,5,-1
 68 927 l 1,6,7
 90 936 90 936 122 945 c 128,-1,8
 154 954 154 954 187.5 961.5 c 128,-1,9
 221 969 221 969 252.5 974 c 128,-1,10
 284 979 284 979 305 979 c 0,11,12
 347 979 347 979 370.5 968 c 128,-1,13
 394 957 394 957 405.5 938.5 c 128,-1,14
 417 920 417 920 419 894.5 c 128,-1,15
 421 869 421 869 421 841 c 2,16,-1
 421 764 l 1,17,18
 425 773 425 773 435 791 c 128,-1,19
 445 809 445 809 456.5 828.5 c 128,-1,20
 468 848 468 848 479.5 866 c 128,-1,21
 491 884 491 884 499 893 c 0,22,23
 531 934 531 934 579.5 958.5 c 128,-1,24
 628 983 628 983 699 983 c 0,25,26
 706 983 706 983 718 982.5 c 128,-1,27
 730 982 730 982 743 981 c 128,-1,28
 756 980 756 980 769 978.5 c 128,-1,29
 782 977 782 977 792 974 c 1,30,31
 793 962 793 962 793.5 943 c 128,-1,32
 794 924 794 924 793.5 902 c 128,-1,33
 793 880 793 880 791.5 857.5 c 128,-1,34
 790 835 790 835 787 816 c 1,35,36
 770 819 770 819 745 822 c 128,-1,37
 720 825 720 825 688 825 c 0,38,39
 650 825 650 825 613 818.5 c 128,-1,40
 576 812 576 812 546 799 c 0,41,42
 508 783 508 783 481 756 c 128,-1,43
 454 729 454 729 428 697 c 1,44,-1
 428 111 l 1,45,-1
 659 88 l 1,46,47
 661 83 661 83 661 71 c 128,-1,48
 661 59 661 59 661 52 c 0,49,50
 661 38 661 38 659.5 22.5 c 128,-1,51
 658 7 658 7 654 0 c 1,52,-1
 108 0 l 1,53,-1
 99 78 l 1,0,1
EndSplineSet
EndChar

StartChar: u
Encoding: 117 117 12
Width: 1220
Flags: W
LayerCount: 2
Fore
SplineSet
208 841 m 1,0,-1
 59 841 l 1,1,-1
 47 924 l 1,2,3
 60 929 60 929 83.5 938.5 c 128,-1,4
 107 948 107 948 136.5 957 c 128,-1,5
 166 966 166 966 197.5 972.5 c 128,-1,6
 229 979 229 979 257 979 c 0,7,8
 299 979 299 979 322.5 968 c 128,-1,9
 346 957 346 957 357.5 941 c 128,-1,10
 369 925 369 925 371.5 906 c 128,-1,11
 374 887 374 887 374 872 c 2,12,-1
 374 302 l 2,13,14
 374 243 374 243 382 206 c 128,-1,15
 390 169 390 169 409 148 c 128,-1,16
 428 127 428 127 459 119.5 c 128,-1,17
 490 112 490 112 537 111 c 0,18,19
 568 110 568 110 607.5 117.5 c 128,-1,20
 647 125 647 125 687 137.5 c 128,-1,21
 727 150 727 150 764.5 166 c 128,-1,22
 802 182 802 182 830 198 c 1,23,-1
 830 841 l 1,24,-1
 657 841 l 1,25,-1
 645 927 l 1,26,27
 658 932 658 932 685.5 941 c 128,-1,28
 713 950 713 950 746.5 958.5 c 128,-1,29
 780 967 780 967 815 973 c 128,-1,30
 850 979 850 979 879 979 c 0,31,32
 921 979 921 979 944 968 c 128,-1,33
 967 957 967 957 978.5 941 c 128,-1,34
 990 925 990 925 992.5 906 c 128,-1,35
 995 887 995 887 995 872 c 2,36,-1
 995 106 l 1,37,-1
 1177 106 l 1,38,-1
 1184 23 l 1,39,40
 1172 18 1172 18 1144.5 9 c 128,-1,41
 1117 0 1117 0 1084 -8.5 c 128,-1,42
 1051 -17 1051 -17 1015.5 -23 c 128,-1,43
 980 -29 980 -29 952 -29 c 0,44,45
 910 -29 910 -29 887 -17.5 c 128,-1,46
 864 -6 864 -6 853 10.5 c 128,-1,47
 842 27 842 27 839.5 46.5 c 128,-1,48
 837 66 837 66 837 81 c 2,49,-1
 837 122 l 1,50,-1
 834 122 l 1,51,52
 808 102 808 102 768 75.5 c 128,-1,53
 728 49 728 49 678.5 26 c 128,-1,54
 629 3 629 3 573 -13 c 128,-1,55
 517 -29 517 -29 460 -29 c 0,56,57
 391 -29 391 -29 343 -15 c 128,-1,58
 295 -1 295 -1 265 35.5 c 128,-1,59
 235 72 235 72 221.5 134.5 c 128,-1,60
 208 197 208 197 208 293 c 2,61,-1
 208 841 l 1,0,-1
EndSplineSet
EndChar

StartChar: d
Encoding: 100 100 13
Width: 1193
Flags: W
LayerCount: 2
Fore
SplineSet
433 -29 m 0,0,1
 325 -29 325 -29 258.5 9 c 128,-1,2
 192 47 192 47 155.5 111.5 c 128,-1,3
 119 176 119 176 107 262 c 128,-1,4
 95 348 95 348 95 444 c 0,5,6
 95 585 95 585 126.5 686 c 128,-1,7
 158 787 158 787 217.5 852.5 c 128,-1,8
 277 918 277 918 363.5 948.5 c 128,-1,9
 450 979 450 979 560 979 c 0,10,11
 581 979 581 979 609 977 c 128,-1,12
 637 975 637 975 668 970 c 128,-1,13
 699 965 699 965 731.5 956.5 c 128,-1,14
 764 948 764 948 794 936 c 1,15,-1
 794 1470 l 1,16,-1
 602 1470 l 1,17,-1
 591 1556 l 1,18,19
 603 1561 603 1561 634 1569.5 c 128,-1,20
 665 1578 665 1578 702.5 1586.5 c 128,-1,21
 740 1595 740 1595 779 1601.5 c 128,-1,22
 818 1608 818 1608 846 1608 c 0,23,24
 888 1608 888 1608 910.5 1597 c 128,-1,25
 933 1586 933 1586 944.5 1569.5 c 128,-1,26
 956 1553 956 1553 958.5 1534 c 128,-1,27
 961 1515 961 1515 962 1500 c 1,28,-1
 962 106 l 1,29,-1
 1155 106 l 1,30,-1
 1163 23 l 1,31,32
 1151 18 1151 18 1122.5 9 c 128,-1,33
 1094 0 1094 0 1059.5 -8.5 c 128,-1,34
 1025 -17 1025 -17 988.5 -23 c 128,-1,35
 952 -29 952 -29 924 -29 c 0,36,37
 883 -29 883 -29 859.5 -17.5 c 128,-1,38
 836 -6 836 -6 824.5 10.5 c 128,-1,39
 813 27 813 27 810.5 46.5 c 128,-1,40
 808 66 808 66 808 81 c 2,41,-1
 808 115 l 1,42,-1
 805 115 l 1,43,44
 777 91 777 91 733.5 65.5 c 128,-1,45
 690 40 690 40 639.5 19 c 128,-1,46
 589 -2 589 -2 535 -15.5 c 128,-1,47
 481 -29 481 -29 433 -29 c 0,0,1
478 104 m 0,48,49
 516 104 516 104 558.5 113 c 128,-1,50
 601 122 601 122 643 137 c 128,-1,51
 685 152 685 152 724 171 c 128,-1,52
 763 190 763 190 794 210 c 1,53,-1
 794 837 l 1,54,55
 764 844 764 844 711.5 852 c 128,-1,56
 659 860 659 860 598 860 c 0,57,58
 492 860 492 860 428 829.5 c 128,-1,59
 364 799 364 799 329.5 743.5 c 128,-1,60
 295 688 295 688 283.5 611 c 128,-1,61
 272 534 272 534 272 442 c 0,62,63
 272 364 272 364 280 301.5 c 128,-1,64
 288 239 288 239 310.5 195 c 128,-1,65
 333 151 333 151 373.5 127.5 c 128,-1,66
 414 104 414 104 478 104 c 0,48,49
EndSplineSet
EndChar

StartChar: b
Encoding: 98 98 14
Width: 1137
Flags: W
LayerCount: 2
Fore
SplineSet
158 -2 m 1,0,1
 164 49 164 49 167 107.5 c 128,-1,2
 170 166 170 166 171.5 227 c 128,-1,3
 173 288 173 288 173 350 c 128,-1,4
 173 412 173 412 173 471 c 2,5,-1
 173 1470 l 1,6,-1
 -5 1470 l 1,7,-1
 -16 1558 l 1,8,9
 -4 1563 -4 1563 24.5 1572 c 128,-1,10
 53 1581 53 1581 88 1589.5 c 128,-1,11
 123 1598 123 1598 159.5 1604 c 128,-1,12
 196 1610 196 1610 225 1610 c 0,13,14
 267 1610 267 1610 290 1598.5 c 128,-1,15
 313 1587 313 1587 324 1570.5 c 128,-1,16
 335 1554 335 1554 337.5 1534.5 c 128,-1,17
 340 1515 340 1515 340 1500 c 2,18,-1
 340 863 l 1,19,20
 364 878 364 878 395 898 c 128,-1,21
 426 918 426 918 467 936 c 128,-1,22
 508 954 508 954 560.5 966.5 c 128,-1,23
 613 979 613 979 681 979 c 0,24,25
 789 979 789 979 859 943.5 c 128,-1,26
 929 908 929 908 968.5 842 c 128,-1,27
 1008 776 1008 776 1022 682 c 128,-1,28
 1036 588 1036 588 1033 471 c 1,29,30
 1029 357 1029 357 1007.5 275.5 c 128,-1,31
 986 194 986 194 953 138.5 c 128,-1,32
 920 83 920 83 878.5 50 c 128,-1,33
 837 17 837 17 794 -0.5 c 128,-1,34
 751 -18 751 -18 709.5 -23.5 c 128,-1,35
 668 -29 668 -29 634 -29 c 0,36,37
 576 -29 576 -29 528.5 -14.5 c 128,-1,38
 481 0 481 0 441.5 21 c 128,-1,39
 402 42 402 42 370.5 67 c 128,-1,40
 339 92 339 92 314 113 c 1,41,42
 307 75 307 75 293 39 c 128,-1,43
 279 3 279 3 264 -29 c 1,44,45
 235 -29 235 -29 205.5 -21.5 c 128,-1,46
 176 -14 176 -14 158 -2 c 1,0,1
334 223 m 1,47,48
 357 203 357 203 389 181.5 c 128,-1,49
 421 160 421 160 457.5 142.5 c 128,-1,50
 494 125 494 125 534 113.5 c 128,-1,51
 574 102 574 102 612 102 c 0,52,53
 672 102 672 102 716 122.5 c 128,-1,54
 760 143 760 143 789.5 187 c 128,-1,55
 819 231 819 231 834.5 301.5 c 128,-1,56
 850 372 850 372 853 473 c 1,57,58
 854 551 854 551 848.5 620 c 128,-1,59
 843 689 843 689 822 741 c 128,-1,60
 801 793 801 793 760 823 c 128,-1,61
 719 853 719 853 650 853 c 0,62,63
 604 853 604 853 559.5 845 c 128,-1,64
 515 837 515 837 475.5 824.5 c 128,-1,65
 436 812 436 812 401.5 795 c 128,-1,66
 367 778 367 778 340 760 c 1,67,-1
 340 347 l 2,68,69
 340 330 340 330 338 297 c 128,-1,70
 336 264 336 264 334 223 c 1,47,48
EndSplineSet
EndChar

StartChar: c
Encoding: 99 99 15
Width: 934
Flags: W
LayerCount: 2
Fore
SplineSet
95 465 m 0,0,1
 95 583 95 583 122.5 678 c 128,-1,2
 150 773 150 773 204.5 840 c 128,-1,3
 259 907 259 907 341 943 c 128,-1,4
 423 979 423 979 532 979 c 0,5,6
 565 979 565 979 604.5 976.5 c 128,-1,7
 644 974 644 974 685.5 968 c 128,-1,8
 727 962 727 962 769 951.5 c 128,-1,9
 811 941 811 941 850 924 c 1,10,11
 853 895 853 895 849.5 857 c 128,-1,12
 846 819 846 819 839.5 780 c 128,-1,13
 833 741 833 741 826 706.5 c 128,-1,14
 819 672 819 672 814 652 c 1,15,16
 785 652 785 652 765 652.5 c 128,-1,17
 745 653 745 653 717 657 c 1,18,-1
 699 832 l 1,19,20
 671 845 671 845 640 853 c 128,-1,21
 609 861 609 861 581 864.5 c 128,-1,22
 553 868 553 868 531 869 c 128,-1,23
 509 870 509 870 499 870 c 0,24,25
 445 870 445 870 402.5 850.5 c 128,-1,26
 360 831 360 831 331 785.5 c 128,-1,27
 302 740 302 740 287 665.5 c 128,-1,28
 272 591 272 591 272 482 c 0,29,30
 272 375 272 375 287.5 303 c 128,-1,31
 303 231 303 231 338 187.5 c 128,-1,32
 373 144 373 144 431 125 c 128,-1,33
 489 106 489 106 575 106 c 0,34,35
 620 106 620 106 664.5 116.5 c 128,-1,36
 709 127 709 127 745 139.5 c 128,-1,37
 781 152 781 152 804 163 c 128,-1,38
 827 174 827 174 830 175 c 1,39,-1
 872 85 l 1,40,41
 864 79 864 79 835 60.5 c 128,-1,42
 806 42 806 42 760.5 22 c 128,-1,43
 715 2 715 2 654.5 -13.5 c 128,-1,44
 594 -29 594 -29 523 -29 c 0,45,46
 468 -29 468 -29 414.5 -22 c 128,-1,47
 361 -15 361 -15 313.5 4 c 128,-1,48
 266 23 266 23 226 57 c 128,-1,49
 186 91 186 91 157 146 c 128,-1,50
 128 201 128 201 111.5 279.5 c 128,-1,51
 95 358 95 358 95 465 c 0,0,1
EndSplineSet
EndChar

StartChar: a
Encoding: 97 97 16
Width: 1014
Flags: W
LayerCount: 2
Fore
SplineSet
78 223 m 1,0,1
 82 311 82 311 121 367.5 c 128,-1,2
 160 424 160 424 225 457.5 c 128,-1,3
 290 491 290 491 378.5 506 c 128,-1,4
 467 521 467 521 572 527 c 1,5,-1
 640 532 l 1,6,-1
 640 636 l 1,7,8
 639 703 639 703 629 743.5 c 128,-1,9
 619 784 619 784 595.5 806 c 128,-1,10
 572 828 572 828 532.5 834.5 c 128,-1,11
 493 841 493 841 435 841 c 0,12,13
 367 841 367 841 304 825.5 c 128,-1,14
 241 810 241 810 178 787 c 1,15,-1
 137 884 l 1,16,17
 150 891 150 891 180.5 906.5 c 128,-1,18
 211 922 211 922 255 938 c 128,-1,19
 299 954 299 954 355.5 966.5 c 128,-1,20
 412 979 412 979 478 979 c 0,21,22
 574 979 574 979 637.5 961 c 128,-1,23
 701 943 701 943 738 902 c 128,-1,24
 775 861 775 861 790 794 c 128,-1,25
 805 727 805 727 805 629 c 2,26,-1
 805 106 l 1,27,-1
 992 106 l 1,28,-1
 999 23 l 1,29,30
 987 18 987 18 960 9 c 128,-1,31
 933 0 933 0 900 -8.5 c 128,-1,32
 867 -17 867 -17 832 -23 c 128,-1,33
 797 -29 797 -29 769 -29 c 0,34,35
 727 -29 727 -29 703.5 -17.5 c 128,-1,36
 680 -6 680 -6 668.5 10.5 c 128,-1,37
 657 27 657 27 654.5 46.5 c 128,-1,38
 652 66 652 66 652 81 c 2,39,-1
 652 128 l 1,40,-1
 650 128 l 1,41,42
 626 104 626 104 591.5 76 c 128,-1,43
 557 48 557 48 515 25 c 128,-1,44
 473 2 473 2 424 -13.5 c 128,-1,45
 375 -29 375 -29 322 -29 c 0,46,47
 281 -29 281 -29 237.5 -19.5 c 128,-1,48
 194 -10 194 -10 158.5 16 c 128,-1,49
 123 42 123 42 100.5 87 c 128,-1,50
 78 132 78 132 78 203 c 2,51,-1
 78 223 l 1,0,1
250 225 m 0,52,53
 250 189 250 189 260.5 166 c 128,-1,54
 271 143 271 143 289 129 c 128,-1,55
 307 115 307 115 329.5 109.5 c 128,-1,56
 352 104 352 104 376 104 c 0,57,58
 401 104 401 104 431 109.5 c 128,-1,59
 461 115 461 115 495 127 c 128,-1,60
 529 139 529 139 565.5 159 c 128,-1,61
 602 179 602 179 640 208 c 1,62,-1
 640 444 l 1,63,-1
 562 437 l 2,64,65
 402 423 402 423 326 372.5 c 128,-1,66
 250 322 250 322 250 225 c 0,52,53
EndSplineSet
EndChar

StartChar: U
Encoding: 85 85 17
Width: 1522
Flags: W
LayerCount: 2
Fore
SplineSet
223 1328 m 1,0,-1
 57 1359 l 1,1,2
 55 1364 55 1364 54.5 1375.5 c 128,-1,3
 54 1387 54 1387 54 1394 c 0,4,5
 54 1409 54 1409 58 1425 c 128,-1,6
 62 1441 62 1441 66 1448 c 1,7,-1
 582 1448 l 1,8,-1
 591 1364 l 1,9,10
 573 1357 573 1357 549 1351.5 c 128,-1,11
 525 1346 525 1346 499.5 1341.5 c 128,-1,12
 474 1337 474 1337 450.5 1333.5 c 128,-1,13
 427 1330 427 1330 409 1328 c 1,14,-1
 409 607 l 2,15,16
 409 532 409 532 412.5 465.5 c 128,-1,17
 416 399 416 399 428.5 342.5 c 128,-1,18
 441 286 441 286 467 240.5 c 128,-1,19
 493 195 493 195 537.5 163 c 128,-1,20
 582 131 582 131 648.5 114 c 128,-1,21
 715 97 715 97 810 97 c 0,22,23
 893 97 893 97 951.5 115 c 128,-1,24
 1010 133 1010 133 1049.5 164.5 c 128,-1,25
 1089 196 1089 196 1112 238.5 c 128,-1,26
 1135 281 1135 281 1147 329.5 c 128,-1,27
 1159 378 1159 378 1162.5 431 c 128,-1,28
 1166 484 1166 484 1166 537 c 2,29,-1
 1166 1328 l 1,30,-1
 995 1359 l 1,31,32
 993 1364 993 1364 992.5 1375.5 c 128,-1,33
 992 1387 992 1387 992 1394 c 0,34,35
 992 1409 992 1409 996 1425 c 128,-1,36
 1000 1441 1000 1441 1004 1448 c 1,37,-1
 1468 1448 l 1,38,-1
 1477 1362 l 1,39,40
 1462 1356 1462 1356 1442 1350.5 c 128,-1,41
 1422 1345 1422 1345 1401 1341 c 128,-1,42
 1380 1337 1380 1337 1360 1334 c 128,-1,43
 1340 1331 1340 1331 1324 1329 c 1,44,-1
 1324 537 l 2,45,46
 1324 414 1324 414 1299 310.5 c 128,-1,47
 1274 207 1274 207 1209.5 132 c 128,-1,48
 1145 57 1145 57 1034.5 15 c 128,-1,49
 924 -27 924 -27 754 -27 c 0,50,51
 638 -27 638 -27 553 -6.5 c 128,-1,52
 468 14 468 14 409 52 c 128,-1,53
 350 90 350 90 313.5 144 c 128,-1,54
 277 198 277 198 257 264 c 128,-1,55
 237 330 237 330 230 407.5 c 128,-1,56
 223 485 223 485 223 570 c 2,57,-1
 223 1328 l 1,0,-1
EndSplineSet
EndChar

StartChar: q
Encoding: 113 113 18
Width: 1130
Flags: W
LayerCount: 2
Fore
SplineSet
435 -29 m 0,0,1
 356 -29 356 -29 293.5 -9.5 c 128,-1,2
 231 10 231 10 187.5 61.5 c 128,-1,3
 144 113 144 113 121 203.5 c 128,-1,4
 98 294 98 294 97 437 c 0,5,6
 96 568 96 568 128.5 669 c 128,-1,7
 161 770 161 770 216.5 839 c 128,-1,8
 272 908 272 908 346 943.5 c 128,-1,9
 420 979 420 979 501 979 c 0,10,11
 561 979 561 979 615.5 965 c 128,-1,12
 670 951 670 951 714.5 932 c 128,-1,13
 759 913 759 913 791 895 c 128,-1,14
 823 877 823 877 837 868 c 1,15,16
 840 880 840 880 844.5 895.5 c 128,-1,17
 849 911 849 911 853.5 927 c 128,-1,18
 858 943 858 943 862.5 957 c 128,-1,19
 867 971 867 971 872 979 c 1,20,21
 903 975 903 975 930 971 c 128,-1,22
 957 967 957 967 988 950 c 1,23,24
 983 899 983 899 978.5 841 c 128,-1,25
 974 783 974 783 971 722.5 c 128,-1,26
 968 662 968 662 966.5 600 c 128,-1,27
 965 538 965 538 965 480 c 2,28,-1
 965 -473 l 1,29,-1
 1116 -499 l 1,30,31
 1116 -522 1116 -522 1114 -545.5 c 128,-1,32
 1112 -569 1112 -569 1106 -591 c 1,33,-1
 548 -591 l 1,34,-1
 539 -505 l 1,35,36
 558 -499 558 -499 593.5 -493.5 c 128,-1,37
 629 -488 629 -488 668 -483.5 c 128,-1,38
 707 -479 707 -479 742.5 -476.5 c 128,-1,39
 778 -474 778 -474 796 -473 c 1,40,-1
 796 108 l 1,41,42
 768 85 768 85 726 61 c 128,-1,43
 684 37 684 37 635.5 17 c 128,-1,44
 587 -3 587 -3 535 -16 c 128,-1,45
 483 -29 483 -29 435 -29 c 0,0,1
480 104 m 0,46,47
 518 104 518 104 560.5 113 c 128,-1,48
 603 122 603 122 645 137 c 128,-1,49
 687 152 687 152 726 171 c 128,-1,50
 765 190 765 190 796 210 c 1,51,-1
 796 560 l 2,52,53
 796 584 796 584 797.5 615 c 128,-1,54
 799 646 799 646 801 678 c 128,-1,55
 803 710 803 710 805 738.5 c 128,-1,56
 807 767 807 767 808 787 c 1,57,58
 791 794 791 794 759 806 c 128,-1,59
 727 818 727 818 689 830 c 128,-1,60
 651 842 651 842 611 851 c 128,-1,61
 571 860 571 860 539 860 c 0,62,63
 464 860 464 860 413 829.5 c 128,-1,64
 362 799 362 799 331.5 743.5 c 128,-1,65
 301 688 301 688 288 611 c 128,-1,66
 275 534 275 534 275 442 c 0,67,68
 275 364 275 364 283 301.5 c 128,-1,69
 291 239 291 239 313.5 195 c 128,-1,70
 336 151 336 151 376 127.5 c 128,-1,71
 416 104 416 104 480 104 c 0,46,47
EndSplineSet
EndChar

StartChar: g
Encoding: 103 103 19
Width: 1009
Flags: W
LayerCount: 2
Fore
SplineSet
291 -14 m 1,0,1
 284 -7 284 -7 272.5 4 c 128,-1,2
 261 15 261 15 253.5 33 c 128,-1,3
 246 51 246 51 246.5 77.5 c 128,-1,4
 247 104 247 104 264 142 c 2,5,-1
 322 267 l 1,6,7
 256 279 256 279 207.5 308.5 c 128,-1,8
 159 338 159 338 127 383 c 128,-1,9
 95 428 95 428 79 487 c 128,-1,10
 63 546 63 546 63 617 c 0,11,12
 63 714 63 714 98 783 c 128,-1,13
 133 852 133 852 191.5 895.5 c 128,-1,14
 250 939 250 939 326.5 959 c 128,-1,15
 403 979 403 979 487 979 c 0,16,17
 565 979 565 979 626 961.5 c 128,-1,18
 687 944 687 944 732 912 c 1,19,20
 750 931 750 931 778.5 947.5 c 128,-1,21
 807 964 807 964 840.5 974.5 c 128,-1,22
 874 985 874 985 912 988.5 c 128,-1,23
 950 992 950 992 988 986 c 1,24,-1
 988 846 l 1,25,-1
 884 846 l 2,26,27
 861 846 861 846 840.5 845 c 128,-1,28
 820 844 820 844 800 842 c 1,29,30
 828 801 828 801 841.5 751.5 c 128,-1,31
 855 702 855 702 855 645 c 0,32,33
 855 549 855 549 825.5 477 c 128,-1,34
 796 405 796 405 741 357 c 128,-1,35
 686 309 686 309 608 284.5 c 128,-1,36
 530 260 530 260 433 260 c 2,37,-1
 418 260 l 1,38,-1
 399 158 l 2,39,40
 394 128 394 128 401.5 110 c 128,-1,41
 409 92 409 92 425 83 c 128,-1,42
 441 74 441 74 463.5 71.5 c 128,-1,43
 486 69 486 69 512 70 c 0,44,45
 653 73 653 73 744.5 63 c 128,-1,46
 836 53 836 53 889 23 c 128,-1,47
 942 -7 942 -7 962.5 -60.5 c 128,-1,48
 983 -114 983 -114 983 -198 c 0,49,50
 983 -308 983 -308 933 -388 c 128,-1,51
 883 -468 883 -468 803 -519.5 c 128,-1,52
 723 -571 723 -571 623.5 -595.5 c 128,-1,53
 524 -620 524 -620 424 -620 c 1,54,55
 364 -619 364 -619 300 -605 c 128,-1,56
 236 -591 236 -591 183.5 -557.5 c 128,-1,57
 131 -524 131 -524 97 -466 c 128,-1,58
 63 -408 63 -408 63 -319 c 0,59,60
 63 -281 63 -281 75.5 -237 c 128,-1,61
 88 -193 88 -193 115.5 -151.5 c 128,-1,62
 143 -110 143 -110 186.5 -73.5 c 128,-1,63
 230 -37 230 -37 291 -14 c 1,0,1
458 364 m 0,64,65
 503 364 503 364 544.5 377.5 c 128,-1,66
 586 391 586 391 618 421 c 128,-1,67
 650 451 650 451 669 498 c 128,-1,68
 688 545 688 545 688 612 c 0,69,70
 688 694 688 694 671 745.5 c 128,-1,71
 654 797 654 797 623 826 c 128,-1,72
 592 855 592 855 550 866 c 128,-1,73
 508 877 508 877 458 877 c 0,74,75
 415 877 415 877 374 867.5 c 128,-1,76
 333 858 333 858 301.5 829.5 c 128,-1,77
 270 801 270 801 251 749 c 128,-1,78
 232 697 232 697 232 612 c 0,79,80
 232 541 232 541 249 493.5 c 128,-1,81
 266 446 266 446 296 417.5 c 128,-1,82
 326 389 326 389 367.5 376.5 c 128,-1,83
 409 364 409 364 458 364 c 0,64,65
232 -291 m 0,84,85
 230 -348 230 -348 252 -386.5 c 128,-1,86
 274 -425 274 -425 311.5 -448.5 c 128,-1,87
 349 -472 349 -472 398 -482 c 128,-1,88
 447 -492 447 -492 499 -492 c 0,89,90
 572 -492 572 -492 630.5 -478 c 128,-1,91
 689 -464 689 -464 730 -434.5 c 128,-1,92
 771 -405 771 -405 792.5 -358.5 c 128,-1,93
 814 -312 814 -312 814 -246 c 0,94,95
 814 -177 814 -177 798.5 -140 c 128,-1,96
 783 -103 783 -103 754.5 -86.5 c 128,-1,97
 726 -70 726 -70 686.5 -67 c 128,-1,98
 647 -64 647 -64 600 -63 c 0,99,100
 540 -61 540 -61 487 -60 c 128,-1,101
 434 -59 434 -59 383 -45 c 1,102,103
 355 -61 355 -61 329 -81.5 c 128,-1,104
 303 -102 303 -102 282 -130.5 c 128,-1,105
 261 -159 261 -159 247.5 -198 c 128,-1,106
 234 -237 234 -237 232 -291 c 0,84,85
EndSplineSet
EndChar

StartChar: j
Encoding: 106 106 20
Width: 560
Flags: W
LayerCount: 2
Fore
SplineSet
300 1205 m 256,0,1
 276 1205 276 1205 255.5 1210.5 c 128,-1,2
 235 1216 235 1216 219 1229.5 c 128,-1,3
 203 1243 203 1243 194 1265.5 c 128,-1,4
 185 1288 185 1288 185 1321 c 256,5,6
 185 1354 185 1354 194 1376 c 128,-1,7
 203 1398 203 1398 219 1411.5 c 128,-1,8
 235 1425 235 1425 255.5 1430.5 c 128,-1,9
 276 1436 276 1436 300 1436 c 256,10,11
 324 1436 324 1436 345 1430.5 c 128,-1,12
 366 1425 366 1425 381.5 1411.5 c 128,-1,13
 397 1398 397 1398 406 1376 c 128,-1,14
 415 1354 415 1354 415 1321 c 256,15,16
 415 1288 415 1288 406 1265.5 c 128,-1,17
 397 1243 397 1243 381.5 1229.5 c 128,-1,18
 366 1216 366 1216 345 1210.5 c 128,-1,19
 324 1205 324 1205 300 1205 c 256,0,1
237 841 m 1,20,-1
 66 841 l 1,21,-1
 54 927 l 1,22,23
 73 934 73 934 103.5 943.5 c 128,-1,24
 134 953 134 953 167.5 960.5 c 128,-1,25
 201 968 201 968 233 973.5 c 128,-1,26
 265 979 265 979 288 979 c 0,27,28
 331 979 331 979 355 968 c 128,-1,29
 379 957 379 957 389.5 941 c 128,-1,30
 400 925 400 925 402 906 c 128,-1,31
 404 887 404 887 404 872 c 2,32,-1
 404 27 l 2,33,34
 404 -28 404 -28 402.5 -85.5 c 128,-1,35
 401 -143 401 -143 393 -200 c 128,-1,36
 385 -257 385 -257 367 -313.5 c 128,-1,37
 349 -370 349 -370 316 -423.5 c 128,-1,38
 283 -477 283 -477 232.5 -526.5 c 128,-1,39
 182 -576 182 -576 108 -620 c 1,40,-1
 38 -546 l 1,41,42
 75 -504 75 -504 103.5 -469 c 128,-1,43
 132 -434 132 -434 153 -402.5 c 128,-1,44
 174 -371 174 -371 188.5 -342.5 c 128,-1,45
 203 -314 203 -314 212 -286 c 0,46,47
 224 -252 224 -252 229 -216.5 c 128,-1,48
 234 -181 234 -181 236 -143 c 128,-1,49
 238 -105 238 -105 237.5 -63 c 128,-1,50
 237 -21 237 -21 237 27 c 2,51,-1
 237 841 l 1,20,-1
EndSplineSet
EndChar

StartChar: k
Encoding: 107 107 21
Width: 1137
Flags: W
LayerCount: 2
Fore
SplineSet
68 78 m 1,0,1
 80 81 80 81 98.5 85 c 128,-1,2
 117 89 117 89 140 93.5 c 128,-1,3
 163 98 163 98 188 102.5 c 128,-1,4
 213 107 213 107 237 112 c 1,5,-1
 237 1470 l 1,6,-1
 63 1470 l 1,7,-1
 52 1556 l 1,8,9
 64 1561 64 1561 92 1569.5 c 128,-1,10
 120 1578 120 1578 154 1586.5 c 128,-1,11
 188 1595 188 1595 223.5 1601.5 c 128,-1,12
 259 1608 259 1608 288 1608 c 0,13,14
 330 1608 330 1608 353 1597 c 128,-1,15
 376 1586 376 1586 387.5 1569.5 c 128,-1,16
 399 1553 399 1553 401.5 1534 c 128,-1,17
 404 1515 404 1515 404 1500 c 2,18,-1
 404 521 l 1,19,20
 449 553 449 553 502.5 593.5 c 128,-1,21
 556 634 556 634 611.5 677.5 c 128,-1,22
 667 721 667 721 722 765 c 128,-1,23
 777 809 777 809 825 848 c 1,24,25
 801 850 801 850 775 852.5 c 128,-1,26
 749 855 749 855 725.5 857.5 c 128,-1,27
 702 860 702 860 682.5 863.5 c 128,-1,28
 663 867 663 867 652 870 c 1,29,30
 650 886 650 886 652 910 c 128,-1,31
 654 934 654 934 661 950 c 1,32,-1
 1047 950 l 1,33,-1
 1051 868 l 1,34,-1
 1021 850 l 1,35,-1
 647 560 l 1,36,37
 681 510 681 510 719 451 c 128,-1,38
 757 392 757 392 797 334.5 c 128,-1,39
 837 277 837 277 878.5 227 c 128,-1,40
 920 177 920 177 962 147 c 0,41,42
 971 141 971 141 990 133 c 128,-1,43
 1009 125 1009 125 1031.5 117 c 128,-1,44
 1054 109 1054 109 1076.5 102.5 c 128,-1,45
 1099 96 1099 96 1114 92 c 1,46,-1
 1116 27 l 1,47,48
 1095 8 1095 8 1064 -2 c 128,-1,49
 1033 -12 1033 -12 1000 -14.5 c 128,-1,50
 967 -17 967 -17 934.5 -12 c 128,-1,51
 902 -7 902 -7 877 5 c 256,52,53
 852 17 852 17 823.5 44 c 128,-1,54
 795 71 795 71 755 125.5 c 128,-1,55
 715 180 715 180 661 267.5 c 128,-1,56
 607 355 607 355 531 489 c 1,57,-1
 402 417 l 1,58,-1
 402 110 l 1,59,-1
 562 81 l 1,60,61
 567 63 567 63 563.5 39.5 c 128,-1,62
 560 16 560 16 553 0 c 1,63,-1
 78 0 l 1,64,-1
 68 78 l 1,0,1
EndSplineSet
EndChar

StartChar: f
Encoding: 102 102 22
Width: 735
Flags: W
LayerCount: 2
Fore
SplineSet
76 78 m 1,0,1
 114 91 114 91 157.5 98.5 c 128,-1,2
 201 106 201 106 237 111 c 1,3,-1
 237 846 l 1,4,-1
 88 846 l 1,5,6
 84 871 84 871 85.5 889.5 c 128,-1,7
 87 908 87 908 92 934 c 1,8,-1
 237 950 l 1,9,-1
 237 1222 l 2,10,11
 237 1325 237 1325 262 1398 c 128,-1,12
 287 1471 287 1471 332.5 1517.5 c 128,-1,13
 378 1564 378 1564 442.5 1586 c 128,-1,14
 507 1608 507 1608 586 1608 c 0,15,16
 611 1608 611 1608 640.5 1605 c 128,-1,17
 670 1602 670 1602 703 1593.5 c 128,-1,18
 736 1585 736 1585 772 1569.5 c 128,-1,19
 808 1554 808 1554 844 1529 c 1,20,-1
 771 1394 l 1,21,22
 751 1406 751 1406 719 1421.5 c 128,-1,23
 687 1437 687 1437 650.5 1451.5 c 128,-1,24
 614 1466 614 1466 576 1476 c 128,-1,25
 538 1486 538 1486 508 1486 c 0,26,27
 475 1486 475 1486 455 1475.5 c 128,-1,28
 435 1465 435 1465 423.5 1441.5 c 128,-1,29
 412 1418 412 1418 408 1379.5 c 128,-1,30
 404 1341 404 1341 404 1286 c 2,31,-1
 404 950 l 1,32,-1
 690 950 l 1,33,34
 697 899 697 899 690 846 c 1,35,-1
 404 846 l 1,36,-1
 404 111 l 1,37,-1
 657 88 l 1,38,39
 659 83 659 83 659 71 c 128,-1,40
 659 59 659 59 659 52 c 0,41,42
 659 38 659 38 655 22.5 c 128,-1,43
 651 7 651 7 647 0 c 1,44,-1
 85 0 l 1,45,-1
 76 78 l 1,0,1
EndSplineSet
EndChar

StartChar: y
Encoding: 121 121 23
Width: 1062
Flags: W
LayerCount: 2
Fore
SplineSet
93 844 m 1,0,-1
 21 870 l 1,1,2
 19 875 19 875 18.5 883 c 128,-1,3
 18 891 18 891 18 898 c 0,4,5
 18 912 18 912 23 927.5 c 128,-1,6
 28 943 28 943 31 950 c 1,7,-1
 428 950 l 1,8,-1
 435 872 l 1,9,10
 402 861 402 861 362 854 c 128,-1,11
 322 847 322 847 287 842 c 1,12,-1
 525 215 l 1,13,-1
 555 92 l 1,14,-1
 796 840 l 1,15,-1
 622 870 l 1,16,17
 620 875 620 875 620 883 c 128,-1,18
 620 891 620 891 620 898 c 0,19,20
 620 912 620 912 624 927.5 c 128,-1,21
 628 943 628 943 631 950 c 1,22,-1
 1031 950 l 1,23,-1
 1040 865 l 1,24,25
 1030 860 1030 860 1018 856.5 c 128,-1,26
 1006 853 1006 853 993 849.5 c 128,-1,27
 980 846 980 846 968.5 843.5 c 128,-1,28
 957 841 957 841 948 839 c 1,29,-1
 659 2 l 1,30,-1
 647 -29 l 1,31,32
 605 -149 605 -149 576.5 -223.5 c 128,-1,33
 548 -298 548 -298 529.5 -341.5 c 128,-1,34
 511 -385 511 -385 501 -406 c 128,-1,35
 491 -427 491 -427 485 -440 c 0,36,37
 460 -491 460 -491 435 -525.5 c 128,-1,38
 410 -560 410 -560 380 -581 c 128,-1,39
 350 -602 350 -602 312 -611 c 128,-1,40
 274 -620 274 -620 223 -620 c 0,41,42
 191 -620 191 -620 157.5 -615.5 c 128,-1,43
 124 -611 124 -611 93.5 -603.5 c 128,-1,44
 63 -596 63 -596 37.5 -586 c 128,-1,45
 12 -576 12 -576 -5 -564 c 1,46,-1
 18 -482 l 1,47,48
 63 -487 63 -487 99 -490 c 128,-1,49
 135 -493 135 -493 175 -489 c 1,50,51
 196 -488 196 -488 218 -483 c 128,-1,52
 240 -478 240 -478 262.5 -467 c 128,-1,53
 285 -456 285 -456 307 -437 c 128,-1,54
 329 -418 329 -418 350 -388 c 0,55,56
 368 -361 368 -361 390 -319.5 c 128,-1,57
 412 -278 412 -278 435 -227 c 128,-1,58
 458 -176 458 -176 481 -118 c 128,-1,59
 504 -60 504 -60 525 0 c 1,60,-1
 435 0 l 1,61,-1
 93 844 l 1,0,-1
EndSplineSet
EndChar

StartChar: v
Encoding: 118 118 24
Width: 1082
Flags: W
LayerCount: 2
Fore
SplineSet
128 844 m 1,0,-1
 29 870 l 1,1,2
 27 875 27 875 27 883 c 128,-1,3
 27 891 27 891 27 898 c 0,4,5
 27 912 27 912 30.5 927.5 c 128,-1,6
 34 943 34 943 38 950 c 1,7,-1
 449 950 l 1,8,-1
 456 872 l 1,9,10
 423 864 423 864 386 856 c 128,-1,11
 349 848 349 848 316 843 c 1,12,-1
 537 201 l 1,13,-1
 568 108 l 1,14,-1
 595 210 l 1,15,-1
 807 842 l 1,16,-1
 645 870 l 1,17,18
 643 875 643 875 643 883 c 128,-1,19
 643 891 643 891 643 898 c 0,20,21
 643 912 643 912 647 927.5 c 128,-1,22
 651 943 651 943 654 950 c 1,23,-1
 1037 950 l 1,24,-1
 1047 865 l 1,25,26
 1027 856 1027 856 999.5 849.5 c 128,-1,27
 972 843 972 843 955 839 c 1,28,-1
 650 0 l 1,29,30
 599 -11 599 -11 543 -8.5 c 128,-1,31
 487 -6 487 -6 440 -2 c 1,32,-1
 128 844 l 1,0,-1
EndSplineSet
EndChar

StartChar: w
Encoding: 119 119 25
Width: 1576
Flags: W
LayerCount: 2
Fore
SplineSet
117 844 m 1,0,-1
 16 870 l 1,1,2
 14 875 14 875 14 883 c 128,-1,3
 14 891 14 891 14 898 c 0,4,5
 14 912 14 912 18 927.5 c 128,-1,6
 22 943 22 943 27 950 c 1,7,-1
 454 950 l 1,8,-1
 460 872 l 1,9,10
 426 864 426 864 381 855.5 c 128,-1,11
 336 847 336 847 300 842 c 1,12,-1
 458 225 l 1,13,-1
 485 108 l 1,14,-1
 505 189 l 1,15,-1
 702 950 l 1,16,17
 749 963 749 963 792 961.5 c 128,-1,18
 835 960 835 960 882 952 c 1,19,-1
 1076 225 l 1,20,-1
 1106 108 l 1,21,-1
 1130 192 l 1,22,-1
 1316 840 l 1,23,-1
 1144 870 l 1,24,25
 1142 875 1142 875 1141.5 883 c 128,-1,26
 1141 891 1141 891 1141 898 c 0,27,28
 1141 912 1141 912 1145 927.5 c 128,-1,29
 1149 943 1149 943 1153 950 c 1,30,-1
 1536 950 l 1,31,-1
 1545 865 l 1,32,33
 1526 856 1526 856 1499 849.5 c 128,-1,34
 1472 843 1472 843 1455 839 c 1,35,-1
 1191 -2 l 1,36,37
 1165 -8 1165 -8 1134 -9.5 c 128,-1,38
 1103 -11 1103 -11 1073.5 -10 c 128,-1,39
 1044 -9 1044 -9 1020 -6 c 128,-1,40
 996 -3 996 -3 983 0 c 1,41,-1
 794 672 l 1,42,-1
 773 789 l 1,43,-1
 756 674 l 1,44,-1
 572 2 l 1,45,46
 554 -3 554 -3 524 -6 c 128,-1,47
 494 -9 494 -9 462.5 -9 c 128,-1,48
 431 -9 431 -9 403.5 -7 c 128,-1,49
 376 -5 376 -5 364 0 c 1,50,-1
 117 844 l 1,0,-1
EndSplineSet
EndChar

StartChar: lslash
Encoding: 322 322 26
Width: 681
Flags: W
LayerCount: 2
Fore
SplineSet
97 78 m 1,0,1
 135 89 135 89 177.5 96.5 c 128,-1,2
 220 104 220 104 257 111 c 1,3,-1
 257 706 l 1,4,-1
 78 605 l 1,5,-1
 63 614 l 1,6,7
 61 634 61 634 60 653.5 c 128,-1,8
 59 673 59 673 59 688 c 2,9,-1
 59 721 l 1,10,-1
 257 830 l 1,11,-1
 257 1470 l 1,12,-1
 73 1470 l 1,13,-1
 61 1558 l 1,14,15
 74 1563 74 1563 104 1572 c 128,-1,16
 134 1581 134 1581 171 1589.5 c 128,-1,17
 208 1598 208 1598 246 1604 c 128,-1,18
 284 1610 284 1610 312 1610 c 0,19,20
 354 1610 354 1610 377 1598.5 c 128,-1,21
 400 1587 400 1587 411 1570.5 c 128,-1,22
 422 1554 422 1554 424 1534.5 c 128,-1,23
 426 1515 426 1515 426 1500 c 2,24,-1
 426 927 l 1,25,-1
 612 1040 l 1,26,-1
 629 1035 l 1,27,28
 634 1005 634 1005 639.5 976.5 c 128,-1,29
 645 948 645 948 645 915 c 1,30,-1
 426 799 l 1,31,-1
 426 111 l 1,32,-1
 598 81 l 1,33,34
 601 59 601 59 598.5 38 c 128,-1,35
 596 17 596 17 591 0 c 1,36,-1
 106 0 l 1,37,-1
 97 78 l 1,0,1
EndSplineSet
EndChar

StartChar: K
Encoding: 75 75 27
Width: 1437
Flags: W
LayerCount: 2
Fore
SplineSet
102 90 m 1,0,1
 140 104 140 104 184 110.5 c 128,-1,2
 228 117 228 117 269 122 c 1,3,-1
 269 1333 l 1,4,5
 228 1338 228 1338 185.5 1341.5 c 128,-1,6
 143 1345 143 1345 102 1355 c 1,7,-1
 106 1448 l 1,8,-1
 620 1448 l 1,9,10
 623 1428 623 1428 623 1401.5 c 128,-1,11
 623 1375 623 1375 620 1355 c 1,12,13
 578 1347 578 1347 534 1342.5 c 128,-1,14
 490 1338 490 1338 449 1333 c 1,15,-1
 449 690 l 1,16,17
 525 762 525 762 596.5 829.5 c 128,-1,18
 668 897 668 897 743 971.5 c 128,-1,19
 818 1046 818 1046 901 1133 c 128,-1,20
 984 1220 984 1220 1082 1331 c 1,21,22
 1053 1334 1053 1334 1007.5 1338.5 c 128,-1,23
 962 1343 962 1343 924 1351 c 1,24,25
 923 1359 923 1359 923 1372 c 128,-1,26
 923 1385 923 1385 923.5 1398.5 c 128,-1,27
 924 1412 924 1412 925 1425.5 c 128,-1,28
 926 1439 926 1439 929 1448 c 1,29,-1
 1326 1448 l 1,30,31
 1329 1442 1329 1442 1330 1425.5 c 128,-1,32
 1331 1409 1331 1409 1331 1392 c 128,-1,33
 1331 1375 1331 1375 1330 1361.5 c 128,-1,34
 1329 1348 1329 1348 1328 1347 c 2,35,-1
 1283 1328 l 1,36,-1
 771 827 l 1,37,-1
 1245 118 l 1,38,-1
 1414 95 l 2,39,40
 1415 94 1415 94 1415 81 c 128,-1,41
 1415 68 1415 68 1414 52 c 128,-1,42
 1413 36 1413 36 1411.5 21 c 128,-1,43
 1410 6 1410 6 1407 0 c 1,44,-1
 1094 0 l 1,45,-1
 640 713 l 1,46,-1
 449 560 l 1,47,-1
 449 122 l 1,48,-1
 645 90 l 1,49,50
 647 85 647 85 647 74.5 c 128,-1,51
 647 64 647 64 647 57 c 0,52,53
 647 43 647 43 643 25 c 128,-1,54
 639 7 639 7 636 0 c 1,55,-1
 111 0 l 1,56,-1
 102 90 l 1,0,1
EndSplineSet
EndChar

StartChar: I
Encoding: 73 73 28
Width: 730
Flags: W
LayerCount: 2
Fore
SplineSet
95 90 m 1,0,1
 134 104 134 104 183.5 110.5 c 128,-1,2
 233 117 233 117 275 122 c 1,3,-1
 275 1328 l 1,4,-1
 111 1359 l 1,5,6
 109 1364 109 1364 108.5 1377.5 c 128,-1,7
 108 1391 108 1391 108 1399 c 0,8,9
 108 1413 108 1413 112 1427 c 128,-1,10
 116 1441 116 1441 120 1448 c 1,11,-1
 617 1448 l 1,12,-1
 627 1364 l 1,13,14
 591 1351 591 1351 543 1342 c 128,-1,15
 495 1333 495 1333 454 1328 c 1,16,-1
 454 122 l 1,17,-1
 640 88 l 1,18,19
 642 83 642 83 642.5 73.5 c 128,-1,20
 643 64 643 64 643 57 c 0,21,22
 643 43 643 43 639 25 c 128,-1,23
 635 7 635 7 631 0 c 1,24,-1
 104 0 l 1,25,-1
 95 90 l 1,0,1
EndSplineSet
EndChar

StartChar: H
Encoding: 72 72 29
Width: 1617
Flags: W
LayerCount: 2
Fore
SplineSet
102 90 m 1,0,1
 140 104 140 104 184 110.5 c 128,-1,2
 228 117 228 117 269 122 c 1,3,-1
 269 1328 l 1,4,-1
 108 1359 l 1,5,6
 106 1364 106 1364 106 1375.5 c 128,-1,7
 106 1387 106 1387 106 1394 c 0,8,9
 106 1409 106 1409 110 1425 c 128,-1,10
 114 1441 114 1441 118 1448 c 1,11,-1
 629 1448 l 1,12,-1
 638 1364 l 1,13,14
 620 1356 620 1356 594.5 1350.5 c 128,-1,15
 569 1345 569 1345 542 1340.5 c 128,-1,16
 515 1336 515 1336 490.5 1333 c 128,-1,17
 466 1330 466 1330 449 1328 c 1,18,-1
 449 794 l 1,19,-1
 1161 794 l 1,20,-1
 1161 1328 l 1,21,-1
 992 1359 l 1,22,23
 990 1364 990 1364 990 1375.5 c 128,-1,24
 990 1387 990 1387 990 1394 c 0,25,26
 990 1409 990 1409 994 1425 c 128,-1,27
 998 1441 998 1441 1002 1448 c 1,28,-1
 1496 1448 l 1,29,-1
 1506 1362 l 1,30,31
 1467 1347 1467 1347 1424 1340 c 128,-1,32
 1381 1333 1381 1333 1340 1328 c 1,33,-1
 1340 122 l 1,34,-1
 1513 90 l 1,35,36
 1515 85 1515 85 1515 74.5 c 128,-1,37
 1515 64 1515 64 1515 57 c 0,38,39
 1515 43 1515 43 1511 25 c 128,-1,40
 1507 7 1507 7 1504 0 c 1,41,-1
 979 0 l 1,42,-1
 969 90 l 1,43,44
 988 97 988 97 1013 101.5 c 128,-1,45
 1038 106 1038 106 1064 110 c 128,-1,46
 1090 114 1090 114 1115 116.5 c 128,-1,47
 1140 119 1140 119 1161 122 c 1,48,-1
 1161 676 l 1,49,-1
 449 676 l 1,50,-1
 449 122 l 1,51,-1
 645 90 l 1,52,53
 647 85 647 85 647 74.5 c 128,-1,54
 647 64 647 64 647 57 c 0,55,56
 647 43 647 43 643 25 c 128,-1,57
 639 7 639 7 636 0 c 1,58,-1
 111 0 l 1,59,-1
 102 90 l 1,0,1
EndSplineSet
EndChar

StartChar: O
Encoding: 79 79 30
Width: 1522
Flags: W
LayerCount: 2
Fore
SplineSet
704 -40 m 2,0,1
 587 -40 587 -40 500 -12.5 c 128,-1,2
 413 15 413 15 351 65.5 c 128,-1,3
 289 116 289 116 249.5 185.5 c 128,-1,4
 210 255 210 255 187 339.5 c 128,-1,5
 164 424 164 424 155.5 519.5 c 128,-1,6
 147 615 147 615 147 717 c 2,7,-1
 147 719 l 2,8,9
 147 824 147 824 161 921.5 c 128,-1,10
 175 1019 175 1019 205.5 1103 c 128,-1,11
 236 1187 236 1187 285 1256 c 128,-1,12
 334 1325 334 1325 403 1374 c 128,-1,13
 472 1423 472 1423 563.5 1450 c 128,-1,14
 655 1477 655 1477 771 1477 c 2,15,-1
 841 1477 l 2,16,17
 959 1477 959 1477 1045 1450.5 c 128,-1,18
 1131 1424 1131 1424 1191.5 1375.5 c 128,-1,19
 1252 1327 1252 1327 1289 1259 c 128,-1,20
 1326 1191 1326 1191 1347 1107.5 c 128,-1,21
 1368 1024 1368 1024 1375 927.5 c 128,-1,22
 1382 831 1382 831 1382 726 c 2,23,-1
 1382 713 l 2,24,25
 1382 555 1382 555 1349 418 c 128,-1,26
 1316 281 1316 281 1243.5 179 c 128,-1,27
 1171 77 1171 77 1055.5 18.5 c 128,-1,28
 940 -40 940 -40 775 -40 c 2,29,-1
 704 -40 l 2,0,1
760 83 m 0,30,31
 897 83 897 83 981.5 131 c 128,-1,32
 1066 179 1066 179 1112.5 264 c 128,-1,33
 1159 349 1159 349 1175 465.5 c 128,-1,34
 1191 582 1191 582 1191 719 c 0,35,36
 1191 801 1191 801 1187 880 c 128,-1,37
 1183 959 1183 959 1168.5 1029.5 c 128,-1,38
 1154 1100 1154 1100 1126.5 1159 c 128,-1,39
 1099 1218 1099 1218 1052 1260.5 c 128,-1,40
 1005 1303 1005 1303 935 1327 c 128,-1,41
 865 1351 865 1351 766 1351 c 0,42,43
 675 1351 675 1351 608 1329.5 c 128,-1,44
 541 1308 541 1308 493.5 1268 c 128,-1,45
 446 1228 446 1228 416.5 1171 c 128,-1,46
 387 1114 387 1114 370 1044 c 128,-1,47
 353 974 353 974 346.5 892 c 128,-1,48
 340 810 340 810 340 719 c 0,49,50
 340 641 340 641 344.5 564 c 128,-1,51
 349 487 349 487 363.5 416.5 c 128,-1,52
 378 346 378 346 406 285 c 128,-1,53
 434 224 434 224 480.5 179 c 128,-1,54
 527 134 527 134 595.5 108.5 c 128,-1,55
 664 83 664 83 760 83 c 0,30,31
EndSplineSet
EndChar

StartChar: o
Encoding: 111 111 31
Width: 1116
Flags: W
LayerCount: 2
Fore
SplineSet
95 475 m 256,0,1
 95 580 95 580 124.5 671.5 c 128,-1,2
 154 763 154 763 215.5 831.5 c 128,-1,3
 277 900 277 900 370.5 939.5 c 128,-1,4
 464 979 464 979 593 979 c 256,5,6
 722 979 722 979 804 939.5 c 128,-1,7
 886 900 886 900 933.5 831.5 c 128,-1,8
 981 763 981 763 999 671.5 c 128,-1,9
 1017 580 1017 580 1017 475 c 256,10,11
 1017 370 1017 370 987 278.5 c 128,-1,12
 957 187 957 187 895.5 118.5 c 128,-1,13
 834 50 834 50 740 10.5 c 128,-1,14
 646 -29 646 -29 518 -29 c 0,15,16
 389 -29 389 -29 307 10.5 c 128,-1,17
 225 50 225 50 178 118.5 c 128,-1,18
 131 187 131 187 113 278.5 c 128,-1,19
 95 370 95 370 95 475 c 256,0,1
279 475 m 0,20,21
 279 353 279 353 298 276 c 128,-1,22
 317 199 317 199 352.5 155 c 128,-1,23
 388 111 388 111 439 94.5 c 128,-1,24
 490 78 490 78 555 78 c 0,25,26
 613 78 613 78 663.5 94.5 c 128,-1,27
 714 111 714 111 751.5 155 c 128,-1,28
 789 199 789 199 810.5 276 c 128,-1,29
 832 353 832 353 832 475 c 0,30,31
 832 596 832 596 813 673.5 c 128,-1,32
 794 751 794 751 758.5 795 c 128,-1,33
 723 839 723 839 671.5 855.5 c 128,-1,34
 620 872 620 872 555 872 c 0,35,36
 498 872 498 872 447.5 855.5 c 128,-1,37
 397 839 397 839 359.5 795 c 128,-1,38
 322 751 322 751 300.5 673.5 c 128,-1,39
 279 596 279 596 279 475 c 0,20,21
EndSplineSet
EndChar

StartChar: p
Encoding: 112 112 32
Width: 1191
Flags: W
LayerCount: 2
Fore
SplineSet
392 -473 m 1,0,-1
 652 -499 l 1,1,2
 655 -547 655 -547 645 -591 c 1,3,-1
 73 -591 l 1,4,-1
 63 -508 l 1,5,6
 101 -496 101 -496 144 -488 c 128,-1,7
 187 -480 187 -480 225 -473 c 1,8,-1
 225 841 l 1,9,-1
 45 841 l 1,10,-1
 33 927 l 1,11,12
 45 932 45 932 73 941 c 128,-1,13
 101 950 101 950 135 958.5 c 128,-1,14
 169 967 169 967 205 973 c 128,-1,15
 241 979 241 979 269 979 c 0,16,17
 311 979 311 979 334.5 967.5 c 128,-1,18
 358 956 358 956 369 939 c 128,-1,19
 380 922 380 922 382.5 903.5 c 128,-1,20
 385 885 385 885 385 870 c 2,21,-1
 385 857 l 1,22,23
 409 872 409 872 443 893 c 128,-1,24
 477 914 477 914 521 933 c 128,-1,25
 565 952 565 952 618 965.5 c 128,-1,26
 671 979 671 979 733 979 c 0,27,28
 841 979 841 979 910 944 c 128,-1,29
 979 909 979 909 1018.5 848 c 128,-1,30
 1058 787 1058 787 1072 703.5 c 128,-1,31
 1086 620 1086 620 1085 523 c 0,32,33
 1083 406 1083 406 1067 319.5 c 128,-1,34
 1051 233 1051 233 1023.5 171.5 c 128,-1,35
 996 110 996 110 959 71 c 128,-1,36
 922 32 922 32 879.5 10 c 128,-1,37
 837 -12 837 -12 790 -20.5 c 128,-1,38
 743 -29 743 -29 695 -29 c 0,39,40
 597 -29 597 -29 525.5 -1.5 c 128,-1,41
 454 26 454 26 392 76 c 1,42,-1
 392 -473 l 1,0,-1
392 187 m 1,43,44
 439 153 439 153 508.5 127.5 c 128,-1,45
 578 102 578 102 664 102 c 0,46,47
 742 102 742 102 789 134.5 c 128,-1,48
 836 167 836 167 861.5 224 c 128,-1,49
 887 281 887 281 895.5 358 c 128,-1,50
 904 435 904 435 905 523 c 0,51,52
 906 582 906 582 900 641 c 128,-1,53
 894 700 894 700 873 747 c 128,-1,54
 852 794 852 794 811.5 823.5 c 128,-1,55
 771 853 771 853 702 853 c 0,56,57
 656 853 656 853 611.5 845 c 128,-1,58
 567 837 567 837 527.5 824.5 c 128,-1,59
 488 812 488 812 453.5 795 c 128,-1,60
 419 778 419 778 392 760 c 1,61,-1
 392 187 l 1,43,44
EndSplineSet
EndChar

StartChar: J
Encoding: 74 74 33
Width: 652
Flags: W
LayerCount: 2
Fore
SplineSet
255 1328 m 1,0,-1
 76 1359 l 1,1,2
 74 1372 74 1372 73.5 1381.5 c 128,-1,3
 73 1391 73 1391 73 1399 c 0,4,5
 73 1413 73 1413 76 1427 c 128,-1,6
 79 1441 79 1441 83 1448 c 1,7,-1
 600 1448 l 1,8,-1
 609 1364 l 1,9,10
 591 1358 591 1358 569.5 1352.5 c 128,-1,11
 548 1347 548 1347 524.5 1342.5 c 128,-1,12
 501 1338 501 1338 478 1334.5 c 128,-1,13
 455 1331 455 1331 435 1328 c 1,14,-1
 435 167 l 2,15,16
 435 13 435 13 407.5 -110 c 128,-1,17
 380 -233 380 -233 326.5 -328.5 c 128,-1,18
 273 -424 273 -424 194 -494 c 128,-1,19
 115 -564 115 -564 12 -612 c 1,20,21
 3 -602 3 -602 -7 -589 c 128,-1,22
 -17 -576 -17 -576 -26 -562.5 c 128,-1,23
 -35 -549 -35 -549 -42 -535.5 c 128,-1,24
 -49 -522 -49 -522 -52 -512 c 1,25,26
 -2 -476 -2 -476 40 -439 c 128,-1,27
 82 -402 82 -402 116 -358.5 c 128,-1,28
 150 -315 150 -315 176 -263 c 128,-1,29
 202 -211 202 -211 219.5 -143.5 c 128,-1,30
 237 -76 237 -76 246 9 c 128,-1,31
 255 94 255 94 255 203 c 2,32,-1
 255 1328 l 1,0,-1
EndSplineSet
EndChar

StartChar: E
Encoding: 69 69 34
Width: 1269
Flags: W
LayerCount: 2
Fore
SplineSet
102 90 m 1,0,1
 140 104 140 104 184 109.5 c 128,-1,2
 228 115 228 115 269 120 c 1,3,-1
 269 1328 l 1,4,-1
 108 1359 l 1,5,6
 106 1364 106 1364 106 1375.5 c 128,-1,7
 106 1387 106 1387 106 1394 c 0,8,9
 106 1409 106 1409 110 1425 c 128,-1,10
 114 1441 114 1441 118 1448 c 1,11,-1
 1127 1448 l 1,12,-1
 1141 1432 l 1,13,14
 1142 1394 1142 1394 1138 1344.5 c 128,-1,15
 1134 1295 1134 1295 1127.5 1246 c 128,-1,16
 1121 1197 1121 1197 1114 1155.5 c 128,-1,17
 1107 1114 1107 1114 1101 1092 c 1,18,19
 1078 1087 1078 1087 1049.5 1087.5 c 128,-1,20
 1021 1088 1021 1088 992 1092 c 1,21,-1
 974 1331 l 1,22,-1
 449 1331 l 1,23,-1
 449 808 l 1,24,-1
 947 814 l 1,25,26
 952 785 952 785 949 748 c 128,-1,27
 946 711 946 711 941 679 c 1,28,-1
 449 690 l 1,29,-1
 449 120 l 1,30,-1
 1021 120 l 1,31,-1
 1087 343 l 1,32,33
 1116 345 1116 345 1145.5 343 c 128,-1,34
 1175 341 1175 341 1198 334 c 1,35,36
 1197 299 1197 299 1194.5 256 c 128,-1,37
 1192 213 1192 213 1188 169.5 c 128,-1,38
 1184 126 1184 126 1180 86 c 128,-1,39
 1176 46 1176 46 1172 16 c 1,40,-1
 1151 0 l 1,41,-1
 111 0 l 1,42,-1
 102 90 l 1,0,1
EndSplineSet
EndChar

StartChar: F
Encoding: 70 70 35
Width: 1155
Flags: W
LayerCount: 2
Fore
SplineSet
102 90 m 1,0,1
 121 97 121 97 143.5 101.5 c 128,-1,2
 166 106 166 106 189.5 110 c 128,-1,3
 213 114 213 114 236 116.5 c 128,-1,4
 259 119 259 119 279 122 c 1,5,-1
 279 1328 l 1,6,-1
 118 1359 l 1,7,8
 116 1364 116 1364 115.5 1375.5 c 128,-1,9
 115 1387 115 1387 115 1394 c 0,10,11
 115 1409 115 1409 119 1425 c 128,-1,12
 123 1441 123 1441 128 1448 c 1,13,-1
 1089 1448 l 1,14,-1
 1103 1432 l 1,15,16
 1104 1394 1104 1394 1100 1346.5 c 128,-1,17
 1096 1299 1096 1299 1090 1252.5 c 128,-1,18
 1084 1206 1084 1206 1076.5 1165.5 c 128,-1,19
 1069 1125 1069 1125 1064 1103 c 1,20,21
 1041 1098 1041 1098 1011 1099 c 128,-1,22
 981 1100 981 1100 952 1103 c 1,23,-1
 934 1331 l 1,24,-1
 458 1331 l 1,25,-1
 458 775 l 1,26,-1
 917 780 l 1,27,28
 922 751 922 751 918.5 714 c 128,-1,29
 915 677 915 677 909 645 c 1,30,-1
 458 657 l 1,31,-1
 458 122 l 1,32,-1
 726 90 l 1,33,34
 728 85 728 85 728 75.5 c 128,-1,35
 728 66 728 66 728 59 c 0,36,37
 728 45 728 45 724 26 c 128,-1,38
 720 7 720 7 717 0 c 1,39,-1
 111 0 l 1,40,-1
 102 90 l 1,0,1
EndSplineSet
EndChar

StartChar: L
Encoding: 76 76 36
Width: 1193
Flags: W
LayerCount: 2
Fore
SplineSet
102 90 m 1,0,1
 140 104 140 104 184 109.5 c 128,-1,2
 228 115 228 115 269 120 c 1,3,-1
 269 1328 l 1,4,-1
 106 1359 l 1,5,6
 104 1372 104 1372 105 1381.5 c 128,-1,7
 106 1391 106 1391 106 1399 c 0,8,9
 108 1416 108 1416 110 1428.5 c 128,-1,10
 112 1441 112 1441 115 1448 c 1,11,-1
 638 1448 l 1,12,-1
 647 1364 l 1,13,14
 630 1358 630 1358 604.5 1353 c 128,-1,15
 579 1348 579 1348 551.5 1343 c 128,-1,16
 524 1338 524 1338 496.5 1334.5 c 128,-1,17
 469 1331 469 1331 449 1328 c 1,18,-1
 449 120 l 1,19,-1
 957 120 l 1,20,-1
 1028 359 l 1,21,22
 1057 361 1057 361 1086.5 359 c 128,-1,23
 1116 357 1116 357 1139 350 c 1,24,25
 1138 315 1138 315 1135.5 269.5 c 128,-1,26
 1133 224 1133 224 1129 177.5 c 128,-1,27
 1125 131 1125 131 1121 88.5 c 128,-1,28
 1117 46 1117 46 1114 16 c 1,29,-1
 1092 0 l 1,30,-1
 111 0 l 1,31,-1
 102 90 l 1,0,1
EndSplineSet
EndChar

StartChar: T
Encoding: 84 84 37
Width: 1236
Flags: W
LayerCount: 2
Fore
SplineSet
336 90 m 1,0,1
 355 97 355 97 381 101.5 c 128,-1,2
 407 106 407 106 434 110 c 128,-1,3
 461 114 461 114 487.5 116.5 c 128,-1,4
 514 119 514 119 534 122 c 1,5,-1
 534 1340 l 1,6,-1
 192 1340 l 1,7,-1
 173 1099 l 1,8,9
 144 1095 144 1095 113 1095.5 c 128,-1,10
 82 1096 82 1096 59 1101 c 1,11,12
 56 1129 56 1129 52 1170.5 c 128,-1,13
 48 1212 48 1212 45 1257.5 c 128,-1,14
 42 1303 42 1303 40 1348.5 c 128,-1,15
 38 1394 38 1394 38 1432 c 1,16,-1
 59 1448 l 1,17,-1
 1189 1448 l 1,18,-1
 1211 1432 l 1,19,20
 1211 1394 1211 1394 1209 1348.5 c 128,-1,21
 1207 1303 1207 1303 1203.5 1257.5 c 128,-1,22
 1200 1212 1200 1212 1196 1170.5 c 128,-1,23
 1192 1129 1192 1129 1189 1101 c 1,24,25
 1166 1096 1166 1096 1135.5 1095.5 c 128,-1,26
 1105 1095 1105 1095 1076 1099 c 1,27,-1
 1056 1340 l 1,28,-1
 713 1340 l 1,29,-1
 713 126 l 1,30,-1
 934 88 l 1,31,32
 936 83 936 83 936 73.5 c 128,-1,33
 936 64 936 64 936 57 c 0,34,35
 936 43 936 43 932 25 c 128,-1,36
 928 7 928 7 924 0 c 1,37,-1
 345 0 l 1,38,-1
 336 90 l 1,0,1
EndSplineSet
EndChar

StartChar: Q
Encoding: 81 81 38
Width: 1538
Flags: W
LayerCount: 2
Fore
SplineSet
704 -40 m 2,0,1
 587 -40 587 -40 500 -12.5 c 128,-1,2
 413 15 413 15 351 65.5 c 128,-1,3
 289 116 289 116 249.5 185.5 c 128,-1,4
 210 255 210 255 187 339.5 c 128,-1,5
 164 424 164 424 155.5 519.5 c 128,-1,6
 147 615 147 615 147 717 c 2,7,-1
 147 719 l 2,8,9
 147 824 147 824 161 921.5 c 128,-1,10
 175 1019 175 1019 205.5 1103 c 128,-1,11
 236 1187 236 1187 285 1256 c 128,-1,12
 334 1325 334 1325 403 1374 c 128,-1,13
 472 1423 472 1423 563.5 1450 c 128,-1,14
 655 1477 655 1477 771 1477 c 2,15,-1
 841 1477 l 2,16,17
 959 1477 959 1477 1045 1450.5 c 128,-1,18
 1131 1424 1131 1424 1191.5 1375.5 c 128,-1,19
 1252 1327 1252 1327 1289 1259 c 128,-1,20
 1326 1191 1326 1191 1347 1107.5 c 128,-1,21
 1368 1024 1368 1024 1375 927.5 c 128,-1,22
 1382 831 1382 831 1382 726 c 2,23,-1
 1382 713 l 2,24,25
 1382 566 1382 566 1353.5 436.5 c 128,-1,26
 1325 307 1325 307 1262 207 c 128,-1,27
 1199 107 1199 107 1099.5 43.5 c 128,-1,28
 1000 -20 1000 -20 859 -35 c 1,29,30
 908 -127 908 -127 948 -179.5 c 128,-1,31
 988 -232 988 -232 1028 -258.5 c 128,-1,32
 1068 -285 1068 -285 1112 -291.5 c 128,-1,33
 1156 -298 1156 -298 1213 -298 c 0,34,35
 1264 -298 1264 -298 1305 -294 c 128,-1,36
 1346 -290 1346 -290 1366 -286 c 1,37,-1
 1392 -383 l 1,38,39
 1370 -396 1370 -396 1337.5 -408 c 128,-1,40
 1305 -420 1305 -420 1268.5 -429 c 128,-1,41
 1232 -438 1232 -438 1194.5 -443.5 c 128,-1,42
 1157 -449 1157 -449 1125 -449 c 0,43,44
 1053 -449 1053 -449 1000 -431 c 128,-1,45
 947 -413 947 -413 908 -382 c 128,-1,46
 869 -351 869 -351 841.5 -310 c 128,-1,47
 814 -269 814 -269 793 -223.5 c 128,-1,48
 772 -178 772 -178 755.5 -131 c 128,-1,49
 739 -84 739 -84 723 -40 c 1,50,-1
 704 -40 l 2,0,1
760 83 m 0,51,52
 897 83 897 83 981.5 131 c 128,-1,53
 1066 179 1066 179 1112.5 264 c 128,-1,54
 1159 349 1159 349 1175 465.5 c 128,-1,55
 1191 582 1191 582 1191 719 c 0,56,57
 1191 801 1191 801 1187 880 c 128,-1,58
 1183 959 1183 959 1168.5 1029.5 c 128,-1,59
 1154 1100 1154 1100 1126.5 1159 c 128,-1,60
 1099 1218 1099 1218 1052 1260.5 c 128,-1,61
 1005 1303 1005 1303 935 1327 c 128,-1,62
 865 1351 865 1351 766 1351 c 0,63,64
 675 1351 675 1351 608 1329.5 c 128,-1,65
 541 1308 541 1308 493.5 1268 c 128,-1,66
 446 1228 446 1228 416.5 1171 c 128,-1,67
 387 1114 387 1114 370 1044 c 128,-1,68
 353 974 353 974 346.5 892 c 128,-1,69
 340 810 340 810 340 719 c 0,70,71
 340 641 340 641 344.5 564 c 128,-1,72
 349 487 349 487 363.5 416.5 c 128,-1,73
 378 346 378 346 406 285 c 128,-1,74
 434 224 434 224 480.5 179 c 128,-1,75
 527 134 527 134 595.5 108.5 c 128,-1,76
 664 83 664 83 760 83 c 0,51,52
EndSplineSet
EndChar

StartChar: C
Encoding: 67 67 39
Width: 1347
Flags: W
LayerCount: 2
Fore
SplineSet
137 709 m 0,0,1
 137 902 137 902 183 1046 c 128,-1,2
 229 1190 229 1190 315 1286 c 128,-1,3
 401 1382 401 1382 524 1429.5 c 128,-1,4
 647 1477 647 1477 801 1477 c 0,5,6
 881 1477 881 1477 948 1470 c 128,-1,7
 1015 1463 1015 1463 1069 1452 c 128,-1,8
 1123 1441 1123 1441 1163.5 1428 c 128,-1,9
 1204 1415 1204 1415 1231 1404 c 1,10,-1
 1234 1392 l 1,11,12
 1235 1354 1235 1354 1230.5 1307 c 128,-1,13
 1226 1260 1226 1260 1219.5 1214 c 128,-1,14
 1213 1168 1213 1168 1206 1129.5 c 128,-1,15
 1199 1091 1199 1091 1193 1069 c 1,16,17
 1170 1064 1170 1064 1139.5 1064.5 c 128,-1,18
 1109 1065 1109 1065 1080 1069 c 1,19,-1
 1062 1288 l 1,20,21
 1026 1307 1026 1307 986 1319.5 c 128,-1,22
 946 1332 946 1332 905 1339 c 128,-1,23
 864 1346 864 1346 825.5 1348.5 c 128,-1,24
 787 1351 787 1351 754 1351 c 0,25,26
 638 1351 638 1351 556.5 1306 c 128,-1,27
 475 1261 475 1261 424 1179.5 c 128,-1,28
 373 1098 373 1098 350 984 c 128,-1,29
 327 870 327 870 327 733 c 0,30,31
 327 574 327 574 351 456 c 128,-1,32
 375 338 375 338 430.5 259.5 c 128,-1,33
 486 181 486 181 578 142.5 c 128,-1,34
 670 104 670 104 805 104 c 0,35,36
 843 104 843 104 882 107 c 128,-1,37
 921 110 921 110 955.5 116 c 128,-1,38
 990 122 990 122 1019 130 c 128,-1,39
 1048 138 1048 138 1066 147 c 1,40,-1
 1123 372 l 1,41,42
 1165 377 1165 377 1189 375.5 c 128,-1,43
 1213 374 1213 374 1229 368 c 1,44,45
 1230 347 1230 347 1231 317 c 128,-1,46
 1232 287 1232 287 1232.5 250.5 c 128,-1,47
 1233 214 1233 214 1233 173 c 128,-1,48
 1233 132 1233 132 1231 90 c 1,49,50
 1213 71 1213 71 1171 50 c 128,-1,51
 1129 29 1129 29 1069 11.5 c 128,-1,52
 1009 -6 1009 -6 934.5 -17.5 c 128,-1,53
 860 -29 860 -29 778 -29 c 0,54,55
 685 -29 685 -29 601 -18 c 128,-1,56
 517 -7 517 -7 445.5 22.5 c 128,-1,57
 374 52 374 52 317 104.5 c 128,-1,58
 260 157 260 157 220 239 c 128,-1,59
 180 321 180 321 158.5 436.5 c 128,-1,60
 137 552 137 552 137 709 c 0,0,1
EndSplineSet
EndChar

StartChar: G
Encoding: 71 71 40
Width: 1418
Flags: W
LayerCount: 2
Fore
SplineSet
130 709 m 0,0,1
 130 902 130 902 176.5 1046 c 128,-1,2
 223 1190 223 1190 310 1286 c 128,-1,3
 397 1382 397 1382 521 1429.5 c 128,-1,4
 645 1477 645 1477 799 1477 c 0,5,6
 879 1477 879 1477 946.5 1470.5 c 128,-1,7
 1014 1464 1014 1464 1069 1453.5 c 128,-1,8
 1124 1443 1124 1443 1165.5 1430.5 c 128,-1,9
 1207 1418 1207 1418 1234 1407 c 1,10,-1
 1236 1394 l 1,11,12
 1237 1356 1237 1356 1233 1309 c 128,-1,13
 1229 1262 1229 1262 1222.5 1216.5 c 128,-1,14
 1216 1171 1216 1171 1209 1132 c 128,-1,15
 1202 1093 1202 1093 1196 1071 c 1,16,17
 1173 1066 1173 1066 1142 1066.5 c 128,-1,18
 1111 1067 1111 1067 1082 1071 c 1,19,-1
 1064 1290 l 1,20,21
 1023 1309 1023 1309 981 1321 c 128,-1,22
 939 1333 939 1333 899 1340 c 128,-1,23
 859 1347 859 1347 821.5 1349 c 128,-1,24
 784 1351 784 1351 751 1351 c 0,25,26
 635 1351 635 1351 554 1306 c 128,-1,27
 473 1261 473 1261 422 1179.5 c 128,-1,28
 371 1098 371 1098 347.5 984 c 128,-1,29
 324 870 324 870 324 733 c 0,30,31
 324 574 324 574 348 455 c 128,-1,32
 372 336 372 336 428 257 c 128,-1,33
 484 178 484 178 576 138.5 c 128,-1,34
 668 99 668 99 803 99 c 0,35,36
 841 99 841 99 882.5 102.5 c 128,-1,37
 924 106 924 106 961.5 112 c 128,-1,38
 999 118 999 118 1030.5 126 c 128,-1,39
 1062 134 1062 134 1080 144 c 1,40,-1
 1080 557 l 1,41,-1
 1078 557 l 1,42,43
 1064 559 1064 559 1032 562 c 128,-1,44
 1000 565 1000 565 963 569 c 128,-1,45
 926 573 926 573 892 577.5 c 128,-1,46
 858 582 858 582 839 586 c 1,47,48
 838 594 838 594 838 608 c 128,-1,49
 838 622 838 622 839.5 637 c 128,-1,50
 841 652 841 652 843.5 666 c 128,-1,51
 846 680 846 680 850 688 c 1,52,-1
 1326 688 l 1,53,54
 1329 682 1329 682 1331 666.5 c 128,-1,55
 1333 651 1333 651 1334 634.5 c 128,-1,56
 1335 618 1335 618 1335.5 605 c 128,-1,57
 1336 592 1336 592 1335 591 c 2,58,-1
 1260 562 l 1,59,-1
 1260 108 l 1,60,61
 1235 85 1235 85 1186 61 c 128,-1,62
 1137 37 1137 37 1072.5 17 c 128,-1,63
 1008 -3 1008 -3 931.5 -16 c 128,-1,64
 855 -29 855 -29 775 -29 c 0,65,66
 682 -29 682 -29 598 -19 c 128,-1,67
 514 -9 514 -9 442 19.5 c 128,-1,68
 370 48 370 48 312.5 99 c 128,-1,69
 255 150 255 150 214.5 232 c 128,-1,70
 174 314 174 314 152 431 c 128,-1,71
 130 548 130 548 130 709 c 0,0,1
EndSplineSet
EndChar

StartChar: z
Encoding: 122 122 41
Width: 927
Flags: W
LayerCount: 2
Fore
SplineSet
122 0 m 1,0,1
 116 11 116 11 110.5 27 c 128,-1,2
 105 43 105 43 101 61 c 128,-1,3
 97 79 97 79 94.5 96.5 c 128,-1,4
 92 114 92 114 92 128 c 1,5,-1
 652 844 l 1,6,-1
 257 844 l 1,7,-1
 223 659 l 1,8,-1
 122 664 l 1,9,10
 114 733 114 733 110.5 806.5 c 128,-1,11
 107 880 107 880 118 950 c 1,12,-1
 803 950 l 1,13,14
 810 940 810 940 817.5 926.5 c 128,-1,15
 825 913 825 913 831 898 c 128,-1,16
 837 883 837 883 840.5 867.5 c 128,-1,17
 844 852 844 852 844 839 c 1,18,-1
 275 108 l 1,19,-1
 706 108 l 1,20,-1
 744 291 l 1,21,-1
 848 286 l 1,22,23
 851 265 851 265 852.5 228.5 c 128,-1,24
 854 192 854 192 854 150.5 c 128,-1,25
 854 109 854 109 852.5 68.5 c 128,-1,26
 851 28 851 28 848 0 c 1,27,-1
 122 0 l 1,0,1
EndSplineSet
EndChar

StartChar: D
Encoding: 68 68 42
Width: 1468
Flags: W
LayerCount: 2
Fore
SplineSet
102 95 m 1,0,1
 143 103 143 103 186.5 110 c 128,-1,2
 230 117 230 117 272 122 c 1,3,-1
 272 1331 l 1,4,5
 230 1336 230 1336 191 1341.5 c 128,-1,6
 152 1347 152 1347 111 1357 c 1,7,8
 106 1403 106 1403 120 1448 c 1,9,-1
 692 1448 l 2,10,11
 782 1448 782 1448 865.5 1435.5 c 128,-1,12
 949 1423 949 1423 1021 1393.5 c 128,-1,13
 1093 1364 1093 1364 1152 1315 c 128,-1,14
 1211 1266 1211 1266 1252.5 1194 c 128,-1,15
 1294 1122 1294 1122 1317 1024.5 c 128,-1,16
 1340 927 1340 927 1340 799 c 2,17,-1
 1340 717 l 2,18,19
 1340 521 1340 521 1294.5 384.5 c 128,-1,20
 1249 248 1249 248 1161 162.5 c 128,-1,21
 1073 77 1073 77 945 38.5 c 128,-1,22
 817 0 817 0 652 0 c 2,23,-1
 108 0 l 1,24,-1
 102 95 l 1,0,1
667 115 m 1,25,-1
 717 115 l 2,26,27
 833 115 833 115 915 156.5 c 128,-1,28
 997 198 997 198 1048.5 275 c 128,-1,29
 1100 352 1100 352 1124 462 c 128,-1,30
 1148 572 1148 572 1148 709 c 2,31,-1
 1148 785 l 2,32,33
 1148 940 1148 940 1116.5 1043 c 128,-1,34
 1085 1146 1085 1146 1019 1209 c 128,-1,35
 953 1272 953 1272 849.5 1300 c 128,-1,36
 746 1328 746 1328 602 1333 c 1,37,-1
 451 1331 l 1,38,-1
 451 122 l 1,39,-1
 667 115 l 1,25,-1
EndSplineSet
EndChar

StartChar: aogonek
Encoding: 261 261 43
Width: 1059
Flags: W
LayerCount: 2
Fore
SplineSet
97 223 m 1,0,1
 101 311 101 311 140 367.5 c 128,-1,2
 179 424 179 424 244 457.5 c 128,-1,3
 309 491 309 491 397.5 506 c 128,-1,4
 486 521 486 521 591 527 c 1,5,-1
 659 532 l 1,6,-1
 659 636 l 1,7,8
 658 703 658 703 648 743.5 c 128,-1,9
 638 784 638 784 614.5 806 c 128,-1,10
 591 828 591 828 551.5 834.5 c 128,-1,11
 512 841 512 841 454 841 c 0,12,13
 386 841 386 841 323 825.5 c 128,-1,14
 260 810 260 810 197 787 c 1,15,-1
 156 884 l 1,16,17
 169 891 169 891 199.5 906.5 c 128,-1,18
 230 922 230 922 274 938 c 128,-1,19
 318 954 318 954 374.5 966.5 c 128,-1,20
 431 979 431 979 497 979 c 0,21,22
 593 979 593 979 656.5 961 c 128,-1,23
 720 943 720 943 757 902 c 128,-1,24
 794 861 794 861 809 794 c 128,-1,25
 824 727 824 727 824 629 c 2,26,-1
 824 106 l 1,27,-1
 1011 106 l 1,28,-1
 1018 23 l 2,29,30
 1017 23 1017 23 1017 22 c 0,31,32
 983 -13 983 -13 948.5 -46.5 c 128,-1,33
 914 -80 914 -80 886 -113 c 128,-1,34
 858 -146 858 -146 840.5 -178.5 c 128,-1,35
 823 -211 823 -211 823 -242 c 0,36,37
 823 -264 823 -264 837.5 -281 c 128,-1,38
 852 -298 852 -298 891 -298 c 0,39,40
 903 -298 903 -298 916 -295.5 c 128,-1,41
 929 -293 929 -293 941 -289.5 c 128,-1,42
 953 -286 953 -286 963.5 -282.5 c 128,-1,43
 974 -279 974 -279 981 -276 c 1,44,-1
 1021 -364 l 1,45,46
 1003 -374 1003 -374 981.5 -385 c 128,-1,47
 960 -396 960 -396 935 -405 c 128,-1,48
 910 -414 910 -414 882 -419.5 c 128,-1,49
 854 -425 854 -425 823 -425 c 0,50,51
 796 -425 796 -425 769.5 -417 c 128,-1,52
 743 -409 743 -409 722.5 -392.5 c 128,-1,53
 702 -376 702 -376 689 -349.5 c 128,-1,54
 676 -323 676 -323 676 -287 c 0,55,56
 676 -244 676 -244 690.5 -207 c 128,-1,57
 705 -170 705 -170 730.5 -137.5 c 128,-1,58
 756 -105 756 -105 790 -76 c 128,-1,59
 824 -47 824 -47 863 -20 c 1,60,61
 843 -24 843 -24 824 -26.5 c 128,-1,62
 805 -29 805 -29 788 -29 c 0,63,64
 746 -29 746 -29 722.5 -17.5 c 128,-1,65
 699 -6 699 -6 687.5 10.5 c 128,-1,66
 676 27 676 27 673.5 46.5 c 128,-1,67
 671 66 671 66 671 81 c 2,68,-1
 671 128 l 1,69,-1
 669 128 l 1,70,71
 645 104 645 104 610.5 76 c 128,-1,72
 576 48 576 48 534 25 c 128,-1,73
 492 2 492 2 443 -13.5 c 128,-1,74
 394 -29 394 -29 341 -29 c 0,75,76
 300 -29 300 -29 256.5 -19.5 c 128,-1,77
 213 -10 213 -10 177.5 16 c 128,-1,78
 142 42 142 42 119.5 87 c 128,-1,79
 97 132 97 132 97 203 c 2,80,-1
 97 223 l 1,0,1
269 225 m 0,81,82
 269 189 269 189 279.5 166 c 128,-1,83
 290 143 290 143 308 129 c 128,-1,84
 326 115 326 115 348.5 109.5 c 128,-1,85
 371 104 371 104 395 104 c 0,86,87
 420 104 420 104 450 109.5 c 128,-1,88
 480 115 480 115 514 127 c 128,-1,89
 548 139 548 139 584.5 159 c 128,-1,90
 621 179 621 179 659 208 c 1,91,-1
 659 444 l 1,92,-1
 581 437 l 2,93,94
 421 423 421 423 345 372.5 c 128,-1,95
 269 322 269 322 269 225 c 0,81,82
EndSplineSet
EndChar

StartChar: ae
Encoding: 230 230 44
Width: 1527
Flags: W
LayerCount: 2
Fore
SplineSet
81 223 m 0,0,1
 85 311 85 311 123 365 c 128,-1,2
 161 419 161 419 225 451 c 128,-1,3
 289 483 289 483 375 498 c 128,-1,4
 461 513 461 513 560 523 c 1,5,-1
 645 527 l 1,6,-1
 645 634 l 2,7,8
 645 699 645 699 635 738.5 c 128,-1,9
 625 778 625 778 600 799 c 128,-1,10
 575 820 575 820 532.5 827 c 128,-1,11
 490 834 490 834 426 834 c 0,12,13
 383 834 383 834 339 826.5 c 128,-1,14
 295 819 295 819 258.5 809.5 c 128,-1,15
 222 800 222 800 197.5 791.5 c 128,-1,16
 173 783 173 783 170 782 c 1,17,-1
 128 889 l 1,18,19
 133 892 133 892 163 906.5 c 128,-1,20
 193 921 193 921 238 937 c 128,-1,21
 283 953 283 953 338 966 c 128,-1,22
 393 979 393 979 449 979 c 0,23,24
 573 979 573 979 648.5 950 c 128,-1,25
 724 921 724 921 756 850 c 1,26,27
 813 919 813 919 892 950 c 128,-1,28
 971 981 971 981 1073 981 c 0,29,30
 1182 981 1182 981 1252 956.5 c 128,-1,31
 1322 932 1322 932 1362.5 878.5 c 128,-1,32
 1403 825 1403 825 1418 740.5 c 128,-1,33
 1433 656 1433 656 1432 537 c 1,34,-1
 814 537 l 1,35,36
 814 429 814 429 821 348.5 c 128,-1,37
 828 268 828 268 859.5 215.5 c 128,-1,38
 891 163 891 163 954 137 c 128,-1,39
 1017 111 1017 111 1130 111 c 0,40,41
 1168 111 1168 111 1211 117 c 128,-1,42
 1254 123 1254 123 1292 131 c 128,-1,43
 1330 139 1330 139 1358 146 c 128,-1,44
 1386 153 1386 153 1394 156 c 1,45,-1
 1434 68 l 1,46,47
 1427 63 1427 63 1398.5 47.5 c 128,-1,48
 1370 32 1370 32 1323.5 15.5 c 128,-1,49
 1277 -1 1277 -1 1214 -14 c 128,-1,50
 1151 -27 1151 -27 1076 -27 c 0,51,52
 1015 -27 1015 -27 960 -20 c 128,-1,53
 905 -13 905 -13 857.5 5 c 128,-1,54
 810 23 810 23 772 54.5 c 128,-1,55
 734 86 734 86 706 135 c 1,56,57
 682 107 682 107 644.5 78.5 c 128,-1,58
 607 50 607 50 560 26.5 c 128,-1,59
 513 3 513 3 457.5 -12 c 128,-1,60
 402 -27 402 -27 343 -27 c 0,61,62
 301 -27 301 -27 253 -16.5 c 128,-1,63
 205 -6 205 -6 165.5 22 c 128,-1,64
 126 50 126 50 101.5 98.5 c 128,-1,65
 77 147 77 147 81 223 c 0,0,1
1260 640 m 1,66,67
 1258 725 1258 725 1238.5 773.5 c 128,-1,68
 1219 822 1219 822 1190.5 845 c 128,-1,69
 1162 868 1162 868 1129 873.5 c 128,-1,70
 1096 879 1096 879 1066 879 c 0,71,72
 1001 879 1001 879 956.5 864.5 c 128,-1,73
 912 850 912 850 883 819 c 128,-1,74
 854 788 854 788 839 739.5 c 128,-1,75
 824 691 824 691 818 624 c 1,76,-1
 1260 640 l 1,66,67
255 230 m 0,77,78
 255 196 255 196 265 172 c 128,-1,79
 275 148 275 148 292.5 133 c 128,-1,80
 310 118 310 118 332.5 111 c 128,-1,81
 355 104 355 104 379 104 c 0,82,83
 417 104 417 104 449 109.5 c 128,-1,84
 481 115 481 115 514.5 127 c 128,-1,85
 548 139 548 139 586 159.5 c 128,-1,86
 624 180 624 180 674 210 c 1,87,88
 645 296 645 296 645 440 c 1,89,-1
 564 433 l 1,90,91
 476 423 476 423 416.5 407.5 c 128,-1,92
 357 392 357 392 321 368 c 128,-1,93
 285 344 285 344 270 310 c 128,-1,94
 255 276 255 276 255 230 c 0,77,78
EndSplineSet
EndChar

StartChar: adieresis
Encoding: 228 228 45
Width: 1014
Flags: W
LayerCount: 2
Fore
SplineSet
670 1206 m 0,0,1
 640 1206 640 1206 620 1214 c 128,-1,2
 600 1222 600 1222 588 1236.5 c 128,-1,3
 576 1251 576 1251 571.5 1269.5 c 128,-1,4
 567 1288 567 1288 567 1309 c 256,5,6
 567 1330 567 1330 571.5 1349.5 c 128,-1,7
 576 1369 576 1369 588 1384 c 128,-1,8
 600 1399 600 1399 620 1407.5 c 128,-1,9
 640 1416 640 1416 670 1416 c 0,10,11
 733 1416 733 1416 755 1387.5 c 128,-1,12
 777 1359 777 1359 777 1309 c 0,13,14
 777 1288 777 1288 772 1269.5 c 128,-1,15
 767 1251 767 1251 755 1236.5 c 128,-1,16
 743 1222 743 1222 722 1214 c 128,-1,17
 701 1206 701 1206 670 1206 c 0,0,1
275 1206 m 0,18,19
 245 1206 245 1206 225 1214 c 128,-1,20
 205 1222 205 1222 193 1236.5 c 128,-1,21
 181 1251 181 1251 176 1269.5 c 128,-1,22
 171 1288 171 1288 171 1309 c 256,23,24
 171 1330 171 1330 176 1349.5 c 128,-1,25
 181 1369 181 1369 193 1384 c 128,-1,26
 205 1399 205 1399 225 1407.5 c 128,-1,27
 245 1416 245 1416 275 1416 c 0,28,29
 306 1416 306 1416 326.5 1408.5 c 128,-1,30
 347 1401 347 1401 359.5 1387 c 128,-1,31
 372 1373 372 1373 377 1353.5 c 128,-1,32
 382 1334 382 1334 382 1309 c 0,33,34
 382 1288 382 1288 377 1269.5 c 128,-1,35
 372 1251 372 1251 359.5 1236.5 c 128,-1,36
 347 1222 347 1222 326.5 1214 c 128,-1,37
 306 1206 306 1206 275 1206 c 0,18,19
78 223 m 1,38,39
 82 311 82 311 121 367.5 c 128,-1,40
 160 424 160 424 225 457.5 c 128,-1,41
 290 491 290 491 378.5 506 c 128,-1,42
 467 521 467 521 572 527 c 1,43,-1
 640 532 l 1,44,-1
 640 636 l 1,45,46
 639 703 639 703 629 743.5 c 128,-1,47
 619 784 619 784 595.5 806 c 128,-1,48
 572 828 572 828 532.5 834.5 c 128,-1,49
 493 841 493 841 435 841 c 0,50,51
 367 841 367 841 304 825.5 c 128,-1,52
 241 810 241 810 178 787 c 1,53,-1
 137 884 l 1,54,55
 150 891 150 891 180.5 906.5 c 128,-1,56
 211 922 211 922 255 938 c 128,-1,57
 299 954 299 954 355.5 966.5 c 128,-1,58
 412 979 412 979 478 979 c 0,59,60
 574 979 574 979 637.5 961 c 128,-1,61
 701 943 701 943 738 902 c 128,-1,62
 775 861 775 861 790 794 c 128,-1,63
 805 727 805 727 805 629 c 2,64,-1
 805 106 l 1,65,-1
 992 106 l 1,66,-1
 999 23 l 1,67,68
 987 18 987 18 960 9 c 128,-1,69
 933 0 933 0 900 -8.5 c 128,-1,70
 867 -17 867 -17 832 -23 c 128,-1,71
 797 -29 797 -29 769 -29 c 0,72,73
 727 -29 727 -29 703.5 -17.5 c 128,-1,74
 680 -6 680 -6 668.5 10.5 c 128,-1,75
 657 27 657 27 654.5 46.5 c 128,-1,76
 652 66 652 66 652 81 c 2,77,-1
 652 128 l 1,78,-1
 650 128 l 1,79,80
 626 104 626 104 591.5 76 c 128,-1,81
 557 48 557 48 515 25 c 128,-1,82
 473 2 473 2 424 -13.5 c 128,-1,83
 375 -29 375 -29 322 -29 c 0,84,85
 281 -29 281 -29 237.5 -19.5 c 128,-1,86
 194 -10 194 -10 158.5 16 c 128,-1,87
 123 42 123 42 100.5 87 c 128,-1,88
 78 132 78 132 78 203 c 2,89,-1
 78 223 l 1,38,39
250 225 m 0,90,91
 250 189 250 189 260.5 166 c 128,-1,92
 271 143 271 143 289 129 c 128,-1,93
 307 115 307 115 329.5 109.5 c 128,-1,94
 352 104 352 104 376 104 c 0,95,96
 401 104 401 104 431 109.5 c 128,-1,97
 461 115 461 115 495 127 c 128,-1,98
 529 139 529 139 565.5 159 c 128,-1,99
 602 179 602 179 640 208 c 1,100,-1
 640 444 l 1,101,-1
 562 437 l 2,102,103
 402 423 402 423 326 372.5 c 128,-1,104
 250 322 250 322 250 225 c 0,90,91
EndSplineSet
EndChar

StartChar: edieresis
Encoding: 235 235 46
Width: 983
Flags: W
LayerCount: 2
Fore
SplineSet
685 1206 m 0,0,1
 655 1206 655 1206 635 1214 c 128,-1,2
 615 1222 615 1222 603 1236.5 c 128,-1,3
 591 1251 591 1251 586.5 1269.5 c 128,-1,4
 582 1288 582 1288 582 1309 c 256,5,6
 582 1330 582 1330 586.5 1349.5 c 128,-1,7
 591 1369 591 1369 603 1384 c 128,-1,8
 615 1399 615 1399 635 1407.5 c 128,-1,9
 655 1416 655 1416 685 1416 c 0,10,11
 748 1416 748 1416 770 1387.5 c 128,-1,12
 792 1359 792 1359 792 1309 c 0,13,14
 792 1288 792 1288 787 1269.5 c 128,-1,15
 782 1251 782 1251 770 1236.5 c 128,-1,16
 758 1222 758 1222 737 1214 c 128,-1,17
 716 1206 716 1206 685 1206 c 0,0,1
290 1206 m 0,18,19
 260 1206 260 1206 240 1214 c 128,-1,20
 220 1222 220 1222 208 1236.5 c 128,-1,21
 196 1251 196 1251 191 1269.5 c 128,-1,22
 186 1288 186 1288 186 1309 c 256,23,24
 186 1330 186 1330 191 1349.5 c 128,-1,25
 196 1369 196 1369 208 1384 c 128,-1,26
 220 1399 220 1399 240 1407.5 c 128,-1,27
 260 1416 260 1416 290 1416 c 0,28,29
 321 1416 321 1416 341.5 1408.5 c 128,-1,30
 362 1401 362 1401 374.5 1387 c 128,-1,31
 387 1373 387 1373 392 1353.5 c 128,-1,32
 397 1334 397 1334 397 1309 c 0,33,34
 397 1288 397 1288 392 1269.5 c 128,-1,35
 387 1251 387 1251 374.5 1236.5 c 128,-1,36
 362 1222 362 1222 341.5 1214 c 128,-1,37
 321 1206 321 1206 290 1206 c 0,18,19
97 430 m 0,38,39
 96 576 96 576 126.5 680 c 128,-1,40
 157 784 157 784 213 850.5 c 128,-1,41
 269 917 269 917 349.5 948 c 128,-1,42
 430 979 430 979 530 979 c 0,43,44
 639 979 639 979 709 953.5 c 128,-1,45
 779 928 779 928 819 873.5 c 128,-1,46
 859 819 859 819 874.5 734 c 128,-1,47
 890 649 890 649 889 530 c 1,48,-1
 269 525 l 1,49,50
 269 454 269 454 271.5 395 c 128,-1,51
 274 336 274 336 284.5 288.5 c 128,-1,52
 295 241 295 241 315 205.5 c 128,-1,53
 335 170 335 170 370.5 146.5 c 128,-1,54
 406 123 406 123 458.5 111 c 128,-1,55
 511 99 511 99 586 99 c 0,56,57
 624 99 624 99 668.5 106 c 128,-1,58
 713 113 713 113 752.5 122 c 128,-1,59
 792 131 792 131 820.5 139.5 c 128,-1,60
 849 148 849 148 857 151 c 1,61,-1
 891 66 l 1,62,63
 884 61 884 61 855 45.5 c 128,-1,64
 826 30 826 30 779.5 13.5 c 128,-1,65
 733 -3 733 -3 670 -16 c 128,-1,66
 607 -29 607 -29 532 -29 c 0,67,68
 439 -29 439 -29 359.5 -12.5 c 128,-1,69
 280 4 280 4 222 53 c 128,-1,70
 164 102 164 102 131 192 c 128,-1,71
 98 282 98 282 97 430 c 0,38,39
717 638 m 1,72,73
 715 723 715 723 695.5 771 c 128,-1,74
 676 819 676 819 647.5 842.5 c 128,-1,75
 619 866 619 866 586 871.5 c 128,-1,76
 553 877 553 877 523 877 c 0,77,78
 458 877 458 877 413.5 862.5 c 128,-1,79
 369 848 369 848 340 817 c 128,-1,80
 311 786 311 786 296 737.5 c 128,-1,81
 281 689 281 689 275 622 c 1,82,-1
 717 638 l 1,72,73
EndSplineSet
EndChar

StartChar: P
Encoding: 80 80 47
Width: 1290
Flags: W
LayerCount: 2
Fore
SplineSet
102 97 m 1,0,1
 143 105 143 105 185.5 109 c 128,-1,2
 228 113 228 113 269 118 c 1,3,-1
 269 1333 l 1,4,5
 228 1338 228 1338 189 1344 c 128,-1,6
 150 1350 150 1350 108 1359 c 1,7,8
 106 1382 106 1382 109.5 1403.5 c 128,-1,9
 113 1425 113 1425 120 1448 c 1,10,-1
 717 1448 l 2,11,12
 838 1448 838 1448 930 1426.5 c 128,-1,13
 1022 1405 1022 1405 1083.5 1354 c 128,-1,14
 1145 1303 1145 1303 1176.5 1218 c 128,-1,15
 1208 1133 1208 1133 1208 1006 c 256,16,17
 1208 879 1208 879 1182.5 784 c 128,-1,18
 1157 689 1157 689 1098 626 c 128,-1,19
 1039 563 1039 563 940.5 532 c 128,-1,20
 842 501 842 501 697 501 c 0,21,22
 637 501 637 501 579.5 507.5 c 128,-1,23
 522 514 522 514 449 525 c 1,24,-1
 449 118 l 1,25,26
 469 115 469 115 500.5 112 c 128,-1,27
 532 109 532 109 566 106 c 128,-1,28
 600 103 600 103 631.5 99.5 c 128,-1,29
 663 96 663 96 683 92 c 1,30,31
 691 46 691 46 683 0 c 1,32,-1
 108 0 l 1,33,-1
 102 97 l 1,0,1
607 622 m 2,34,35
 737 614 737 614 817.5 638.5 c 128,-1,36
 898 663 898 663 943 715.5 c 128,-1,37
 988 768 988 768 1003.5 846.5 c 128,-1,38
 1019 925 1019 925 1019 1026 c 0,39,40
 1019 1104 1019 1104 1005.5 1162.5 c 128,-1,41
 992 1221 992 1221 946.5 1260 c 128,-1,42
 901 1299 901 1299 813.5 1317.5 c 128,-1,43
 726 1336 726 1336 579 1333 c 2,44,-1
 449 1331 l 1,45,-1
 449 631 l 1,46,-1
 607 622 l 2,34,35
EndSplineSet
EndChar

StartChar: R
Encoding: 82 82 48
Width: 1347
Flags: W
LayerCount: 2
Fore
SplineSet
102 88 m 1,0,1
 140 102 140 102 184 108.5 c 128,-1,2
 228 115 228 115 269 120 c 1,3,-1
 269 1333 l 1,4,5
 228 1338 228 1338 189 1344 c 128,-1,6
 150 1350 150 1350 108 1359 c 1,7,8
 106 1382 106 1382 109.5 1403.5 c 128,-1,9
 113 1425 113 1425 120 1448 c 1,10,-1
 681 1448 l 2,11,12
 811 1448 811 1448 903 1429 c 128,-1,13
 995 1410 995 1410 1053.5 1364 c 128,-1,14
 1112 1318 1112 1318 1139 1240.5 c 128,-1,15
 1166 1163 1166 1163 1166 1047 c 0,16,17
 1166 975 1166 975 1151 900.5 c 128,-1,18
 1136 826 1136 826 1099.5 762 c 128,-1,19
 1063 698 1063 698 1002 649.5 c 128,-1,20
 941 601 941 601 850 582 c 1,21,-1
 1153 118 l 1,22,-1
 1304 92 l 2,23,24
 1305 91 1305 91 1305 81 c 128,-1,25
 1305 71 1305 71 1303.5 57 c 128,-1,26
 1302 43 1302 43 1299 27.5 c 128,-1,27
 1296 12 1296 12 1292 0 c 1,28,-1
 1004 0 l 1,29,-1
 681 557 l 1,30,-1
 643 557 l 2,31,32
 613 557 613 557 592.5 557 c 128,-1,33
 572 557 572 557 552 558 c 128,-1,34
 532 559 532 559 508.5 560 c 128,-1,35
 485 561 485 561 449 564 c 1,36,-1
 449 120 l 1,37,-1
 609 88 l 1,38,39
 611 83 611 83 611.5 72 c 128,-1,40
 612 61 612 61 612 54 c 0,41,42
 612 40 612 40 608 23.5 c 128,-1,43
 604 7 604 7 600 0 c 1,44,-1
 111 0 l 1,45,-1
 102 88 l 1,0,1
607 669 m 2,46,47
 712 669 712 669 783 692.5 c 128,-1,48
 854 716 854 716 897.5 763.5 c 128,-1,49
 941 811 941 811 960 883.5 c 128,-1,50
 979 956 979 956 979 1054 c 0,51,52
 979 1120 979 1120 964 1173 c 128,-1,53
 949 1226 949 1226 912 1263 c 128,-1,54
 875 1300 875 1300 811.5 1319 c 128,-1,55
 748 1338 748 1338 652 1335 c 1,56,-1
 449 1331 l 1,57,-1
 449 669 l 1,58,-1
 607 669 l 2,46,47
EndSplineSet
EndChar

StartChar: B
Encoding: 66 66 49
Width: 1328
Flags: W
LayerCount: 2
Fore
SplineSet
102 95 m 1,0,1
 140 109 140 109 184 115.5 c 128,-1,2
 228 122 228 122 269 128 c 1,3,-1
 269 1331 l 1,4,-1
 108 1359 l 1,5,6
 106 1364 106 1364 106 1375.5 c 128,-1,7
 106 1387 106 1387 106 1394 c 0,8,9
 106 1409 106 1409 110 1425 c 128,-1,10
 114 1441 114 1441 118 1448 c 1,11,-1
 690 1448 l 2,12,13
 811 1448 811 1448 896.5 1427 c 128,-1,14
 982 1406 982 1406 1035 1363.5 c 128,-1,15
 1088 1321 1088 1321 1112.5 1257 c 128,-1,16
 1137 1193 1137 1193 1137 1106 c 0,17,18
 1137 1051 1137 1051 1123 1000.5 c 128,-1,19
 1109 950 1109 950 1082 907 c 128,-1,20
 1055 864 1055 864 1017 831 c 128,-1,21
 979 798 979 798 931 778 c 1,22,23
 1079 756 1079 756 1156.5 668 c 128,-1,24
 1234 580 1234 580 1234 424 c 0,25,26
 1234 313 1234 313 1201 233 c 128,-1,27
 1168 153 1168 153 1099.5 101 c 128,-1,28
 1031 49 1031 49 925 24.5 c 128,-1,29
 819 0 819 0 674 0 c 2,30,-1
 111 0 l 1,31,-1
 102 95 l 1,0,1
622 808 m 1,32,-1
 659 808 l 1,33,34
 746 811 746 811 803 836 c 128,-1,35
 860 861 860 861 893.5 900.5 c 128,-1,36
 927 940 927 940 940.5 990.5 c 128,-1,37
 954 1041 954 1041 954 1096 c 0,38,39
 954 1157 954 1157 938.5 1202 c 128,-1,40
 923 1247 923 1247 882.5 1276 c 128,-1,41
 842 1305 842 1305 772.5 1319 c 128,-1,42
 703 1333 703 1333 595 1333 c 1,43,-1
 449 1331 l 1,44,-1
 449 803 l 1,45,-1
 622 808 l 1,32,-1
496 118 m 1,46,47
 548 115 548 115 581.5 114 c 128,-1,48
 615 113 615 113 637 112 c 128,-1,49
 659 111 659 111 673 111 c 128,-1,50
 687 111 687 111 699 111 c 0,51,52
 796 112 796 112 862 128.5 c 128,-1,53
 928 145 928 145 968.5 180.5 c 128,-1,54
 1009 216 1009 216 1026.5 272 c 128,-1,55
 1044 328 1044 328 1044 409 c 2,56,-1
 1044 424 l 2,57,58
 1044 509 1044 509 1016 563 c 128,-1,59
 988 617 988 617 933.5 648 c 128,-1,60
 879 679 879 679 799.5 690.5 c 128,-1,61
 720 702 720 702 617 702 c 1,62,-1
 449 697 l 1,63,-1
 449 122 l 1,64,-1
 496 118 l 1,46,47
EndSplineSet
EndChar

StartChar: period
Encoding: 46 46 50
Width: 485
Flags: W
LayerCount: 2
Fore
SplineSet
118 90 m 0,0,1
 118 115 118 115 124 138 c 128,-1,2
 130 161 130 161 144.5 178 c 128,-1,3
 159 195 159 195 183 205 c 128,-1,4
 207 215 207 215 243 215 c 256,5,6
 279 215 279 215 302.5 205 c 128,-1,7
 326 195 326 195 340 178 c 128,-1,8
 354 161 354 161 360 138 c 128,-1,9
 366 115 366 115 366 90 c 0,10,11
 366 63 366 63 360 40 c 128,-1,12
 354 17 354 17 340 0 c 128,-1,13
 326 -17 326 -17 302.5 -26.5 c 128,-1,14
 279 -36 279 -36 243 -36 c 256,15,16
 207 -36 207 -36 183 -26.5 c 128,-1,17
 159 -17 159 -17 144.5 0 c 128,-1,18
 130 17 130 17 124 40 c 128,-1,19
 118 63 118 63 118 90 c 0,0,1
EndSplineSet
EndChar

StartChar: zdotaccent
Encoding: 380 380 51
Width: 943
Flags: W
LayerCount: 2
Fore
SplineSet
472 1206 m 256,0,1
 448 1206 448 1206 426.5 1211.5 c 128,-1,2
 405 1217 405 1217 389 1230.5 c 128,-1,3
 373 1244 373 1244 364 1266 c 128,-1,4
 355 1288 355 1288 355 1321 c 256,5,6
 355 1354 355 1354 364 1376 c 128,-1,7
 373 1398 373 1398 389 1411.5 c 128,-1,8
 405 1425 405 1425 426.5 1430.5 c 128,-1,9
 448 1436 448 1436 472 1436 c 256,10,11
 496 1436 496 1436 516.5 1430.5 c 128,-1,12
 537 1425 537 1425 553 1411.5 c 128,-1,13
 569 1398 569 1398 578 1376 c 128,-1,14
 587 1354 587 1354 587 1321 c 256,15,16
 587 1288 587 1288 578 1266 c 128,-1,17
 569 1244 569 1244 553 1230.5 c 128,-1,18
 537 1217 537 1217 516.5 1211.5 c 128,-1,19
 496 1206 496 1206 472 1206 c 256,0,1
115 0 m 1,20,21
 109 11 109 11 103.5 28 c 128,-1,22
 98 45 98 45 94 64 c 128,-1,23
 90 83 90 83 87.5 101 c 128,-1,24
 85 119 85 119 85 133 c 1,25,-1
 650 844 l 1,26,-1
 253 844 l 1,27,-1
 219 659 l 1,28,29
 190 657 190 657 159.5 658.5 c 128,-1,30
 129 660 129 660 104 664 c 1,31,32
 103 684 103 684 103 717.5 c 128,-1,33
 103 751 103 751 103 789.5 c 128,-1,34
 103 828 103 828 104.5 867 c 128,-1,35
 106 906 106 906 108 936 c 0,36,37
 108 940 108 940 109.5 943 c 128,-1,38
 111 946 111 946 111 950 c 1,39,-1
 814 950 l 1,40,41
 827 930 827 930 840 898 c 128,-1,42
 853 866 853 866 853 839 c 1,43,-1
 284 108 l 1,44,-1
 726 108 l 1,45,-1
 758 291 l 1,46,47
 789 293 789 293 819 291.5 c 128,-1,48
 849 290 849 290 875 286 c 1,49,50
 876 265 876 265 876 228.5 c 128,-1,51
 876 192 876 192 875 150.5 c 128,-1,52
 874 109 874 109 872.5 68.5 c 128,-1,53
 871 28 871 28 868 0 c 1,54,-1
 115 0 l 1,20,21
EndSplineSet
EndChar

StartChar: nacute
Encoding: 324 324 52
Width: 1272
Flags: W
LayerCount: 2
Fore
SplineSet
503 1106 m 1,0,1
 482 1112 482 1112 462 1125 c 128,-1,2
 442 1138 442 1138 426 1161 c 1,3,-1
 640 1504 l 1,4,-1
 818 1508 l 1,5,-1
 839 1466 l 1,6,-1
 503 1106 l 1,0,1
99 85 m 1,7,8
 142 93 142 93 181.5 98 c 128,-1,9
 221 103 221 103 253 106 c 1,10,-1
 253 863 l 1,11,-1
 92 863 l 1,12,-1
 83 957 l 1,13,14
 131 964 131 964 167.5 968.5 c 128,-1,15
 204 973 204 973 232.5 975 c 128,-1,16
 261 977 261 977 283.5 978 c 128,-1,17
 306 979 306 979 327 979 c 0,18,19
 353 979 353 979 370 972.5 c 128,-1,20
 387 966 387 966 397.5 951 c 128,-1,21
 408 936 408 936 413.5 913 c 128,-1,22
 419 890 419 890 421 857 c 1,23,24
 506 920 506 920 598.5 949.5 c 128,-1,25
 691 979 691 979 785 979 c 0,26,27
 864 979 864 979 917 965 c 128,-1,28
 970 951 970 951 1002 915 c 128,-1,29
 1034 879 1034 879 1048 816.5 c 128,-1,30
 1062 754 1062 754 1062 657 c 2,31,-1
 1062 106 l 1,32,33
 1101 101 1101 101 1135 97 c 128,-1,34
 1169 93 1169 93 1211 85 c 1,35,36
 1217 43 1217 43 1211 0 c 1,37,-1
 769 0 l 1,38,-1
 760 85 l 1,39,40
 803 92 803 92 833.5 97.5 c 128,-1,41
 864 103 864 103 896 106 c 1,42,-1
 896 640 l 2,43,44
 896 697 896 697 887.5 736 c 128,-1,45
 879 775 879 775 861 799 c 128,-1,46
 843 823 843 823 814 833.5 c 128,-1,47
 785 844 785 844 744 844 c 0,48,49
 653 844 653 844 572.5 829 c 128,-1,50
 492 814 492 814 421 782 c 1,51,-1
 421 106 l 1,52,53
 460 101 460 101 496.5 97 c 128,-1,54
 533 93 533 93 575 85 c 1,55,56
 581 43 581 43 575 0 c 1,57,-1
 106 0 l 1,58,-1
 99 85 l 1,7,8
EndSplineSet
EndChar

StartChar: cacute
Encoding: 263 263 53
Width: 962
Flags: W
LayerCount: 2
Fore
SplineSet
464 1106 m 1,0,1
 443 1112 443 1112 423 1125 c 128,-1,2
 403 1138 403 1138 387 1161 c 1,3,-1
 601 1504 l 1,4,-1
 779 1508 l 1,5,-1
 800 1466 l 1,6,-1
 464 1106 l 1,0,1
102 465 m 0,7,8
 102 583 102 583 129.5 678 c 128,-1,9
 157 773 157 773 211.5 840 c 128,-1,10
 266 907 266 907 348 943 c 128,-1,11
 430 979 430 979 539 979 c 0,12,13
 572 979 572 979 611.5 976.5 c 128,-1,14
 651 974 651 974 692.5 968 c 128,-1,15
 734 962 734 962 776 951.5 c 128,-1,16
 818 941 818 941 857 924 c 1,17,18
 860 895 860 895 856.5 857 c 128,-1,19
 853 819 853 819 846.5 780 c 128,-1,20
 840 741 840 741 833 706.5 c 128,-1,21
 826 672 826 672 821 652 c 1,22,23
 792 652 792 652 772 652.5 c 128,-1,24
 752 653 752 653 724 657 c 1,25,-1
 706 832 l 1,26,27
 678 845 678 845 647 853 c 128,-1,28
 616 861 616 861 588 864.5 c 128,-1,29
 560 868 560 868 538 869 c 128,-1,30
 516 870 516 870 506 870 c 0,31,32
 452 870 452 870 409.5 850.5 c 128,-1,33
 367 831 367 831 338 785.5 c 128,-1,34
 309 740 309 740 294 665.5 c 128,-1,35
 279 591 279 591 279 482 c 0,36,37
 279 375 279 375 294.5 303 c 128,-1,38
 310 231 310 231 345 187.5 c 128,-1,39
 380 144 380 144 438 125 c 128,-1,40
 496 106 496 106 582 106 c 0,41,42
 627 106 627 106 671.5 116.5 c 128,-1,43
 716 127 716 127 752 139.5 c 128,-1,44
 788 152 788 152 811 163 c 128,-1,45
 834 174 834 174 837 175 c 1,46,-1
 879 85 l 1,47,48
 871 79 871 79 842 60.5 c 128,-1,49
 813 42 813 42 767.5 22 c 128,-1,50
 722 2 722 2 661.5 -13.5 c 128,-1,51
 601 -29 601 -29 530 -29 c 0,52,53
 475 -29 475 -29 421.5 -22 c 128,-1,54
 368 -15 368 -15 320.5 4 c 128,-1,55
 273 23 273 23 233 57 c 128,-1,56
 193 91 193 91 164 146 c 128,-1,57
 135 201 135 201 118.5 279.5 c 128,-1,58
 102 358 102 358 102 465 c 0,7,8
EndSplineSet
EndChar

StartChar: oacute
Encoding: 243 243 54
Width: 1116
Flags: W
LayerCount: 2
Fore
SplineSet
467 1106 m 1,0,1
 446 1112 446 1112 426 1125 c 128,-1,2
 406 1138 406 1138 390 1161 c 1,3,-1
 604 1504 l 1,4,-1
 782 1508 l 1,5,-1
 803 1466 l 1,6,-1
 467 1106 l 1,0,1
95 475 m 256,7,8
 95 580 95 580 124.5 671.5 c 128,-1,9
 154 763 154 763 215.5 831.5 c 128,-1,10
 277 900 277 900 370.5 939.5 c 128,-1,11
 464 979 464 979 593 979 c 256,12,13
 722 979 722 979 804 939.5 c 128,-1,14
 886 900 886 900 933.5 831.5 c 128,-1,15
 981 763 981 763 999 671.5 c 128,-1,16
 1017 580 1017 580 1017 475 c 256,17,18
 1017 370 1017 370 987 278.5 c 128,-1,19
 957 187 957 187 895.5 118.5 c 128,-1,20
 834 50 834 50 740 10.5 c 128,-1,21
 646 -29 646 -29 518 -29 c 0,22,23
 389 -29 389 -29 307 10.5 c 128,-1,24
 225 50 225 50 178 118.5 c 128,-1,25
 131 187 131 187 113 278.5 c 128,-1,26
 95 370 95 370 95 475 c 256,7,8
279 475 m 0,27,28
 279 353 279 353 298 276 c 128,-1,29
 317 199 317 199 352.5 155 c 128,-1,30
 388 111 388 111 439 94.5 c 128,-1,31
 490 78 490 78 555 78 c 0,32,33
 613 78 613 78 663.5 94.5 c 128,-1,34
 714 111 714 111 751.5 155 c 128,-1,35
 789 199 789 199 810.5 276 c 128,-1,36
 832 353 832 353 832 475 c 0,37,38
 832 596 832 596 813 673.5 c 128,-1,39
 794 751 794 751 758.5 795 c 128,-1,40
 723 839 723 839 671.5 855.5 c 128,-1,41
 620 872 620 872 555 872 c 0,42,43
 498 872 498 872 447.5 855.5 c 128,-1,44
 397 839 397 839 359.5 795 c 128,-1,45
 322 751 322 751 300.5 673.5 c 128,-1,46
 279 596 279 596 279 475 c 0,27,28
EndSplineSet
EndChar

StartChar: zacute
Encoding: 378 378 55
Width: 943
Flags: W
LayerCount: 2
Fore
SplineSet
451 1106 m 1,0,1
 430 1112 430 1112 410 1125 c 128,-1,2
 390 1138 390 1138 374 1161 c 1,3,-1
 588 1504 l 1,4,-1
 766 1508 l 1,5,-1
 787 1466 l 1,6,-1
 451 1106 l 1,0,1
124 0 m 1,7,8
 118 11 118 11 112.5 27 c 128,-1,9
 107 43 107 43 103 61 c 128,-1,10
 99 79 99 79 96.5 96.5 c 128,-1,11
 94 114 94 114 94 128 c 1,12,-1
 654 844 l 1,13,-1
 259 844 l 1,14,-1
 225 659 l 1,15,-1
 124 664 l 1,16,17
 116 733 116 733 112.5 806.5 c 128,-1,18
 109 880 109 880 120 950 c 1,19,-1
 805 950 l 1,20,21
 812 940 812 940 819.5 926.5 c 128,-1,22
 827 913 827 913 833 898 c 128,-1,23
 839 883 839 883 842.5 867.5 c 128,-1,24
 846 852 846 852 846 839 c 1,25,-1
 277 108 l 1,26,-1
 708 108 l 1,27,-1
 746 291 l 1,28,-1
 850 286 l 1,29,30
 853 265 853 265 854.5 228.5 c 128,-1,31
 856 192 856 192 856 150.5 c 128,-1,32
 856 109 856 109 854.5 68.5 c 128,-1,33
 853 28 853 28 850 0 c 1,34,-1
 124 0 l 1,7,8
EndSplineSet
EndChar

StartChar: sacute
Encoding: 347 347 56
Width: 934
Flags: W
LayerCount: 2
Fore
SplineSet
401 1106 m 1,0,1
 380 1112 380 1112 360 1125 c 128,-1,2
 340 1138 340 1138 324 1161 c 1,3,-1
 538 1504 l 1,4,-1
 716 1508 l 1,5,-1
 737 1466 l 1,6,-1
 401 1106 l 1,0,1
102 61 m 1,7,8
 106 94 106 94 110.5 122.5 c 128,-1,9
 115 151 115 151 119.5 180.5 c 128,-1,10
 124 210 124 210 129 241.5 c 128,-1,11
 134 273 134 273 140 312 c 1,12,-1
 239 309 l 1,13,14
 253 274 253 274 255.5 237 c 128,-1,15
 258 200 258 200 258 153 c 1,16,17
 312 121 312 121 376 99.5 c 128,-1,18
 440 78 440 78 511 78 c 0,19,20
 538 78 538 78 563.5 82.5 c 128,-1,21
 589 87 589 87 610.5 99 c 128,-1,22
 632 111 632 111 647 132 c 128,-1,23
 662 153 662 153 667 185 c 0,24,25
 669 195 669 195 669 205 c 128,-1,26
 669 215 669 215 669 225 c 0,27,28
 669 269 669 269 651.5 291.5 c 128,-1,29
 634 314 634 314 608 329 c 0,30,31
 581 344 581 344 539.5 363 c 128,-1,32
 498 382 498 382 453 402 c 128,-1,33
 408 422 408 422 364.5 440 c 128,-1,34
 321 458 321 458 291 471 c 1,35,36
 211 502 211 502 164 559.5 c 128,-1,37
 117 617 117 617 117 695 c 0,38,39
 117 836 117 836 209 907.5 c 128,-1,40
 301 979 301 979 487 979 c 0,41,42
 508 979 508 979 542 977 c 128,-1,43
 576 975 576 975 617 970 c 128,-1,44
 658 965 658 965 705 955 c 128,-1,45
 752 945 752 945 800 929 c 1,46,47
 798 899 798 899 795.5 866.5 c 128,-1,48
 793 834 793 834 788 802.5 c 128,-1,49
 783 771 783 771 774 742 c 128,-1,50
 765 713 765 713 750 688 c 1,51,-1
 660 692 l 1,52,-1
 653 830 l 1,53,54
 644 837 644 837 620 845 c 128,-1,55
 596 853 596 853 564 860 c 128,-1,56
 532 867 532 867 496 872 c 128,-1,57
 460 877 460 877 426 877 c 0,58,59
 397 877 397 877 370.5 872 c 128,-1,60
 344 867 344 867 322 853.5 c 128,-1,61
 300 840 300 840 285.5 814.5 c 128,-1,62
 271 789 271 789 268 749 c 1,63,-1
 268 740 l 2,64,65
 268 698 268 698 295 667.5 c 128,-1,66
 322 637 322 637 383 612 c 0,67,68
 406 602 406 602 440 589.5 c 128,-1,69
 474 577 474 577 517 560 c 128,-1,70
 560 543 560 543 609.5 521 c 128,-1,71
 659 499 659 499 712 471 c 0,72,73
 778 436 778 436 809.5 382 c 128,-1,74
 841 328 841 328 841 253 c 0,75,76
 841 184 841 184 820.5 136.5 c 128,-1,77
 800 89 800 89 767 57.5 c 128,-1,78
 734 26 734 26 693 8.5 c 128,-1,79
 652 -9 652 -9 611.5 -17.5 c 128,-1,80
 571 -26 571 -26 534 -27.5 c 128,-1,81
 497 -29 497 -29 473 -29 c 0,82,83
 425 -29 425 -29 369 -20.5 c 128,-1,84
 313 -12 313 -12 261 1.5 c 128,-1,85
 209 15 209 15 166 31 c 128,-1,86
 123 47 123 47 102 61 c 1,7,8
EndSplineSet
EndChar

StartChar: oe
Encoding: 339 339 57
Width: 1716
Flags: W
LayerCount: 2
Fore
SplineSet
95 475 m 256,0,1
 95 580 95 580 124.5 671.5 c 128,-1,2
 154 763 154 763 215.5 831.5 c 128,-1,3
 277 900 277 900 370.5 939.5 c 128,-1,4
 464 979 464 979 593 979 c 0,5,6
 660 979 660 979 713 967.5 c 128,-1,7
 766 956 766 956 806.5 935 c 128,-1,8
 847 914 847 914 876.5 884 c 128,-1,9
 906 854 906 854 926 817 c 1,10,11
 977 905 977 905 1061 942 c 128,-1,12
 1145 979 1145 979 1260 979 c 0,13,14
 1369 979 1369 979 1439 953.5 c 128,-1,15
 1509 928 1509 928 1549 873.5 c 128,-1,16
 1589 819 1589 819 1604.5 734 c 128,-1,17
 1620 649 1620 649 1619 530 c 1,18,-1
 999 525 l 1,19,20
 999 418 999 418 1006.5 338.5 c 128,-1,21
 1014 259 1014 259 1045.5 205.5 c 128,-1,22
 1077 152 1077 152 1140.5 125.5 c 128,-1,23
 1204 99 1204 99 1317 99 c 0,24,25
 1355 99 1355 99 1399 106 c 128,-1,26
 1443 113 1443 113 1482.5 122 c 128,-1,27
 1522 131 1522 131 1551 139.5 c 128,-1,28
 1580 148 1580 148 1588 151 c 1,29,-1
 1621 66 l 1,30,31
 1614 61 1614 61 1585.5 45.5 c 128,-1,32
 1557 30 1557 30 1510 13.5 c 128,-1,33
 1463 -3 1463 -3 1400 -16 c 128,-1,34
 1337 -29 1337 -29 1262 -29 c 0,35,36
 1199 -29 1199 -29 1143.5 -22 c 128,-1,37
 1088 -15 1088 -15 1042 4 c 128,-1,38
 996 23 996 23 960 56.5 c 128,-1,39
 924 90 924 90 899 143 c 1,40,41
 845 63 845 63 751.5 17 c 128,-1,42
 658 -29 658 -29 518 -29 c 0,43,44
 389 -29 389 -29 307 10.5 c 128,-1,45
 225 50 225 50 178 118.5 c 128,-1,46
 131 187 131 187 113 278.5 c 128,-1,47
 95 370 95 370 95 475 c 256,0,1
1446 638 m 1,48,49
 1444 723 1444 723 1425 771 c 128,-1,50
 1406 819 1406 819 1377.5 842.5 c 128,-1,51
 1349 866 1349 866 1315.5 871.5 c 128,-1,52
 1282 877 1282 877 1252 877 c 0,53,54
 1187 877 1187 877 1143 862.5 c 128,-1,55
 1099 848 1099 848 1070 817 c 128,-1,56
 1041 786 1041 786 1025.5 737.5 c 128,-1,57
 1010 689 1010 689 1004 622 c 1,58,-1
 1446 638 l 1,48,49
279 475 m 0,59,60
 279 353 279 353 298 276 c 128,-1,61
 317 199 317 199 352.5 155 c 128,-1,62
 388 111 388 111 439 94.5 c 128,-1,63
 490 78 490 78 555 78 c 0,64,65
 613 78 613 78 663.5 94.5 c 128,-1,66
 714 111 714 111 751.5 155 c 128,-1,67
 789 199 789 199 810.5 276 c 128,-1,68
 832 353 832 353 832 475 c 0,69,70
 832 596 832 596 813 673.5 c 128,-1,71
 794 751 794 751 758.5 795 c 128,-1,72
 723 839 723 839 671.5 855.5 c 128,-1,73
 620 872 620 872 555 872 c 0,74,75
 498 872 498 872 447.5 855.5 c 128,-1,76
 397 839 397 839 359.5 795 c 128,-1,77
 322 751 322 751 300.5 673.5 c 128,-1,78
 279 596 279 596 279 475 c 0,59,60
EndSplineSet
EndChar

StartChar: aacute
Encoding: 225 225 58
Width: 1014
Flags: W
LayerCount: 2
Fore
SplineSet
413 1106 m 1,0,1
 392 1112 392 1112 372 1125 c 128,-1,2
 352 1138 352 1138 336 1161 c 1,3,-1
 550 1504 l 1,4,-1
 728 1508 l 1,5,-1
 749 1466 l 1,6,-1
 413 1106 l 1,0,1
78 223 m 1,7,8
 82 311 82 311 121 367.5 c 128,-1,9
 160 424 160 424 225 457.5 c 128,-1,10
 290 491 290 491 378.5 506 c 128,-1,11
 467 521 467 521 572 527 c 1,12,-1
 640 532 l 1,13,-1
 640 636 l 1,14,15
 639 703 639 703 629 743.5 c 128,-1,16
 619 784 619 784 595.5 806 c 128,-1,17
 572 828 572 828 532.5 834.5 c 128,-1,18
 493 841 493 841 435 841 c 0,19,20
 367 841 367 841 304 825.5 c 128,-1,21
 241 810 241 810 178 787 c 1,22,-1
 137 884 l 1,23,24
 150 891 150 891 180.5 906.5 c 128,-1,25
 211 922 211 922 255 938 c 128,-1,26
 299 954 299 954 355.5 966.5 c 128,-1,27
 412 979 412 979 478 979 c 0,28,29
 574 979 574 979 637.5 961 c 128,-1,30
 701 943 701 943 738 902 c 128,-1,31
 775 861 775 861 790 794 c 128,-1,32
 805 727 805 727 805 629 c 2,33,-1
 805 106 l 1,34,-1
 992 106 l 1,35,-1
 999 23 l 1,36,37
 987 18 987 18 960 9 c 128,-1,38
 933 0 933 0 900 -8.5 c 128,-1,39
 867 -17 867 -17 832 -23 c 128,-1,40
 797 -29 797 -29 769 -29 c 0,41,42
 727 -29 727 -29 703.5 -17.5 c 128,-1,43
 680 -6 680 -6 668.5 10.5 c 128,-1,44
 657 27 657 27 654.5 46.5 c 128,-1,45
 652 66 652 66 652 81 c 2,46,-1
 652 128 l 1,47,-1
 650 128 l 1,48,49
 626 104 626 104 591.5 76 c 128,-1,50
 557 48 557 48 515 25 c 128,-1,51
 473 2 473 2 424 -13.5 c 128,-1,52
 375 -29 375 -29 322 -29 c 0,53,54
 281 -29 281 -29 237.5 -19.5 c 128,-1,55
 194 -10 194 -10 158.5 16 c 128,-1,56
 123 42 123 42 100.5 87 c 128,-1,57
 78 132 78 132 78 203 c 2,58,-1
 78 223 l 1,7,8
250 225 m 0,59,60
 250 189 250 189 260.5 166 c 128,-1,61
 271 143 271 143 289 129 c 128,-1,62
 307 115 307 115 329.5 109.5 c 128,-1,63
 352 104 352 104 376 104 c 0,64,65
 401 104 401 104 431 109.5 c 128,-1,66
 461 115 461 115 495 127 c 128,-1,67
 529 139 529 139 565.5 159 c 128,-1,68
 602 179 602 179 640 208 c 1,69,-1
 640 444 l 1,70,-1
 562 437 l 2,71,72
 402 423 402 423 326 372.5 c 128,-1,73
 250 322 250 322 250 225 c 0,59,60
EndSplineSet
EndChar

StartChar: agrave
Encoding: 224 224 59
Width: 1014
Flags: W
LayerCount: 2
Fore
SplineSet
223 1463 m 1,0,-1
 244 1506 l 1,1,-1
 395 1524 l 1,2,-1
 634 1161 l 1,3,4
 617 1138 617 1138 597 1125 c 128,-1,5
 577 1112 577 1112 555 1106 c 1,6,-1
 223 1463 l 1,0,-1
78 223 m 1,7,8
 82 311 82 311 121 367.5 c 128,-1,9
 160 424 160 424 225 457.5 c 128,-1,10
 290 491 290 491 378.5 506 c 128,-1,11
 467 521 467 521 572 527 c 1,12,-1
 640 532 l 1,13,-1
 640 636 l 1,14,15
 639 703 639 703 629 743.5 c 128,-1,16
 619 784 619 784 595.5 806 c 128,-1,17
 572 828 572 828 532.5 834.5 c 128,-1,18
 493 841 493 841 435 841 c 0,19,20
 367 841 367 841 304 825.5 c 128,-1,21
 241 810 241 810 178 787 c 1,22,-1
 137 884 l 1,23,24
 150 891 150 891 180.5 906.5 c 128,-1,25
 211 922 211 922 255 938 c 128,-1,26
 299 954 299 954 355.5 966.5 c 128,-1,27
 412 979 412 979 478 979 c 0,28,29
 574 979 574 979 637.5 961 c 128,-1,30
 701 943 701 943 738 902 c 128,-1,31
 775 861 775 861 790 794 c 128,-1,32
 805 727 805 727 805 629 c 2,33,-1
 805 106 l 1,34,-1
 992 106 l 1,35,-1
 999 23 l 1,36,37
 987 18 987 18 960 9 c 128,-1,38
 933 0 933 0 900 -8.5 c 128,-1,39
 867 -17 867 -17 832 -23 c 128,-1,40
 797 -29 797 -29 769 -29 c 0,41,42
 727 -29 727 -29 703.5 -17.5 c 128,-1,43
 680 -6 680 -6 668.5 10.5 c 128,-1,44
 657 27 657 27 654.5 46.5 c 128,-1,45
 652 66 652 66 652 81 c 2,46,-1
 652 128 l 1,47,-1
 650 128 l 1,48,49
 626 104 626 104 591.5 76 c 128,-1,50
 557 48 557 48 515 25 c 128,-1,51
 473 2 473 2 424 -13.5 c 128,-1,52
 375 -29 375 -29 322 -29 c 0,53,54
 281 -29 281 -29 237.5 -19.5 c 128,-1,55
 194 -10 194 -10 158.5 16 c 128,-1,56
 123 42 123 42 100.5 87 c 128,-1,57
 78 132 78 132 78 203 c 2,58,-1
 78 223 l 1,7,8
250 225 m 0,59,60
 250 189 250 189 260.5 166 c 128,-1,61
 271 143 271 143 289 129 c 128,-1,62
 307 115 307 115 329.5 109.5 c 128,-1,63
 352 104 352 104 376 104 c 0,64,65
 401 104 401 104 431 109.5 c 128,-1,66
 461 115 461 115 495 127 c 128,-1,67
 529 139 529 139 565.5 159 c 128,-1,68
 602 179 602 179 640 208 c 1,69,-1
 640 444 l 1,70,-1
 562 437 l 2,71,72
 402 423 402 423 326 372.5 c 128,-1,73
 250 322 250 322 250 225 c 0,59,60
EndSplineSet
EndChar

StartChar: x
Encoding: 120 120 60
Width: 1031
Flags: W
LayerCount: 2
Fore
SplineSet
38 81 m 1,0,-1
 137 106 l 1,1,-1
 424 471 l 1,2,-1
 122 850 l 1,3,-1
 38 870 l 1,4,5
 35 909 35 909 50 947 c 1,6,-1
 433 947 l 1,7,-1
 437 868 l 1,8,-1
 327 844 l 1,9,-1
 527 572 l 1,10,-1
 724 846 l 1,11,-1
 589 870 l 1,12,13
 587 891 587 891 589 912 c 128,-1,14
 591 933 591 933 598 950 c 1,15,-1
 957 950 l 1,16,-1
 965 872 l 1,17,-1
 868 846 l 1,18,-1
 595 501 l 1,19,-1
 927 95 l 1,20,-1
 1017 81 l 1,21,22
 1020 61 1020 61 1017 38.5 c 128,-1,23
 1014 16 1014 16 1006 0 c 1,24,-1
 634 0 l 1,25,-1
 627 78 l 1,26,-1
 726 90 l 1,27,-1
 492 392 l 1,28,-1
 277 104 l 1,29,-1
 421 81 l 1,30,31
 421 61 421 61 418.5 39 c 128,-1,32
 416 17 416 17 411 0 c 1,33,-1
 50 0 l 1,34,-1
 38 81 l 1,0,-1
EndSplineSet
EndChar

StartChar: A
Encoding: 65 65 61
Width: 1407
Flags: W
LayerCount: 2
Fore
SplineSet
36 90 m 1,0,1
 43 93 43 93 55.5 97 c 128,-1,2
 68 101 68 101 82.5 104.5 c 128,-1,3
 97 108 97 108 112 111.5 c 128,-1,4
 127 115 127 115 139 118 c 1,5,-1
 593 1448 l 1,6,7
 618 1452 618 1452 646.5 1453.5 c 128,-1,8
 675 1455 675 1455 702.5 1455 c 128,-1,9
 730 1455 730 1455 756 1453 c 128,-1,10
 782 1451 782 1451 803 1448 c 1,11,-1
 1271 113 l 1,12,-1
 1376 90 l 1,13,-1
 1366 0 l 1,14,-1
 898 0 l 1,15,-1
 889 90 l 1,16,17
 909 95 909 95 934 100 c 128,-1,18
 959 105 959 105 985.5 109 c 128,-1,19
 1012 113 1012 113 1037 116 c 128,-1,20
 1062 119 1062 119 1082 122 c 1,21,-1
 954 496 l 1,22,-1
 413 496 l 1,23,-1
 288 122 l 1,24,-1
 293 122 l 1,25,-1
 496 90 l 1,26,-1
 487 0 l 1,27,-1
 47 0 l 1,28,-1
 36 90 l 1,0,1
917 612 m 1,29,-1
 697 1247 l 1,30,-1
 679 1310 l 1,31,-1
 654 1202 l 1,32,-1
 454 612 l 1,33,-1
 917 612 l 1,29,-1
EndSplineSet
EndChar

StartChar: ff
Encoding: 64256 64256 62
Width: 1394
Flags: W
LayerCount: 2
Fore
SplineSet
81 88 m 1,0,1
 116 96 116 96 152 101 c 128,-1,2
 188 106 188 106 230 111 c 1,3,-1
 230 853 l 1,4,-1
 81 853 l 1,5,6
 79 865 79 865 78.5 874.5 c 128,-1,7
 78 884 78 884 78.5 893 c 128,-1,8
 79 902 79 902 80.5 911.5 c 128,-1,9
 82 921 82 921 85 934 c 1,10,-1
 230 950 l 1,11,-1
 230 1177 l 2,12,13
 230 1258 230 1258 252.5 1333 c 128,-1,14
 275 1408 275 1408 322 1466.5 c 128,-1,15
 369 1525 369 1525 443 1560 c 128,-1,16
 517 1595 517 1595 620 1595 c 0,17,18
 668 1595 668 1595 718.5 1588 c 128,-1,19
 769 1581 769 1581 817 1569 c 128,-1,20
 865 1557 865 1557 907 1542 c 128,-1,21
 949 1527 949 1527 981 1511 c 1,22,23
 1029 1555 1029 1555 1095 1581.5 c 128,-1,24
 1161 1608 1161 1608 1250 1608 c 0,25,26
 1323 1608 1323 1608 1377 1596.5 c 128,-1,27
 1431 1585 1431 1585 1482 1560 c 1,28,-1
 1421 1427 l 1,29,30
 1418 1429 1418 1429 1399.5 1436.5 c 128,-1,31
 1381 1444 1381 1444 1351.5 1453 c 128,-1,32
 1322 1462 1322 1462 1285 1469 c 128,-1,33
 1248 1476 1248 1476 1208 1477 c 1,34,35
 1159 1477 1159 1477 1125 1465 c 128,-1,36
 1091 1453 1091 1453 1069.5 1421 c 128,-1,37
 1048 1389 1048 1389 1038 1332.5 c 128,-1,38
 1028 1276 1028 1276 1028 1186 c 2,39,-1
 1028 950 l 1,40,-1
 1326 950 l 1,41,42
 1330 924 1330 924 1330 902 c 128,-1,43
 1330 880 1330 880 1326 853 c 1,44,-1
 1028 853 l 1,45,-1
 1028 111 l 1,46,47
 1089 107 1089 107 1140 101.5 c 128,-1,48
 1191 96 1191 96 1241 88 c 1,49,50
 1247 44 1247 44 1241 0 c 1,51,-1
 719 0 l 1,52,-1
 711 88 l 1,53,54
 746 96 746 96 782 101 c 128,-1,55
 818 106 818 106 860 111 c 1,56,-1
 860 853 l 1,57,-1
 397 853 l 1,58,-1
 397 111 l 1,59,60
 458 107 458 107 509 101.5 c 128,-1,61
 560 96 560 96 609 88 c 1,62,63
 616 44 616 44 609 0 c 1,64,-1
 88 0 l 1,65,-1
 81 88 l 1,0,1
860 950 m 1,66,-1
 860 1189 l 2,67,68
 860 1238 860 1238 868 1285.5 c 128,-1,69
 876 1333 876 1333 893 1378 c 1,70,71
 872 1391 872 1391 842.5 1406.5 c 128,-1,72
 813 1422 813 1422 778 1435.5 c 128,-1,73
 743 1449 743 1449 702.5 1457.5 c 128,-1,74
 662 1466 662 1466 620 1466 c 0,75,76
 560 1466 560 1466 517.5 1454 c 128,-1,77
 475 1442 475 1442 448.5 1410 c 128,-1,78
 422 1378 422 1378 409.5 1321.5 c 128,-1,79
 397 1265 397 1265 397 1175 c 2,80,-1
 397 950 l 1,81,-1
 860 950 l 1,66,-1
EndSplineSet
EndChar

StartChar: fl
Encoding: 64258 64258 63
Width: 1310
Flags: W
LayerCount: 2
Fore
SplineSet
68 88 m 1,0,1
 103 96 103 96 139.5 101 c 128,-1,2
 176 106 176 106 217 111 c 1,3,-1
 217 846 l 1,4,-1
 68 846 l 1,5,6
 64 871 64 871 66 889.5 c 128,-1,7
 68 908 68 908 73 934 c 1,8,-1
 217 950 l 1,9,-1
 217 1189 l 2,10,11
 217 1270 217 1270 242 1345.5 c 128,-1,12
 267 1421 267 1421 321 1479.5 c 128,-1,13
 375 1538 375 1538 459 1573 c 128,-1,14
 543 1608 543 1608 661 1608 c 0,15,16
 804 1608 804 1608 910.5 1586.5 c 128,-1,17
 1017 1565 1017 1565 1094 1522 c 1,18,-1
 1094 108 l 1,19,20
 1135 103 1135 103 1173 99 c 128,-1,21
 1211 95 1211 95 1252 88 c 1,22,23
 1261 44 1261 44 1252 0 c 1,24,-1
 758 0 l 1,25,-1
 751 88 l 1,26,27
 792 96 792 96 838.5 99.5 c 128,-1,28
 885 103 885 103 927 108 c 1,29,-1
 927 1421 l 1,30,31
 892 1441 892 1441 845.5 1453.5 c 128,-1,32
 799 1466 799 1466 757 1472.5 c 128,-1,33
 715 1479 715 1479 685.5 1481.5 c 128,-1,34
 656 1484 656 1484 654 1484 c 0,35,36
 561 1484 561 1484 507.5 1471 c 128,-1,37
 454 1458 454 1458 426.5 1424.5 c 128,-1,38
 399 1391 399 1391 392 1333.5 c 128,-1,39
 385 1276 385 1276 385 1186 c 2,40,-1
 385 950 l 1,41,-1
 683 950 l 1,42,43
 690 899 690 899 683 846 c 1,44,-1
 385 846 l 1,45,-1
 385 111 l 1,46,47
 415 109 415 109 450 107 c 128,-1,48
 485 105 485 105 520 102 c 128,-1,49
 555 99 555 99 587.5 95.5 c 128,-1,50
 620 92 620 92 645 88 c 1,51,52
 652 44 652 44 645 0 c 1,53,-1
 76 0 l 1,54,-1
 68 88 l 1,0,1
EndSplineSet
EndChar

StartChar: fi
Encoding: 64257 64257 64
Width: 1222
Flags: W
LayerCount: 2
Fore
SplineSet
68 88 m 1,0,1
 103 96 103 96 139.5 101 c 128,-1,2
 176 106 176 106 217 111 c 1,3,-1
 217 853 l 1,4,-1
 68 853 l 1,5,6
 66 865 66 865 65.5 874.5 c 128,-1,7
 65 884 65 884 66 893 c 128,-1,8
 67 902 67 902 68.5 911.5 c 128,-1,9
 70 921 70 921 73 934 c 1,10,-1
 217 950 l 1,11,-1
 217 1155 l 2,12,13
 217 1253 217 1253 243.5 1336 c 128,-1,14
 270 1419 270 1419 322.5 1479.5 c 128,-1,15
 375 1540 375 1540 453 1574 c 128,-1,16
 531 1608 531 1608 634 1608 c 0,17,18
 693 1608 693 1608 751.5 1596.5 c 128,-1,19
 810 1585 810 1585 858.5 1569.5 c 128,-1,20
 907 1554 907 1554 941 1537.5 c 128,-1,21
 975 1521 975 1521 986 1511 c 1,22,-1
 917 1376 l 1,23,24
 896 1389 896 1389 861.5 1406.5 c 128,-1,25
 827 1424 827 1424 785.5 1439.5 c 128,-1,26
 744 1455 744 1455 698.5 1466 c 128,-1,27
 653 1477 653 1477 609 1477 c 0,28,29
 549 1477 549 1477 506.5 1465 c 128,-1,30
 464 1453 464 1453 437 1421 c 128,-1,31
 410 1389 410 1389 397.5 1332.5 c 128,-1,32
 385 1276 385 1276 385 1186 c 2,33,-1
 385 950 l 1,34,-1
 972 950 l 1,35,-1
 997 924 l 1,36,-1
 997 106 l 1,37,38
 1038 101 1038 101 1075 97 c 128,-1,39
 1112 93 1112 93 1153 85 c 1,40,41
 1162 43 1162 43 1153 0 c 1,42,-1
 672 0 l 1,43,-1
 664 85 l 1,44,45
 707 93 707 93 753 98 c 128,-1,46
 799 103 799 103 830 106 c 1,47,-1
 830 853 l 1,48,-1
 385 853 l 1,49,-1
 385 111 l 1,50,51
 415 109 415 109 440.5 107 c 128,-1,52
 466 105 466 105 489.5 102 c 128,-1,53
 513 99 513 99 536 95.5 c 128,-1,54
 559 92 559 92 584 88 c 1,55,56
 591 44 591 44 584 0 c 1,57,-1
 76 0 l 1,58,-1
 68 88 l 1,0,1
EndSplineSet
EndChar

StartChar: V
Encoding: 86 86 65
Width: 1281
Flags: W
LayerCount: 2
Fore
SplineSet
125 1333 m 1,0,-1
 29 1359 l 1,1,2
 27 1364 27 1364 27 1374 c 128,-1,3
 27 1384 27 1384 27 1392 c 0,4,5
 27 1406 27 1406 30.5 1423.5 c 128,-1,6
 34 1441 34 1441 38 1448 c 1,7,-1
 485 1448 l 1,8,-1
 494 1359 l 1,9,10
 476 1354 476 1354 453.5 1349.5 c 128,-1,11
 431 1345 431 1345 407.5 1341 c 128,-1,12
 384 1337 384 1337 360.5 1334 c 128,-1,13
 337 1331 337 1331 317 1328 c 1,14,-1
 667 201 l 1,15,-1
 685 128 l 1,16,-1
 717 246 l 1,17,-1
 1037 1326 l 1,18,-1
 834 1359 l 1,19,20
 832 1364 832 1364 832 1374 c 128,-1,21
 832 1384 832 1384 832 1392 c 0,22,23
 832 1406 832 1406 836 1423.5 c 128,-1,24
 840 1441 840 1441 844 1448 c 1,25,-1
 1269 1448 l 1,26,-1
 1281 1359 l 1,27,28
 1267 1351 1267 1351 1240.5 1343.5 c 128,-1,29
 1214 1336 1214 1336 1191 1331 c 1,30,-1
 775 0 l 1,31,32
 723 -7 723 -7 664.5 -6 c 128,-1,33
 606 -5 606 -5 562 0 c 1,34,-1
 125 1333 l 1,0,-1
EndSplineSet
EndChar

StartChar: Z
Encoding: 90 90 66
Width: 1177
Flags: W
LayerCount: 2
Fore
SplineSet
97 0 m 1,0,1
 91 11 91 11 85.5 28 c 128,-1,2
 80 45 80 45 75.5 64 c 128,-1,3
 71 83 71 83 68.5 101 c 128,-1,4
 66 119 66 119 66 133 c 1,5,-1
 860 1328 l 1,6,-1
 248 1328 l 1,7,-1
 248 1326 l 1,8,-1
 227 1116 l 1,9,10
 198 1112 198 1112 167 1112.5 c 128,-1,11
 136 1113 136 1113 113 1118 c 1,12,13
 110 1146 110 1146 103.5 1184.5 c 128,-1,14
 97 1223 97 1223 91 1265.5 c 128,-1,15
 85 1308 85 1308 81 1351 c 128,-1,16
 77 1394 77 1394 78 1432 c 1,17,-1
 90 1448 l 1,18,-1
 1033 1448 l 1,19,20
 1040 1439 1040 1439 1047 1425.5 c 128,-1,21
 1054 1412 1054 1412 1060 1397 c 128,-1,22
 1066 1382 1066 1382 1069.5 1366 c 128,-1,23
 1073 1350 1073 1350 1073 1337 c 1,24,-1
 277 120 l 1,25,-1
 941 120 l 1,26,-1
 1014 345 l 1,27,28
 1042 347 1042 347 1071 345 c 128,-1,29
 1100 343 1100 343 1123 336 c 1,30,31
 1122 301 1122 301 1119.5 258 c 128,-1,32
 1117 215 1117 215 1114 171 c 128,-1,33
 1111 127 1111 127 1107 86.5 c 128,-1,34
 1103 46 1103 46 1099 16 c 1,35,-1
 1078 0 l 1,36,-1
 97 0 l 1,0,1
EndSplineSet
EndChar

StartChar: Y
Encoding: 89 89 67
Width: 1307
Flags: W
LayerCount: 2
Fore
SplineSet
379 90 m 1,0,1
 399 96 399 96 424.5 101 c 128,-1,2
 450 106 450 106 476.5 109.5 c 128,-1,3
 503 113 503 113 528.5 116 c 128,-1,4
 554 119 554 119 575 122 c 1,5,-1
 575 627 l 1,6,-1
 135 1333 l 1,7,-1
 23 1359 l 1,8,9
 21 1364 21 1364 21 1374 c 128,-1,10
 21 1384 21 1384 21 1392 c 0,11,12
 21 1406 21 1406 25.5 1423.5 c 128,-1,13
 30 1441 30 1441 33 1448 c 1,14,-1
 482 1448 l 1,15,-1
 492 1359 l 1,16,17
 457 1349 457 1349 417 1341.5 c 128,-1,18
 377 1334 377 1334 340 1329 c 1,19,-1
 643 827 l 1,20,-1
 685 744 l 1,21,-1
 1038 1326 l 1,22,-1
 853 1359 l 1,23,24
 851 1364 851 1364 850.5 1374 c 128,-1,25
 850 1384 850 1384 850 1392 c 0,26,27
 850 1406 850 1406 854 1423.5 c 128,-1,28
 858 1441 858 1441 863 1448 c 1,29,-1
 1283 1448 l 1,30,-1
 1295 1359 l 1,31,32
 1288 1355 1288 1355 1275.5 1351 c 128,-1,33
 1263 1347 1263 1347 1248.5 1343.5 c 128,-1,34
 1234 1340 1234 1340 1219.5 1336.5 c 128,-1,35
 1205 1333 1205 1333 1193 1331 c 1,36,-1
 754 634 l 1,37,-1
 754 122 l 1,38,-1
 965 90 l 1,39,40
 967 85 967 85 967 74.5 c 128,-1,41
 967 64 967 64 967 57 c 0,42,43
 967 43 967 43 962.5 25 c 128,-1,44
 958 7 958 7 954 0 c 1,45,-1
 388 0 l 1,46,-1
 379 90 l 1,0,1
EndSplineSet
EndChar

StartChar: W
Encoding: 87 87 68
Width: 1888
Flags: W
LayerCount: 2
Fore
SplineSet
135 1335 m 1,0,-1
 33 1355 l 1,1,2
 30 1375 30 1375 31.5 1400 c 128,-1,3
 33 1425 33 1425 38 1446 c 1,4,-1
 487 1446 l 1,5,-1
 492 1355 l 1,6,-1
 329 1335 l 1,7,-1
 568 248 l 1,8,-1
 584 111 l 1,9,-1
 620 298 l 1,10,-1
 882 1236 l 1,11,12
 928 1248 928 1248 967.5 1249 c 128,-1,13
 1007 1250 1007 1250 1054 1243 c 1,14,-1
 1333 260 l 1,15,-1
 1364 104 l 1,16,-1
 1394 298 l 1,17,-1
 1621 1335 l 1,18,19
 1575 1339 1575 1339 1532 1343 c 128,-1,20
 1489 1347 1489 1347 1463 1355 c 1,21,-1
 1468 1446 l 1,22,-1
 1863 1446 l 1,23,-1
 1867 1355 l 1,24,25
 1849 1349 1849 1349 1828 1344 c 128,-1,26
 1807 1339 1807 1339 1782 1335 c 1,27,-1
 1477 0 l 1,28,29
 1451 -6 1451 -6 1416 -8 c 128,-1,30
 1381 -10 1381 -10 1346 -9.5 c 128,-1,31
 1311 -9 1311 -9 1280 -6 c 128,-1,32
 1249 -3 1249 -3 1231 0 c 1,33,-1
 986 865 l 1,34,-1
 947 1028 l 1,35,-1
 917 863 l 1,36,-1
 672 2 l 1,37,38
 646 -3 646 -3 611.5 -5 c 128,-1,39
 577 -7 577 -7 544 -7 c 128,-1,40
 511 -7 511 -7 484 -5 c 128,-1,41
 457 -3 457 -3 444 0 c 1,42,-1
 135 1335 l 1,0,-1
EndSplineSet
EndChar

StartChar: M
Encoding: 77 77 69
Width: 1921
Flags: W
LayerCount: 2
Fore
SplineSet
59 99 m 1,0,1
 68 102 68 102 85.5 104.5 c 128,-1,2
 103 107 103 107 123 109.5 c 128,-1,3
 143 112 143 112 162 114 c 128,-1,4
 181 116 181 116 194 118 c 1,5,-1
 298 1326 l 1,6,-1
 286 1326 l 1,7,8
 245 1331 245 1331 206 1337 c 128,-1,9
 167 1343 167 1343 126 1351 c 1,10,11
 123 1374 123 1374 125.5 1399.5 c 128,-1,12
 128 1425 128 1425 135 1448 c 1,13,-1
 560 1448 l 1,14,-1
 962 205 l 1,15,-1
 995 336 l 1,16,-1
 1328 1446 l 1,17,-1
 1723 1448 l 1,18,-1
 1728 1349 l 1,19,20
 1687 1340 1687 1340 1655.5 1335.5 c 128,-1,21
 1624 1331 1624 1331 1583 1326 c 1,22,-1
 1744 115 l 1,23,-1
 1886 97 l 1,24,25
 1889 75 1889 75 1887.5 48.5 c 128,-1,26
 1886 22 1886 22 1881 0 c 1,27,-1
 1389 -2 l 1,28,-1
 1385 95 l 1,29,-1
 1560 113 l 1,30,-1
 1430 1103 l 1,31,-1
 1411 1319 l 1,32,-1
 1366 1101 l 1,33,-1
 1024 7 l 1,34,35
 977 -5 977 -5 939.5 -6 c 128,-1,36
 902 -7 902 -7 855 0 c 1,37,-1
 482 1127 l 1,38,-1
 430 1321 l 1,39,-1
 421 1121 l 1,40,-1
 338 118 l 1,41,42
 384 114 384 114 426.5 110 c 128,-1,43
 469 106 469 106 496 99 c 1,44,45
 500 72 500 72 497.5 48.5 c 128,-1,46
 495 25 495 25 492 0 c 1,47,-1
 63 0 l 1,48,-1
 59 99 l 1,0,1
EndSplineSet
EndChar

StartChar: N
Encoding: 78 78 70
Width: 1588
Flags: W
LayerCount: 2
Fore
SplineSet
97 90 m 1,0,1
 136 104 136 104 179.5 110.5 c 128,-1,2
 223 117 223 117 264 122 c 1,3,-1
 264 1328 l 1,4,-1
 97 1359 l 1,5,6
 95 1364 95 1364 95 1375.5 c 128,-1,7
 95 1387 95 1387 95 1394 c 0,8,9
 95 1409 95 1409 99 1425 c 128,-1,10
 103 1441 103 1441 106 1448 c 1,11,-1
 482 1448 l 1,12,-1
 554 1324 l 1,13,-1
 555 1324 l 1,14,-1
 1130 324 l 1,15,-1
 1211 126 l 1,16,-1
 1196 347 l 1,17,-1
 1196 1328 l 1,18,-1
 1021 1359 l 1,19,20
 1019 1364 1019 1364 1019 1375.5 c 128,-1,21
 1019 1387 1019 1387 1019 1394 c 0,22,23
 1019 1409 1019 1409 1023 1425 c 128,-1,24
 1027 1441 1027 1441 1031 1448 c 1,25,-1
 1491 1448 l 1,26,-1
 1500 1362 l 1,27,28
 1461 1351 1461 1351 1426 1342 c 128,-1,29
 1391 1333 1391 1333 1349 1328 c 1,30,-1
 1349 0 l 1,31,32
 1328 -8 1328 -8 1298.5 -13.5 c 128,-1,33
 1269 -19 1269 -19 1238.5 -22 c 128,-1,34
 1208 -25 1208 -25 1179 -25 c 128,-1,35
 1150 -25 1150 -25 1130 -21 c 1,36,-1
 1130 -18 l 1,37,-1
 475 1118 l 1,38,-1
 409 1283 l 1,39,-1
 418 1111 l 1,40,-1
 418 122 l 1,41,-1
 614 90 l 1,42,43
 616 85 616 85 616.5 74.5 c 128,-1,44
 617 64 617 64 617 57 c 0,45,46
 617 43 617 43 612.5 25 c 128,-1,47
 608 7 608 7 605 0 c 1,48,-1
 106 0 l 1,49,-1
 97 90 l 1,0,1
EndSplineSet
EndChar

StartChar: X
Encoding: 88 88 71
Width: 1371
Flags: W
LayerCount: 2
Fore
SplineSet
52 0 m 1,0,1
 45 23 45 23 43.5 45 c 128,-1,2
 42 67 42 67 47 92 c 1,3,-1
 151 115 l 1,4,-1
 586 733 l 1,5,-1
 151 1349 l 1,6,-1
 63 1362 l 1,7,8
 61 1385 61 1385 61.5 1405 c 128,-1,9
 62 1425 62 1425 70 1448 c 1,10,-1
 508 1448 l 1,11,12
 513 1425 513 1425 514 1405.5 c 128,-1,13
 515 1386 515 1386 515 1362 c 1,14,-1
 374 1342 l 1,15,-1
 697 865 l 1,16,-1
 1031 1335 l 1,17,-1
 882 1357 l 1,18,19
 880 1381 880 1381 882.5 1402.5 c 128,-1,20
 885 1424 885 1424 889 1448 c 1,21,-1
 1286 1448 l 1,22,23
 1294 1428 1294 1428 1292.5 1402 c 128,-1,24
 1291 1376 1291 1376 1288 1357 c 1,25,-1
 1184 1335 l 1,26,-1
 775 775 l 1,27,-1
 1243 104 l 1,28,-1
 1337 92 l 1,29,30
 1341 69 1341 69 1341.5 47 c 128,-1,31
 1342 25 1342 25 1337 0 c 1,32,-1
 909 0 l 1,33,34
 904 25 904 25 903.5 47 c 128,-1,35
 903 69 903 69 907 92 c 1,36,-1
 1021 104 l 1,37,-1
 669 638 l 1,38,-1
 307 115 l 1,39,-1
 463 92 l 1,40,41
 463 69 463 69 462 47 c 128,-1,42
 461 25 461 25 456 0 c 1,43,-1
 52 0 l 1,0,1
EndSplineSet
EndChar

StartChar: S
Encoding: 83 83 72
Width: 1189
Flags: W
LayerCount: 2
Fore
SplineSet
158 415 m 1,0,1
 177 416 177 416 191 416 c 128,-1,2
 205 416 205 416 217.5 415.5 c 128,-1,3
 230 415 230 415 243.5 413 c 128,-1,4
 257 411 257 411 277 409 c 1,5,6
 282 380 282 380 285 356.5 c 128,-1,7
 288 333 288 333 291 309 c 128,-1,8
 294 285 294 285 297 258.5 c 128,-1,9
 300 232 300 232 305 196 c 1,10,11
 339 175 339 175 375.5 156 c 128,-1,12
 412 137 412 137 452.5 123 c 128,-1,13
 493 109 493 109 538 100.5 c 128,-1,14
 583 92 583 92 636 92 c 0,15,16
 701 92 701 92 749 109 c 128,-1,17
 797 126 797 126 828 156.5 c 128,-1,18
 859 187 859 187 874 231 c 128,-1,19
 889 275 889 275 889 329 c 0,20,21
 889 355 889 355 887 378.5 c 128,-1,22
 885 402 885 402 878 424 c 128,-1,23
 871 446 871 446 858 466 c 128,-1,24
 845 486 845 486 823 505 c 0,25,26
 764 555 764 555 699 594 c 128,-1,27
 634 633 634 633 566.5 669 c 128,-1,28
 499 705 499 705 431 741.5 c 128,-1,29
 363 778 363 778 298 823 c 0,30,31
 263 848 263 848 235.5 873.5 c 128,-1,32
 208 899 208 899 188.5 930.5 c 128,-1,33
 169 962 169 962 159 1001.5 c 128,-1,34
 149 1041 149 1041 149 1094 c 0,35,36
 149 1192 149 1192 177 1259.5 c 128,-1,37
 205 1327 205 1327 255 1373 c 0,38,39
 316 1430 316 1430 396.5 1453.5 c 128,-1,40
 477 1477 477 1477 584 1477 c 0,41,42
 641 1477 641 1477 701.5 1472 c 128,-1,43
 762 1467 762 1467 819.5 1457.5 c 128,-1,44
 877 1448 877 1448 928.5 1435 c 128,-1,45
 980 1422 980 1422 1021 1407 c 1,46,47
 1014 1326 1014 1326 1004.5 1244 c 128,-1,48
 995 1162 995 1162 981 1089 c 1,49,50
 960 1087 960 1087 945 1086.5 c 128,-1,51
 930 1086 930 1086 917.5 1086.5 c 128,-1,52
 905 1087 905 1087 891.5 1088 c 128,-1,53
 878 1089 878 1089 860 1092 c 1,54,-1
 844 1290 l 1,55,56
 778 1325 778 1325 706 1343.5 c 128,-1,57
 634 1362 634 1362 564 1362 c 0,58,59
 509 1362 509 1362 463.5 1349 c 128,-1,60
 418 1336 418 1336 385 1309.5 c 128,-1,61
 352 1283 352 1283 334 1242.5 c 128,-1,62
 316 1202 316 1202 316 1146 c 0,63,64
 316 1106 316 1106 326 1074 c 128,-1,65
 336 1042 336 1042 356.5 1014.5 c 128,-1,66
 377 987 377 987 409 963 c 128,-1,67
 441 939 441 939 485 915 c 2,68,-1
 830 721 l 2,69,70
 917 673 917 673 964.5 626 c 128,-1,71
 1012 579 1012 579 1034.5 532 c 128,-1,72
 1057 485 1057 485 1061.5 437.5 c 128,-1,73
 1066 390 1066 390 1066 340 c 0,74,75
 1066 283 1066 283 1052.5 236.5 c 128,-1,76
 1039 190 1039 190 1015 152.5 c 128,-1,77
 991 115 991 115 959 86.5 c 128,-1,78
 927 58 927 58 891 38 c 0,79,80
 849 15 849 15 804.5 2 c 128,-1,81
 760 -11 760 -11 717 -17.5 c 128,-1,82
 674 -24 674 -24 636 -25.5 c 128,-1,83
 598 -27 598 -27 570 -27 c 0,84,85
 512 -27 512 -27 447 -15.5 c 128,-1,86
 382 -4 382 -4 322 14 c 128,-1,87
 262 32 262 32 212 53.5 c 128,-1,88
 162 75 162 75 133 95 c 1,89,-1
 158 415 l 1,0,1
EndSplineSet
EndChar

StartChar: at
Encoding: 64 64 73
Width: 2073
Flags: W
LayerCount: 2
Fore
SplineSet
194 584 m 0,0,1
 215 753 215 753 261 883 c 128,-1,2
 307 1013 307 1013 375.5 1109 c 128,-1,3
 444 1205 444 1205 534 1270 c 128,-1,4
 624 1335 624 1335 733.5 1374.5 c 128,-1,5
 843 1414 843 1414 970 1431 c 128,-1,6
 1097 1448 1097 1448 1241 1448 c 0,7,8
 1360 1448 1360 1448 1462 1441.5 c 128,-1,9
 1564 1435 1564 1435 1646.5 1409.5 c 128,-1,10
 1729 1384 1729 1384 1791 1332.5 c 128,-1,11
 1853 1281 1853 1281 1890 1191 c 128,-1,12
 1927 1101 1927 1101 1938.5 966 c 128,-1,13
 1950 831 1950 831 1933 638 c 0,14,15
 1922 518 1922 518 1888.5 423.5 c 128,-1,16
 1855 329 1855 329 1805.5 258 c 128,-1,17
 1756 187 1756 187 1695 138 c 128,-1,18
 1634 89 1634 89 1569 58 c 128,-1,19
 1504 27 1504 27 1438 12.5 c 128,-1,20
 1372 -2 1372 -2 1314 -2 c 0,21,22
 1296 -2 1296 -2 1279.5 2 c 128,-1,23
 1263 6 1263 6 1251 15.5 c 128,-1,24
 1239 25 1239 25 1233.5 40 c 128,-1,25
 1228 55 1228 55 1231 78 c 2,26,-1
 1276 366 l 1,27,-1
 1274 366 l 1,28,29
 1245 291 1245 291 1204.5 223 c 128,-1,30
 1164 155 1164 155 1116 104 c 128,-1,31
 1068 53 1068 53 1013 22.5 c 128,-1,32
 958 -8 958 -8 900 -9 c 0,33,34
 864 -10 864 -10 830 -3 c 128,-1,35
 796 4 796 4 766.5 23 c 128,-1,36
 737 42 737 42 714 75 c 128,-1,37
 691 108 691 108 677 159.5 c 128,-1,38
 663 211 663 211 659 283.5 c 128,-1,39
 655 356 655 356 664 454 c 0,40,41
 669 503 669 503 677.5 560 c 128,-1,42
 686 617 686 617 701.5 673 c 128,-1,43
 717 729 717 729 741.5 781 c 128,-1,44
 766 833 766 833 803 871.5 c 128,-1,45
 840 910 840 910 891.5 932 c 128,-1,46
 943 954 943 954 1012 950 c 0,47,48
 1050 948 1050 948 1092.5 941.5 c 128,-1,49
 1135 935 1135 935 1176.5 921.5 c 128,-1,50
 1218 908 1218 908 1257 887.5 c 128,-1,51
 1296 867 1296 867 1328 837 c 1,52,-1
 1371 934 l 1,53,-1
 1477 922 l 1,54,-1
 1385 108 l 1,55,56
 1430 118 1430 118 1474 132.5 c 128,-1,57
 1518 147 1518 147 1558.5 172.5 c 128,-1,58
 1599 198 1599 198 1634.5 235.5 c 128,-1,59
 1670 273 1670 273 1698.5 328.5 c 128,-1,60
 1727 384 1727 384 1747 460 c 128,-1,61
 1767 536 1767 536 1777 638 c 0,62,63
 1790 781 1790 781 1791 887 c 128,-1,64
 1792 993 1792 993 1774 1067.5 c 128,-1,65
 1756 1142 1756 1142 1714.5 1189.5 c 128,-1,66
 1673 1237 1673 1237 1603 1264.5 c 128,-1,67
 1533 1292 1533 1292 1429.5 1302 c 128,-1,68
 1326 1312 1326 1312 1184 1312 c 0,69,70
 1095 1312 1095 1312 1004.5 1303 c 128,-1,71
 914 1294 914 1294 828 1266.5 c 128,-1,72
 742 1239 742 1239 664.5 1189 c 128,-1,73
 587 1139 587 1139 524 1057.5 c 128,-1,74
 461 976 461 976 416 858.5 c 128,-1,75
 371 741 371 741 352 579 c 0,76,77
 334 424 334 424 329.5 299 c 128,-1,78
 325 174 325 174 340.5 76.5 c 128,-1,79
 356 -21 356 -21 393.5 -91.5 c 128,-1,80
 431 -162 431 -162 496.5 -208 c 128,-1,81
 562 -254 562 -254 658 -276 c 128,-1,82
 754 -298 754 -298 886 -298 c 0,83,84
 962 -298 962 -298 1034.5 -289 c 128,-1,85
 1107 -280 1107 -280 1166 -268.5 c 128,-1,86
 1225 -257 1225 -257 1265 -246 c 128,-1,87
 1305 -235 1305 -235 1317 -230 c 1,88,-1
 1328 -359 l 1,89,90
 1298 -373 1298 -373 1247 -386.5 c 128,-1,91
 1196 -400 1196 -400 1133.5 -410 c 128,-1,92
 1071 -420 1071 -420 1000.5 -425.5 c 128,-1,93
 930 -431 930 -431 860 -430 c 0,94,95
 717 -429 717 -429 605.5 -406.5 c 128,-1,96
 494 -384 494 -384 411.5 -335 c 128,-1,97
 329 -286 329 -286 276 -208 c 128,-1,98
 223 -130 223 -130 196.5 -17.5 c 128,-1,99
 170 95 170 95 170 244 c 128,-1,100
 170 393 170 393 194 584 c 0,0,1
922 133 m 0,101,102
 958 133 958 133 1004 165 c 128,-1,103
 1050 197 1050 197 1098 250.5 c 128,-1,104
 1146 304 1146 304 1193.5 373.5 c 128,-1,105
 1241 443 1241 443 1281 518 c 1,106,-1
 1310 756 l 1,107,108
 1269 774 1269 774 1227.5 788 c 128,-1,109
 1186 802 1186 802 1148.5 812.5 c 128,-1,110
 1111 823 1111 823 1081 828.5 c 128,-1,111
 1051 834 1051 834 1035 834 c 0,112,113
 983 834 983 834 946.5 801 c 128,-1,114
 910 768 910 768 886.5 714.5 c 128,-1,115
 863 661 863 661 850 593 c 128,-1,116
 837 525 837 525 832 454 c 1,117,118
 824 362 824 362 823.5 300 c 128,-1,119
 823 238 823 238 833 200.5 c 128,-1,120
 843 163 843 163 864.5 147.5 c 128,-1,121
 886 132 886 132 922 133 c 0,101,102
EndSplineSet
EndChar

StartChar: question
Encoding: 63 63 74
Width: 857
Flags: W
LayerCount: 2
Fore
SplineSet
253 383 m 1,0,1
 242 427 242 427 237.5 467 c 128,-1,2
 233 507 233 507 239 544.5 c 128,-1,3
 245 582 245 582 265 619 c 128,-1,4
 285 656 285 656 324 695 c 0,5,6
 351 723 351 723 387 753.5 c 128,-1,7
 423 784 423 784 459.5 819 c 128,-1,8
 496 854 496 854 529.5 894 c 128,-1,9
 563 934 563 934 586 981 c 0,10,11
 595 999 595 999 599 1019.5 c 128,-1,12
 603 1040 603 1040 605 1061 c 128,-1,13
 607 1082 607 1082 607 1101 c 128,-1,14
 607 1120 607 1120 607 1134 c 0,15,16
 607 1197 607 1197 593 1241 c 128,-1,17
 579 1285 579 1285 550.5 1312 c 128,-1,18
 522 1339 522 1339 478.5 1351.5 c 128,-1,19
 435 1364 435 1364 376 1364 c 0,20,21
 366 1364 366 1364 349.5 1362.5 c 128,-1,22
 333 1361 333 1361 314 1358 c 128,-1,23
 295 1355 295 1355 275.5 1350.5 c 128,-1,24
 256 1346 256 1346 241 1340 c 1,25,-1
 232 1111 l 1,26,27
 189 1103 189 1103 162.5 1103.5 c 128,-1,28
 136 1104 136 1104 111 1109 c 1,29,30
 104 1145 104 1145 98.5 1176.5 c 128,-1,31
 93 1208 93 1208 88.5 1239.5 c 128,-1,32
 84 1271 84 1271 80.5 1304.5 c 128,-1,33
 77 1338 77 1338 73 1378 c 1,34,35
 96 1394 96 1394 134.5 1411.5 c 128,-1,36
 173 1429 173 1429 220 1443.5 c 128,-1,37
 267 1458 267 1458 321 1467.5 c 128,-1,38
 375 1477 375 1477 430 1477 c 0,39,40
 528 1477 528 1477 596 1458 c 128,-1,41
 664 1439 664 1439 706 1397 c 128,-1,42
 748 1355 748 1355 766.5 1287.5 c 128,-1,43
 785 1220 785 1220 785 1123 c 0,44,45
 785 1029 785 1029 755 962 c 128,-1,46
 725 895 725 895 679.5 844 c 128,-1,47
 634 793 634 793 581 752.5 c 128,-1,48
 528 712 528 712 482 672 c 0,49,50
 438 633 438 633 419 596.5 c 128,-1,51
 400 560 400 560 395.5 526 c 128,-1,52
 391 492 391 492 395.5 459.5 c 128,-1,53
 400 427 400 427 402 397 c 1,54,55
 393 392 393 392 374.5 387 c 128,-1,56
 356 382 356 382 334 379 c 128,-1,57
 312 376 312 376 290 376.5 c 128,-1,58
 268 377 268 377 253 383 c 1,0,1
227 85 m 256,59,60
 227 110 227 110 232 131 c 128,-1,61
 237 152 237 152 249.5 167.5 c 128,-1,62
 262 183 262 183 284 192 c 128,-1,63
 306 201 306 201 340 201 c 256,64,65
 374 201 374 201 396 192 c 128,-1,66
 418 183 418 183 431.5 167.5 c 128,-1,67
 445 152 445 152 450.5 131 c 128,-1,68
 456 110 456 110 456 85 c 256,69,70
 456 60 456 60 450.5 39 c 128,-1,71
 445 18 445 18 431.5 3 c 128,-1,72
 418 -12 418 -12 396 -20.5 c 128,-1,73
 374 -29 374 -29 340 -29 c 256,74,75
 306 -29 306 -29 284 -20.5 c 128,-1,76
 262 -12 262 -12 249.5 3 c 128,-1,77
 237 18 237 18 232 39 c 128,-1,78
 227 60 227 60 227 85 c 256,59,60
EndSplineSet
EndChar

StartChar: colon
Encoding: 58 58 75
Width: 460
Flags: W
LayerCount: 2
Fore
SplineSet
232 719 m 0,0,1
 198 719 198 719 175.5 728 c 128,-1,2
 153 737 153 737 139.5 752.5 c 128,-1,3
 126 768 126 768 120.5 789 c 128,-1,4
 115 810 115 810 115 834 c 256,5,6
 115 858 115 858 120.5 879 c 128,-1,7
 126 900 126 900 139.5 916 c 128,-1,8
 153 932 153 932 175.5 941 c 128,-1,9
 198 950 198 950 232 950 c 0,10,11
 265 950 265 950 286.5 941 c 128,-1,12
 308 932 308 932 321 916 c 128,-1,13
 334 900 334 900 339.5 879 c 128,-1,14
 345 858 345 858 345 834 c 256,15,16
 345 810 345 810 339.5 789 c 128,-1,17
 334 768 334 768 321 752.5 c 128,-1,18
 308 737 308 737 286.5 728 c 128,-1,19
 265 719 265 719 232 719 c 0,0,1
115 88 m 0,20,21
 115 112 115 112 120.5 132.5 c 128,-1,22
 126 153 126 153 139.5 169 c 128,-1,23
 153 185 153 185 175.5 194 c 128,-1,24
 198 203 198 203 232 203 c 0,25,26
 265 203 265 203 286.5 194 c 128,-1,27
 308 185 308 185 321 169 c 128,-1,28
 334 153 334 153 339.5 132.5 c 128,-1,29
 345 112 345 112 345 88 c 0,30,31
 345 63 345 63 339.5 41.5 c 128,-1,32
 334 20 334 20 321 4.5 c 128,-1,33
 308 -11 308 -11 286.5 -20 c 128,-1,34
 265 -29 265 -29 232 -29 c 0,35,36
 198 -29 198 -29 175.5 -20 c 128,-1,37
 153 -11 153 -11 139.5 4.5 c 128,-1,38
 126 20 126 20 120.5 41.5 c 128,-1,39
 115 63 115 63 115 88 c 0,20,21
EndSplineSet
EndChar

StartChar: questiondown
Encoding: 191 191 76
Width: 782
Flags: W
LayerCount: 2
Fore
SplineSet
504 751 m 256,0,1
 470 751 470 751 448 760 c 128,-1,2
 426 769 426 769 412.5 784.5 c 128,-1,3
 399 800 399 800 393.5 821 c 128,-1,4
 388 842 388 842 388 867 c 256,5,6
 388 892 388 892 393.5 913 c 128,-1,7
 399 934 399 934 412.5 949 c 128,-1,8
 426 964 426 964 448 972.5 c 128,-1,9
 470 981 470 981 504 981 c 256,10,11
 538 981 538 981 559.5 972.5 c 128,-1,12
 581 964 581 964 594 949 c 128,-1,13
 607 934 607 934 612 913 c 128,-1,14
 617 892 617 892 617 867 c 256,15,16
 617 842 617 842 612 821 c 128,-1,17
 607 800 607 800 594 784.5 c 128,-1,18
 581 769 581 769 559.5 760 c 128,-1,19
 538 751 538 751 504 751 c 256,0,1
59 -171 m 0,20,21
 59 -108 59 -108 73 -58 c 128,-1,22
 87 -8 87 -8 110.5 33.5 c 128,-1,23
 134 75 134 75 164.5 108.5 c 128,-1,24
 195 142 195 142 228.5 171 c 128,-1,25
 262 200 262 200 296.5 226.5 c 128,-1,26
 331 253 331 253 362 280 c 0,27,28
 406 319 406 319 425 355.5 c 128,-1,29
 444 392 444 392 448.5 426 c 128,-1,30
 453 460 453 460 448.5 492.5 c 128,-1,31
 444 525 444 525 442 555 c 1,32,33
 451 560 451 560 469.5 565 c 128,-1,34
 488 570 488 570 510 573 c 128,-1,35
 532 576 532 576 554 575.5 c 128,-1,36
 576 575 576 575 591 569 c 1,37,38
 601 525 601 525 606 485 c 128,-1,39
 611 445 611 445 605 407.5 c 128,-1,40
 599 370 599 370 579 333 c 128,-1,41
 559 296 559 296 520 257 c 0,42,43
 493 229 493 229 457 198.5 c 128,-1,44
 421 168 421 168 384.5 133 c 128,-1,45
 348 98 348 98 314.5 57.5 c 128,-1,46
 281 17 281 17 258 -29 c 0,47,48
 249 -47 249 -47 245 -67.5 c 128,-1,49
 241 -88 241 -88 239 -109 c 128,-1,50
 237 -130 237 -130 237 -149 c 128,-1,51
 237 -168 237 -168 237 -182 c 0,52,53
 237 -245 237 -245 251 -289 c 128,-1,54
 265 -333 265 -333 293.5 -360 c 128,-1,55
 322 -387 322 -387 365.5 -399.5 c 128,-1,56
 409 -412 409 -412 468 -412 c 0,57,58
 478 -412 478 -412 494.5 -410.5 c 128,-1,59
 511 -409 511 -409 530 -406 c 128,-1,60
 549 -403 549 -403 568.5 -398.5 c 128,-1,61
 588 -394 588 -394 603 -388 c 1,62,-1
 612 -159 l 1,63,64
 655 -151 655 -151 681.5 -151.5 c 128,-1,65
 708 -152 708 -152 733 -157 c 1,66,67
 740 -193 740 -193 745.5 -224.5 c 128,-1,68
 751 -256 751 -256 755.5 -287.5 c 128,-1,69
 760 -319 760 -319 763.5 -352.5 c 128,-1,70
 767 -386 767 -386 771 -426 c 1,71,72
 748 -442 748 -442 709.5 -459.5 c 128,-1,73
 671 -477 671 -477 624 -491.5 c 128,-1,74
 577 -506 577 -506 523 -515.5 c 128,-1,75
 469 -525 469 -525 414 -525 c 0,76,77
 316 -525 316 -525 248 -506 c 128,-1,78
 180 -487 180 -487 138 -445 c 128,-1,79
 96 -403 96 -403 77.5 -335.5 c 128,-1,80
 59 -268 59 -268 59 -171 c 0,20,21
EndSplineSet
EndChar

StartChar: hyphen
Encoding: 45 45 77
Width: 650
Flags: W
LayerCount: 2
Fore
SplineSet
99 624 m 1,0,-1
 550 624 l 1,1,2
 552 613 552 613 553 596 c 128,-1,3
 554 579 554 579 554 561 c 128,-1,4
 554 543 554 543 553 526 c 128,-1,5
 552 509 552 509 550 499 c 1,6,-1
 95 499 l 1,7,-1
 99 624 l 1,0,-1
EndSplineSet
EndChar

StartChar: uni00AD
Encoding: 173 173 78
Width: 607
Flags: W
LayerCount: 2
Fore
SplineSet
92 622 m 1,0,-1
 530 622 l 1,1,2
 531 611 531 611 532 594.5 c 128,-1,3
 533 578 533 578 533 560 c 128,-1,4
 533 542 533 542 532 525.5 c 128,-1,5
 531 509 531 509 530 499 c 1,6,-1
 88 499 l 1,7,-1
 92 622 l 1,0,-1
EndSplineSet
EndChar

StartChar: endash
Encoding: 8211 8211 79
Width: 853
Flags: W
LayerCount: 2
Fore
SplineSet
99 617 m 1,0,-1
 749 617 l 1,1,2
 751 606 751 606 752 590.5 c 128,-1,3
 753 575 753 575 753 558 c 128,-1,4
 753 541 753 541 752 525 c 128,-1,5
 751 509 751 509 749 499 c 1,6,-1
 95 499 l 1,7,-1
 99 617 l 1,0,-1
EndSplineSet
EndChar

StartChar: emdash
Encoding: 8212 8212 80
Width: 1538
Flags: W
LayerCount: 2
Fore
SplineSet
99 622 m 1,0,-1
 1434 622 l 1,1,2
 1436 611 1436 611 1437 594.5 c 128,-1,3
 1438 578 1438 578 1438 560 c 128,-1,4
 1438 542 1438 542 1437 525.5 c 128,-1,5
 1436 509 1436 509 1434 499 c 1,6,-1
 95 499 l 1,7,-1
 99 622 l 1,0,-1
EndSplineSet
EndChar

StartChar: underscore
Encoding: 95 95 81
Width: 905
Flags: W
LayerCount: 2
Fore
SplineSet
910 -88 m 1,0,-1
 910 -208 l 1,1,-1
 -5 -208 l 1,2,-1
 -5 -88 l 1,3,-1
 910 -88 l 1,0,-1
EndSplineSet
EndChar

StartChar: periodcentered
Encoding: 183 183 82
Width: 494
Flags: W
LayerCount: 2
Fore
SplineSet
246 433 m 256,0,1
 209 433 209 433 184.5 443 c 128,-1,2
 160 453 160 453 145 470 c 128,-1,3
 130 487 130 487 124 510 c 128,-1,4
 118 533 118 533 118 560 c 256,5,6
 118 587 118 587 124 610.5 c 128,-1,7
 130 634 130 634 145 651.5 c 128,-1,8
 160 669 160 669 184.5 679.5 c 128,-1,9
 209 690 209 690 246 690 c 256,10,11
 283 690 283 690 308 679.5 c 128,-1,12
 333 669 333 669 348 651.5 c 128,-1,13
 363 634 363 634 369.5 610.5 c 128,-1,14
 376 587 376 587 376 560 c 256,15,16
 376 533 376 533 369.5 510 c 128,-1,17
 363 487 363 487 348 470 c 128,-1,18
 333 453 333 453 308 443 c 128,-1,19
 283 433 283 433 246 433 c 256,0,1
EndSplineSet
EndChar

StartChar: comma
Encoding: 44 44 83
Width: 485
Flags: W
LayerCount: 2
Fore
SplineSet
111 85 m 1,0,1
 118 142 118 142 141.5 171.5 c 128,-1,2
 165 201 165 201 201 210 c 0,3,4
 223 215 223 215 254 213.5 c 128,-1,5
 285 212 285 212 314 201 c 1,6,7
 349 189 349 189 365 164 c 128,-1,8
 381 139 381 139 379 97 c 0,9,10
 377 59 377 59 361.5 15 c 128,-1,11
 346 -29 346 -29 322.5 -73 c 128,-1,12
 299 -117 299 -117 269 -160 c 128,-1,13
 239 -203 239 -203 209 -240 c 128,-1,14
 179 -277 179 -277 151 -305.5 c 128,-1,15
 123 -334 123 -334 102 -350 c 1,16,-1
 40 -309 l 1,17,18
 58 -285 58 -285 81.5 -245.5 c 128,-1,19
 105 -206 105 -206 127.5 -159 c 128,-1,20
 150 -112 150 -112 168.5 -63 c 128,-1,21
 187 -14 187 -14 196 29 c 1,22,-1
 111 85 l 1,0,1
EndSplineSet
EndChar

StartChar: semicolon
Encoding: 59 59 84
Width: 460
Flags: W
LayerCount: 2
Fore
SplineSet
230 719 m 0,0,1
 196 719 196 719 173.5 728 c 128,-1,2
 151 737 151 737 137.5 752.5 c 128,-1,3
 124 768 124 768 118.5 789 c 128,-1,4
 113 810 113 810 113 834 c 256,5,6
 113 858 113 858 118.5 879 c 128,-1,7
 124 900 124 900 137.5 916 c 128,-1,8
 151 932 151 932 173.5 941 c 128,-1,9
 196 950 196 950 230 950 c 0,10,11
 262 950 262 950 284 941 c 128,-1,12
 306 932 306 932 319 916 c 128,-1,13
 332 900 332 900 337.5 879 c 128,-1,14
 343 858 343 858 343 834 c 256,15,16
 343 810 343 810 337.5 789 c 128,-1,17
 332 768 332 768 319 752.5 c 128,-1,18
 306 737 306 737 284 728 c 128,-1,19
 262 719 262 719 230 719 c 0,0,1
108 88 m 1,20,21
 116 145 116 145 139 173 c 128,-1,22
 162 201 162 201 196 210 c 0,23,24
 218 215 218 215 248 213.5 c 128,-1,25
 278 212 278 212 307 201 c 1,26,27
 342 189 342 189 356.5 165.5 c 128,-1,28
 371 142 371 142 368 99 c 0,29,30
 366 62 366 62 352 21 c 128,-1,31
 338 -20 338 -20 316.5 -61 c 128,-1,32
 295 -102 295 -102 268 -140.5 c 128,-1,33
 241 -179 241 -179 213.5 -212.5 c 128,-1,34
 186 -246 186 -246 159.5 -272.5 c 128,-1,35
 133 -299 133 -299 113 -314 c 1,36,-1
 54 -275 l 1,37,38
 71 -251 71 -251 91.5 -215.5 c 128,-1,39
 112 -180 112 -180 131.5 -139 c 128,-1,40
 151 -98 151 -98 167.5 -53.5 c 128,-1,41
 184 -9 184 -9 192 33 c 1,42,-1
 108 88 l 1,20,21
EndSplineSet
EndChar

StartChar: exclam
Encoding: 33 33 85
Width: 584
Flags: W
LayerCount: 2
Fore
SplineSet
215 785 m 1,0,1
 207 952 207 952 201 1117.5 c 128,-1,2
 195 1283 195 1283 192 1448 c 1,3,4
 240 1456 240 1456 293.5 1455 c 128,-1,5
 347 1454 347 1454 388 1448 c 1,6,7
 386 1284 386 1284 380 1116 c 128,-1,8
 374 948 374 948 366 782 c 1,9,-1
 350 376 l 1,10,11
 290 364 290 364 232 376 c 1,12,-1
 215 785 l 1,0,1
178 85 m 256,13,14
 178 110 178 110 183 131 c 128,-1,15
 188 152 188 152 200.5 167.5 c 128,-1,16
 213 183 213 183 235 192 c 128,-1,17
 257 201 257 201 291 201 c 256,18,19
 325 201 325 201 347 192 c 128,-1,20
 369 183 369 183 382 167.5 c 128,-1,21
 395 152 395 152 400.5 131 c 128,-1,22
 406 110 406 110 406 85 c 256,23,24
 406 60 406 60 400.5 39 c 128,-1,25
 395 18 395 18 382 3 c 128,-1,26
 369 -12 369 -12 347 -20.5 c 128,-1,27
 325 -29 325 -29 291 -29 c 256,28,29
 257 -29 257 -29 235 -20.5 c 128,-1,30
 213 -12 213 -12 200.5 3 c 128,-1,31
 188 18 188 18 183 39 c 128,-1,32
 178 60 178 60 178 85 c 256,13,14
EndSplineSet
EndChar

StartChar: exclamdown
Encoding: 161 161 86
Width: 584
Flags: W
LayerCount: 2
Fore
SplineSet
293 749 m 256,0,1
 259 749 259 749 237 758 c 128,-1,2
 215 767 215 767 202 782.5 c 128,-1,3
 189 798 189 798 183.5 819 c 128,-1,4
 178 840 178 840 178 865 c 256,5,6
 178 890 178 890 183.5 911 c 128,-1,7
 189 932 189 932 202 947 c 128,-1,8
 215 962 215 962 237 970.5 c 128,-1,9
 259 979 259 979 293 979 c 256,10,11
 327 979 327 979 348.5 970.5 c 128,-1,12
 370 962 370 962 383 947 c 128,-1,13
 396 932 396 932 401 911 c 128,-1,14
 406 890 406 890 406 865 c 256,15,16
 406 840 406 840 401 819 c 128,-1,17
 396 798 396 798 383 782.5 c 128,-1,18
 370 767 370 767 348.5 758 c 128,-1,19
 327 749 327 749 293 749 c 256,0,1
232 572 m 1,20,21
 293 583 293 583 354 572 c 1,22,-1
 372 163 l 2,23,24
 379 -5 379 -5 385 -170.5 c 128,-1,25
 391 -336 391 -336 395 -501 c 1,26,27
 371 -506 371 -506 344 -508.5 c 128,-1,28
 317 -511 317 -511 290.5 -510.5 c 128,-1,29
 264 -510 264 -510 239 -507.5 c 128,-1,30
 214 -505 214 -505 194 -501 c 1,31,32
 196 -337 196 -337 201.5 -168.5 c 128,-1,33
 207 0 207 0 215 165 c 1,34,-1
 232 572 l 1,20,21
EndSplineSet
EndChar

StartChar: quotedbl
Encoding: 34 34 87
Width: 751
Flags: W
LayerCount: 2
Fore
SplineSet
435 1042 m 1,0,1
 438 1075 438 1075 440.5 1114.5 c 128,-1,2
 443 1154 443 1154 445.5 1194 c 128,-1,3
 448 1234 448 1234 449.5 1270 c 128,-1,4
 451 1306 451 1306 451 1333 c 2,5,-1
 451 1448 l 1,6,7
 463 1455 463 1455 489 1457 c 128,-1,8
 515 1459 515 1459 541.5 1458 c 128,-1,9
 568 1457 568 1457 588.5 1454 c 128,-1,10
 609 1451 609 1451 609 1448 c 0,11,12
 609 1383 609 1383 602 1323 c 128,-1,13
 595 1263 595 1263 584 1210.5 c 128,-1,14
 573 1158 573 1158 559 1114 c 128,-1,15
 545 1070 545 1070 532 1037 c 1,16,-1
 435 1042 l 1,0,1
142 1042 m 1,17,18
 145 1075 145 1075 147.5 1114.5 c 128,-1,19
 150 1154 150 1154 152.5 1194 c 128,-1,20
 155 1234 155 1234 156.5 1270 c 128,-1,21
 158 1306 158 1306 158 1333 c 2,22,-1
 158 1448 l 1,23,24
 170 1455 170 1455 196 1457 c 128,-1,25
 222 1459 222 1459 248.5 1458 c 128,-1,26
 275 1457 275 1457 295.5 1454 c 128,-1,27
 316 1451 316 1451 316 1448 c 0,28,29
 316 1383 316 1383 309 1323 c 128,-1,30
 302 1263 302 1263 291 1210.5 c 128,-1,31
 280 1158 280 1158 266 1114 c 128,-1,32
 252 1070 252 1070 239 1037 c 1,33,-1
 142 1042 l 1,17,18
EndSplineSet
EndChar

StartChar: quotesingle
Encoding: 39 39 88
Width: 372
Flags: W
LayerCount: 2
Fore
SplineSet
102 1042 m 1,0,1
 104 1075 104 1075 107 1114.5 c 128,-1,2
 110 1154 110 1154 112.5 1194 c 128,-1,3
 115 1234 115 1234 116.5 1270 c 128,-1,4
 118 1306 118 1306 118 1333 c 2,5,-1
 118 1448 l 1,6,7
 130 1455 130 1455 156 1457 c 128,-1,8
 182 1459 182 1459 209 1458 c 128,-1,9
 236 1457 236 1457 256.5 1454 c 128,-1,10
 277 1451 277 1451 277 1448 c 0,11,12
 277 1383 277 1383 269.5 1323 c 128,-1,13
 262 1263 262 1263 251 1210.5 c 128,-1,14
 240 1158 240 1158 225.5 1114 c 128,-1,15
 211 1070 211 1070 198 1037 c 1,16,-1
 102 1042 l 1,0,1
EndSplineSet
EndChar

StartChar: dollar
Encoding: 36 36 89
Width: 947
Flags: W
LayerCount: 2
Fore
SplineSet
153 302 m 1,0,-1
 250 305 l 1,1,2
 255 285 255 285 258.5 263 c 128,-1,3
 262 241 262 241 264 219 c 128,-1,4
 266 197 266 197 267 177 c 128,-1,5
 268 157 268 157 269 142 c 1,6,7
 290 131 290 131 309 121 c 128,-1,8
 328 111 328 111 348 103 c 128,-1,9
 368 95 368 95 390.5 89 c 128,-1,10
 413 83 413 83 442 80 c 1,11,-1
 442 456 l 1,12,13
 404 473 404 473 367.5 488.5 c 128,-1,14
 331 504 331 504 305 515 c 0,15,16
 224 547 224 547 187.5 607 c 128,-1,17
 151 667 151 667 151 756 c 0,18,19
 151 812 151 812 168 862 c 128,-1,20
 185 912 185 912 220 950.5 c 128,-1,21
 255 989 255 989 310 1014 c 128,-1,22
 365 1039 365 1039 442 1046 c 1,23,-1
 442 1196 l 1,24,25
 451 1198 451 1198 462.5 1199 c 128,-1,26
 474 1200 474 1200 487 1200 c 128,-1,27
 500 1200 500 1200 512 1199 c 128,-1,28
 524 1198 524 1198 534 1196 c 1,29,-1
 534 1049 l 1,30,31
 558 1048 558 1048 589.5 1046.5 c 128,-1,32
 621 1045 621 1045 657.5 1041 c 128,-1,33
 694 1037 694 1037 734 1030 c 128,-1,34
 774 1023 774 1023 816 1012 c 1,35,36
 815 995 815 995 813.5 964.5 c 128,-1,37
 812 934 812 934 807.5 896.5 c 128,-1,38
 803 859 803 859 794.5 817 c 128,-1,39
 786 775 786 775 771 735 c 1,40,-1
 681 740 l 1,41,-1
 669 905 l 1,42,43
 646 919 646 919 609 928.5 c 128,-1,44
 572 938 572 938 534 943 c 1,45,-1
 534 594 l 1,46,47
 572 578 572 578 616.5 558 c 128,-1,48
 661 538 661 538 713 510 c 0,49,50
 846 439 846 439 846 288 c 0,51,52
 846 228 846 228 831 182.5 c 128,-1,53
 816 137 816 137 791 103 c 128,-1,54
 766 69 766 69 733.5 46 c 128,-1,55
 701 23 701 23 666 8 c 128,-1,56
 631 -7 631 -7 597 -15 c 128,-1,57
 563 -23 563 -23 534 -26 c 1,58,-1
 534 -167 l 1,59,60
 524 -170 524 -170 510 -171 c 128,-1,61
 496 -172 496 -172 482.5 -172 c 128,-1,62
 469 -172 469 -172 457.5 -170.5 c 128,-1,63
 446 -169 446 -169 442 -167 c 1,64,-1
 442 -28 l 1,65,66
 395 -25 395 -25 347 -17 c 128,-1,67
 299 -9 299 -9 256 1.5 c 128,-1,68
 213 12 213 12 176.5 25 c 128,-1,69
 140 38 140 38 115 52 c 1,70,-1
 153 302 l 1,0,-1
395 652 m 0,71,72
 406 647 406 647 417.5 641.5 c 128,-1,73
 429 636 429 636 442 631 c 1,74,-1
 442 944 l 1,75,76
 373 935 373 935 337.5 892.5 c 128,-1,77
 302 850 302 850 302 787 c 0,78,79
 302 767 302 767 305.5 748.5 c 128,-1,80
 309 730 309 730 319 713.5 c 128,-1,81
 329 697 329 697 347 681.5 c 128,-1,82
 365 666 365 666 395 652 c 0,71,72
534 81 m 1,83,84
 590 92 590 92 627 128.5 c 128,-1,85
 664 165 664 165 674 219 c 0,86,87
 677 240 677 240 676.5 262.5 c 128,-1,88
 676 285 676 285 669 306 c 128,-1,89
 662 327 662 327 648 344.5 c 128,-1,90
 634 362 634 362 612 374 c 0,91,92
 596 382 596 382 576.5 392 c 128,-1,93
 557 402 557 402 534 413 c 1,94,-1
 534 81 l 1,83,84
EndSplineSet
EndChar

StartChar: Euro
Encoding: 8364 8364 90
Width: 1031
Flags: W
LayerCount: 2
Fore
SplineSet
52 442 m 1,0,-1
 168 442 l 1,1,2
 167 453 167 453 167 465 c 128,-1,3
 167 477 167 477 167 489 c 0,4,5
 167 504 167 504 167 518.5 c 128,-1,6
 167 533 167 533 168 548 c 1,7,-1
 59 548 l 1,8,-1
 63 652 l 1,9,-1
 177 652 l 1,10,11
 190 745 190 745 220.5 818.5 c 128,-1,12
 251 892 251 892 303 944 c 128,-1,13
 355 996 355 996 429.5 1023.5 c 128,-1,14
 504 1051 504 1051 605 1051 c 0,15,16
 638 1051 638 1051 677 1049 c 128,-1,17
 716 1047 716 1047 758 1041 c 128,-1,18
 800 1035 800 1035 842.5 1024.5 c 128,-1,19
 885 1014 885 1014 924 997 c 1,20,21
 927 969 927 969 924 934 c 128,-1,22
 921 899 921 899 915.5 864 c 128,-1,23
 910 829 910 829 903 798 c 128,-1,24
 896 767 896 767 891 747 c 1,25,26
 862 747 862 747 839 747.5 c 128,-1,27
 816 748 816 748 787 751 c 1,28,-1
 773 905 l 1,29,30
 744 918 744 918 713 926 c 128,-1,31
 682 934 682 934 654 937.5 c 128,-1,32
 626 941 626 941 604 942 c 128,-1,33
 582 943 582 943 572 943 c 0,34,35
 473 941 473 941 420 871.5 c 128,-1,36
 367 802 367 802 352 652 c 1,37,-1
 690 652 l 1,38,39
 694 631 694 631 694 600.5 c 128,-1,40
 694 570 694 570 690 548 c 1,41,-1
 345 548 l 1,42,-1
 345 505 l 2,43,44
 345 488 345 488 345 472.5 c 128,-1,45
 345 457 345 457 346 442 c 1,46,-1
 679 442 l 1,47,48
 682 420 682 420 682 389.5 c 128,-1,49
 682 359 682 359 679 338 c 1,50,-1
 357 338 l 1,51,52
 379 216 379 216 447.5 161 c 128,-1,53
 516 106 516 106 647 106 c 0,54,55
 693 106 693 106 737.5 116.5 c 128,-1,56
 782 127 782 127 818 139.5 c 128,-1,57
 854 152 854 152 877 163 c 128,-1,58
 900 174 900 174 902 175 c 1,59,-1
 945 85 l 1,60,61
 937 79 937 79 908.5 60.5 c 128,-1,62
 880 42 880 42 834 22 c 128,-1,63
 788 2 788 2 727.5 -13.5 c 128,-1,64
 667 -29 667 -29 595 -29 c 256,65,66
 523 -29 523 -29 455 -14 c 128,-1,67
 387 1 387 1 331 42 c 128,-1,68
 275 83 275 83 234.5 154 c 128,-1,69
 194 225 194 225 177 338 c 1,70,-1
 47 338 l 1,71,-1
 52 442 l 1,0,-1
EndSplineSet
EndChar

StartChar: cent
Encoding: 162 162 91
Width: 943
Flags: W
LayerCount: 2
Fore
SplineSet
480 22 m 1,0,1
 405 26 405 26 336.5 48 c 128,-1,2
 268 70 268 70 216.5 124.5 c 128,-1,3
 165 179 165 179 134.5 273 c 128,-1,4
 104 367 104 367 104 515 c 0,5,6
 104 624 104 624 127.5 714 c 128,-1,7
 151 804 151 804 198 870 c 128,-1,8
 245 936 245 936 315.5 975.5 c 128,-1,9
 386 1015 386 1015 480 1025 c 1,10,-1
 480 1198 l 1,11,12
 489 1201 489 1201 500.5 1202 c 128,-1,13
 512 1203 512 1203 525 1203 c 128,-1,14
 538 1203 538 1203 550 1202 c 128,-1,15
 562 1201 562 1201 572 1198 c 1,16,-1
 572 1028 l 1,17,18
 604 1027 604 1027 640 1024 c 128,-1,19
 676 1021 676 1021 713 1015 c 128,-1,20
 750 1009 750 1009 787 999 c 128,-1,21
 824 989 824 989 859 974 c 1,22,23
 862 945 862 945 858.5 907 c 128,-1,24
 855 869 855 869 848.5 830 c 128,-1,25
 842 791 842 791 835 756.5 c 128,-1,26
 828 722 828 722 823 702 c 1,27,28
 794 702 794 702 774 702.5 c 128,-1,29
 754 703 754 703 726 707 c 1,30,-1
 708 882 l 1,31,32
 675 898 675 898 639 905.5 c 128,-1,33
 603 913 603 913 572 916 c 1,34,-1
 572 156 l 1,35,-1
 584 156 l 2,36,37
 629 156 629 156 673.5 166.5 c 128,-1,38
 718 177 718 177 754 189.5 c 128,-1,39
 790 202 790 202 813 213 c 128,-1,40
 836 224 836 224 839 225 c 1,41,-1
 881 135 l 1,42,43
 873 130 873 130 847.5 113.5 c 128,-1,44
 822 97 822 97 782 78 c 128,-1,45
 742 59 742 59 688.5 43 c 128,-1,46
 635 27 635 27 572 22 c 1,47,-1
 572 -170 l 1,48,49
 562 -173 562 -173 548 -174 c 128,-1,50
 534 -175 534 -175 520.5 -175 c 128,-1,51
 507 -175 507 -175 495.5 -173.5 c 128,-1,52
 484 -172 484 -172 480 -170 c 1,53,-1
 480 22 l 1,0,1
480 919 m 1,54,55
 432 914 432 914 395 891 c 128,-1,56
 358 868 358 868 332.5 822 c 128,-1,57
 307 776 307 776 294 705 c 128,-1,58
 281 634 281 634 281 532 c 0,59,60
 281 443 281 443 291.5 379 c 128,-1,61
 302 315 302 315 325 270.5 c 128,-1,62
 348 226 348 226 386 200.5 c 128,-1,63
 424 175 424 175 480 164 c 1,64,-1
 480 919 l 1,54,55
EndSplineSet
EndChar

StartChar: yen
Encoding: 165 165 92
Width: 1106
Flags: W
LayerCount: 2
Fore
SplineSet
309 83 m 1,0,1
 351 92 351 92 387.5 95.5 c 128,-1,2
 424 99 424 99 465 104 c 1,3,-1
 465 234 l 1,4,-1
 248 234 l 1,5,-1
 248 329 l 1,6,-1
 465 329 l 1,7,-1
 465 449 l 1,8,-1
 246 449 l 1,9,-1
 246 544 l 1,10,-1
 412 544 l 1,11,-1
 142 922 l 1,12,-1
 50 941 l 1,13,14
 48 962 48 962 49.5 982 c 128,-1,15
 51 1002 51 1002 54 1024 c 1,16,-1
 456 1024 l 1,17,18
 459 1002 459 1002 459.5 981 c 128,-1,19
 460 960 460 960 460 938 c 1,20,-1
 338 922 l 1,21,-1
 520 664 l 1,22,-1
 584 550 l 1,23,-1
 640 657 l 1,24,-1
 834 922 l 1,25,-1
 692 938 l 1,26,27
 689 979 689 979 697 1024 c 1,28,-1
 1035 1024 l 1,29,30
 1039 1002 1039 1002 1039.5 982 c 128,-1,31
 1040 962 1040 962 1040 941 c 1,32,-1
 965 922 l 1,33,-1
 694 544 l 1,34,-1
 875 544 l 1,35,36
 878 522 878 522 878 496.5 c 128,-1,37
 878 471 878 471 875 449 c 1,38,-1
 634 449 l 1,39,-1
 634 329 l 1,40,-1
 877 329 l 1,41,42
 881 307 881 307 881 281 c 128,-1,43
 881 255 881 255 877 234 c 1,44,-1
 634 234 l 1,45,-1
 634 104 l 1,46,47
 675 99 675 99 711.5 94.5 c 128,-1,48
 748 90 748 90 789 83 c 1,49,50
 796 42 796 42 789 0 c 1,51,-1
 316 0 l 1,52,-1
 309 83 l 1,0,1
EndSplineSet
EndChar

StartChar: zero
Encoding: 48 48 93
Width: 1302
Flags: W
LayerCount: 2
Fore
SplineSet
140 510 m 256,0,1
 140 622 140 622 173.5 721 c 128,-1,2
 207 820 207 820 275 893 c 128,-1,3
 343 966 343 966 445.5 1008.5 c 128,-1,4
 548 1051 548 1051 685 1051 c 0,5,6
 823 1051 823 1051 914.5 1010 c 128,-1,7
 1006 969 1006 969 1060.5 897 c 128,-1,8
 1115 825 1115 825 1137 727 c 128,-1,9
 1159 629 1159 629 1159 515 c 256,10,11
 1159 401 1159 401 1124 302 c 128,-1,12
 1089 203 1089 203 1019.5 129.5 c 128,-1,13
 950 56 950 56 846.5 13.5 c 128,-1,14
 743 -29 743 -29 605 -29 c 256,15,16
 467 -29 467 -29 377 13.5 c 128,-1,17
 287 56 287 56 234.5 129 c 128,-1,18
 182 202 182 202 161 300 c 128,-1,19
 140 398 140 398 140 510 c 256,0,1
322 512 m 256,20,21
 322 382 322 382 347 298.5 c 128,-1,22
 372 215 372 215 415.5 167 c 128,-1,23
 459 119 459 119 518.5 101 c 128,-1,24
 578 83 578 83 647 83 c 0,25,26
 710 83 710 83 769 101 c 128,-1,27
 828 119 828 119 874 167 c 128,-1,28
 920 215 920 215 948 298.5 c 128,-1,29
 976 382 976 382 976 512 c 256,30,31
 976 642 976 642 950.5 725.5 c 128,-1,32
 925 809 925 809 881 857 c 128,-1,33
 837 905 837 905 776.5 923 c 128,-1,34
 716 941 716 941 647 941 c 0,35,36
 585 941 585 941 526.5 923 c 128,-1,37
 468 905 468 905 422.5 857 c 128,-1,38
 377 809 377 809 349.5 725.5 c 128,-1,39
 322 642 322 642 322 512 c 256,20,21
EndSplineSet
EndChar

StartChar: one
Encoding: 49 49 94
Width: 787
Flags: W
LayerCount: 2
Fore
SplineSet
140 90 m 1,0,1
 161 93 161 93 188.5 97 c 128,-1,2
 216 101 216 101 243.5 104.5 c 128,-1,3
 271 108 271 108 296 110.5 c 128,-1,4
 321 113 321 113 336 115 c 1,5,-1
 336 902 l 1,6,-1
 108 905 l 1,7,-1
 97 990 l 1,8,9
 134 1003 134 1003 188.5 1014.5 c 128,-1,10
 243 1026 243 1026 298 1034 c 128,-1,11
 353 1042 353 1042 401 1046.5 c 128,-1,12
 449 1051 449 1051 473 1049 c 1,13,-1
 503 1024 l 1,14,-1
 503 115 l 1,15,16
 544 110 544 110 592 103.5 c 128,-1,17
 640 97 640 97 681 90 c 1,18,19
 684 68 684 68 681 45 c 128,-1,20
 678 22 678 22 674 0 c 1,21,-1
 147 0 l 1,22,-1
 140 90 l 1,0,1
EndSplineSet
EndChar

StartChar: two
Encoding: 50 50 95
Width: 990
Flags: W
LayerCount: 2
Fore
SplineSet
133 0 m 1,0,1
 126 11 126 11 120.5 28 c 128,-1,2
 115 45 115 45 111 64 c 128,-1,3
 107 83 107 83 104.5 101 c 128,-1,4
 102 119 102 119 102 133 c 1,5,6
 145 168 145 168 206.5 217.5 c 128,-1,7
 268 267 268 267 333 324 c 128,-1,8
 398 381 398 381 459 441.5 c 128,-1,9
 520 502 520 502 562 560 c 1,10,11
 591 597 591 597 610 643 c 128,-1,12
 629 689 629 689 627 749 c 0,13,14
 626 798 626 798 614.5 830 c 128,-1,15
 603 862 603 862 579.5 881.5 c 128,-1,16
 556 901 556 901 520 909 c 128,-1,17
 484 917 484 917 433 917 c 0,18,19
 388 917 388 917 350.5 909 c 128,-1,20
 313 901 313 901 281.5 890 c 128,-1,21
 250 879 250 879 225.5 866.5 c 128,-1,22
 201 854 201 854 182 844 c 1,23,-1
 120 938 l 1,24,25
 126 945 126 945 154.5 963.5 c 128,-1,26
 183 982 183 982 227 1001.5 c 128,-1,27
 271 1021 271 1021 327.5 1036 c 128,-1,28
 384 1051 384 1051 447 1051 c 0,29,30
 546 1051 546 1051 617.5 1031.5 c 128,-1,31
 689 1012 689 1012 733.5 970.5 c 128,-1,32
 778 929 778 929 796.5 864 c 128,-1,33
 815 799 815 799 808 709 c 0,34,35
 804 655 804 655 771.5 596 c 128,-1,36
 739 537 739 537 690 478 c 128,-1,37
 641 419 641 419 580 362.5 c 128,-1,38
 519 306 519 306 458 257 c 128,-1,39
 397 208 397 208 341.5 169 c 128,-1,40
 286 130 286 130 248 106 c 1,41,-1
 688 122 l 1,42,-1
 724 277 l 1,43,44
 754 279 754 279 783.5 277.5 c 128,-1,45
 813 276 813 276 839 272 c 1,46,47
 840 251 840 251 839 216.5 c 128,-1,48
 838 182 838 182 836.5 143.5 c 128,-1,49
 835 105 835 105 832.5 66.5 c 128,-1,50
 830 28 830 28 827 0 c 1,51,-1
 133 0 l 1,0,1
EndSplineSet
EndChar

StartChar: three
Encoding: 51 51 96
Width: 893
Flags: W
LayerCount: 2
Fore
SplineSet
92 -151 m 1,0,1
 152 -151 152 -151 212.5 -143 c 128,-1,2
 273 -135 273 -135 329.5 -117 c 128,-1,3
 386 -99 386 -99 435.5 -71 c 128,-1,4
 485 -43 485 -43 521.5 -2.5 c 128,-1,5
 558 38 558 38 579 91 c 128,-1,6
 600 144 600 144 600 212 c 0,7,8
 600 245 600 245 592.5 283 c 128,-1,9
 585 321 585 321 557.5 354 c 128,-1,10
 530 387 530 387 475 408.5 c 128,-1,11
 420 430 420 430 324 430 c 2,12,-1
 219 430 l 1,13,14
 212 446 212 446 208.5 461.5 c 128,-1,15
 205 477 205 477 205 503 c 1,16,17
 252 519 252 519 307 547 c 128,-1,18
 362 575 362 575 409 612.5 c 128,-1,19
 456 650 456 650 487 695.5 c 128,-1,20
 518 741 518 741 518 792 c 0,21,22
 518 861 518 861 473 889 c 128,-1,23
 428 917 428 917 347 917 c 0,24,25
 312 917 312 917 280 911 c 128,-1,26
 248 905 248 905 219 896 c 128,-1,27
 190 887 190 887 165.5 876 c 128,-1,28
 141 865 141 865 122 855 c 1,29,-1
 63 947 l 1,30,31
 70 954 70 954 93 971.5 c 128,-1,32
 116 989 116 989 154.5 1006.5 c 128,-1,33
 193 1024 193 1024 246.5 1037.5 c 128,-1,34
 300 1051 300 1051 366 1051 c 0,35,36
 533 1051 533 1051 611.5 992 c 128,-1,37
 690 933 690 933 690 803 c 0,38,39
 690 758 690 758 671 716 c 128,-1,40
 652 674 652 674 620.5 638.5 c 128,-1,41
 589 603 589 603 546.5 575 c 128,-1,42
 504 547 504 547 458 530 c 1,43,44
 554 522 554 522 615 496 c 128,-1,45
 676 470 676 470 711 430 c 128,-1,46
 746 390 746 390 759.5 339.5 c 128,-1,47
 773 289 773 289 773 232 c 0,48,49
 773 144 773 144 748 74.5 c 128,-1,50
 723 5 723 5 678.5 -47.5 c 128,-1,51
 634 -100 634 -100 573.5 -136.5 c 128,-1,52
 513 -173 513 -173 441 -195.5 c 128,-1,53
 369 -218 369 -218 289.5 -228.5 c 128,-1,54
 210 -239 210 -239 128 -239 c 2,55,-1
 99 -239 l 1,56,57
 94 -224 94 -224 92 -207 c 128,-1,58
 90 -190 90 -190 90 -182 c 0,59,60
 90 -179 90 -179 90 -168.5 c 128,-1,61
 90 -158 90 -158 92 -151 c 1,0,1
EndSplineSet
EndChar

StartChar: five
Encoding: 53 53 97
Width: 917
Flags: W
LayerCount: 2
Fore
SplineSet
104 -151 m 1,0,1
 149 -151 149 -151 202 -144 c 128,-1,2
 255 -137 255 -137 307.5 -123.5 c 128,-1,3
 360 -110 360 -110 407 -89 c 128,-1,4
 454 -68 454 -68 489 -40 c 0,5,6
 555 12 555 12 583 81 c 128,-1,7
 611 150 611 150 609 243 c 0,8,9
 608 296 608 296 595.5 335 c 128,-1,10
 583 374 583 374 555 399.5 c 128,-1,11
 527 425 527 425 482.5 437 c 128,-1,12
 438 449 438 449 374 449 c 0,13,14
 359 449 359 449 341.5 448.5 c 128,-1,15
 324 448 324 448 300.5 446.5 c 128,-1,16
 277 445 277 445 245 441.5 c 128,-1,17
 213 438 213 438 170 433 c 1,18,-1
 153 444 l 1,19,-1
 187 1026 l 1,20,-1
 749 1049 l 1,21,22
 751 1037 751 1037 752 1018.5 c 128,-1,23
 753 1000 753 1000 752.5 980 c 128,-1,24
 752 960 752 960 750 940.5 c 128,-1,25
 748 921 748 921 744 907 c 1,26,-1
 322 913 l 1,27,-1
 293 553 l 1,28,29
 353 564 353 564 398.5 567 c 128,-1,30
 444 570 444 570 471 570 c 0,31,32
 622 570 622 570 707 492 c 128,-1,33
 792 414 792 414 792 250 c 0,34,35
 792 156 792 156 767.5 83 c 128,-1,36
 743 10 743 10 699 -44 c 128,-1,37
 655 -98 655 -98 593.5 -135.5 c 128,-1,38
 532 -173 532 -173 459 -196 c 128,-1,39
 386 -219 386 -219 303 -229 c 128,-1,40
 220 -239 220 -239 133 -239 c 2,41,-1
 111 -239 l 1,42,43
 106 -224 106 -224 104 -207 c 128,-1,44
 102 -190 102 -190 102 -182 c 0,45,46
 102 -179 102 -179 102 -168.5 c 128,-1,47
 102 -158 102 -158 104 -151 c 1,0,1
EndSplineSet
EndChar

StartChar: seven
Encoding: 55 55 98
Width: 999
Flags: W
LayerCount: 2
Fore
SplineSet
225 -189 m 1,0,1
 295 4 295 4 372 172 c 128,-1,2
 449 340 449 340 521.5 477.5 c 128,-1,3
 594 615 594 615 657.5 719.5 c 128,-1,4
 721 824 721 824 766 891 c 1,5,-1
 267 891 l 1,6,-1
 246 719 l 1,7,8
 215 717 215 717 185 718.5 c 128,-1,9
 155 720 155 720 130 724 c 1,10,11
 129 743 129 743 127 778.5 c 128,-1,12
 125 814 125 814 123 855.5 c 128,-1,13
 121 897 121 897 120 938 c 128,-1,14
 119 979 119 979 122 1009 c 0,15,16
 122 1013 122 1013 124 1016.5 c 128,-1,17
 126 1020 126 1020 126 1024 c 1,18,-1
 863 1024 l 1,19,20
 870 1014 870 1014 878 1000 c 128,-1,21
 886 986 886 986 892.5 971 c 128,-1,22
 899 956 899 956 903 941 c 128,-1,23
 907 926 907 926 907 913 c 1,24,25
 865 840 865 840 806.5 731.5 c 128,-1,26
 748 623 748 623 680 479 c 128,-1,27
 612 335 612 335 537.5 155.5 c 128,-1,28
 463 -24 463 -24 390 -239 c 1,29,30
 368 -239 368 -239 343 -234.5 c 128,-1,31
 318 -230 318 -230 295 -222.5 c 128,-1,32
 272 -215 272 -215 253 -206.5 c 128,-1,33
 234 -198 234 -198 225 -189 c 1,0,1
EndSplineSet
EndChar

StartChar: four
Encoding: 52 52 99
Width: 1085
Flags: W
LayerCount: 2
Fore
SplineSet
66 175 m 1,0,1
 146 311 146 311 216.5 429.5 c 128,-1,2
 287 548 287 548 354.5 658.5 c 128,-1,3
 422 769 422 769 490.5 875 c 128,-1,4
 559 981 559 981 634 1094 c 1,5,6
 651 1093 651 1093 671.5 1086 c 128,-1,7
 692 1079 692 1079 713 1067 c 128,-1,8
 734 1055 734 1055 753.5 1038 c 128,-1,9
 773 1021 773 1021 787 1002 c 1,10,11
 706 894 706 894 633 792.5 c 128,-1,12
 560 691 560 691 490.5 591.5 c 128,-1,13
 421 492 421 492 353.5 391.5 c 128,-1,14
 286 291 286 291 215 185 c 1,15,-1
 652 196 l 1,16,-1
 652 602 l 1,17,-1
 801 638 l 1,18,-1
 823 617 l 1,19,-1
 823 196 l 1,20,-1
 967 201 l 1,21,22
 970 191 970 191 971 173.5 c 128,-1,23
 972 156 972 156 971.5 137 c 128,-1,24
 971 118 971 118 970 101 c 128,-1,25
 969 84 969 84 967 76 c 1,26,-1
 823 76 l 1,27,-1
 823 -210 l 1,28,29
 809 -213 809 -213 784.5 -214 c 128,-1,30
 760 -215 760 -215 734 -214.5 c 128,-1,31
 708 -214 708 -214 685 -213 c 128,-1,32
 662 -212 662 -212 652 -210 c 1,33,-1
 652 76 l 1,34,-1
 115 76 l 1,35,-1
 66 175 l 1,0,1
EndSplineSet
EndChar

StartChar: eogonek
Encoding: 281 281 100
Width: 1017
Flags: W
LayerCount: 2
Fore
SplineSet
107 430 m 0,0,1
 106 576 106 576 136.5 680 c 128,-1,2
 167 784 167 784 223 850.5 c 128,-1,3
 279 917 279 917 359.5 948 c 128,-1,4
 440 979 440 979 540 979 c 0,5,6
 649 979 649 979 719 953.5 c 128,-1,7
 789 928 789 928 829 873.5 c 128,-1,8
 869 819 869 819 884.5 734 c 128,-1,9
 900 649 900 649 899 530 c 1,10,-1
 279 525 l 1,11,12
 279 454 279 454 281.5 395 c 128,-1,13
 284 336 284 336 294.5 288.5 c 128,-1,14
 305 241 305 241 325 205.5 c 128,-1,15
 345 170 345 170 380.5 146.5 c 128,-1,16
 416 123 416 123 468.5 111 c 128,-1,17
 521 99 521 99 596 99 c 0,18,19
 634 99 634 99 678.5 106 c 128,-1,20
 723 113 723 113 762.5 122 c 128,-1,21
 802 131 802 131 830.5 139.5 c 128,-1,22
 859 148 859 148 867 151 c 1,23,-1
 892 88 l 1,24,-1
 902 66 l 1,25,-1
 891 57 l 1,26,-1
 823 0 l 1,27,28
 791 -29 791 -29 758 -59 c 128,-1,29
 725 -89 725 -89 698.5 -119.5 c 128,-1,30
 672 -150 672 -150 655 -180.5 c 128,-1,31
 638 -211 638 -211 638 -242 c 0,32,33
 638 -264 638 -264 652.5 -281 c 128,-1,34
 667 -298 667 -298 706 -298 c 0,35,36
 718 -298 718 -298 731 -295.5 c 128,-1,37
 744 -293 744 -293 756.5 -289.5 c 128,-1,38
 769 -286 769 -286 779.5 -282.5 c 128,-1,39
 790 -279 790 -279 796 -276 c 1,40,-1
 837 -364 l 1,41,42
 819 -374 819 -374 797.5 -385 c 128,-1,43
 776 -396 776 -396 751 -405 c 128,-1,44
 726 -414 726 -414 697.5 -419.5 c 128,-1,45
 669 -425 669 -425 638 -425 c 0,46,47
 612 -425 612 -425 586 -417 c 128,-1,48
 560 -409 560 -409 539 -392.5 c 128,-1,49
 518 -376 518 -376 505 -349.5 c 128,-1,50
 492 -323 492 -323 492 -287 c 0,51,52
 492 -243 492 -243 507.5 -205.5 c 128,-1,53
 523 -168 523 -168 550 -135 c 128,-1,54
 577 -102 577 -102 612.5 -72.5 c 128,-1,55
 648 -43 648 -43 688 -16 c 1,56,-1
 692 -13 l 1,57,58
 659 -20 659 -20 621.5 -24.5 c 128,-1,59
 584 -29 584 -29 542 -29 c 0,60,61
 449 -29 449 -29 369.5 -12.5 c 128,-1,62
 290 4 290 4 232 53 c 128,-1,63
 174 102 174 102 141 192 c 128,-1,64
 108 282 108 282 107 430 c 0,0,1
727 638 m 1,65,66
 725 723 725 723 705.5 771 c 128,-1,67
 686 819 686 819 657.5 842.5 c 128,-1,68
 629 866 629 866 596 871.5 c 128,-1,69
 563 877 563 877 533 877 c 0,70,71
 468 877 468 877 423.5 862.5 c 128,-1,72
 379 848 379 848 350 817 c 128,-1,73
 321 786 321 786 306 737.5 c 128,-1,74
 291 689 291 689 285 622 c 1,75,-1
 727 638 l 1,65,66
EndSplineSet
EndChar

StartChar: Aogonek
Encoding: 260 260 101
Width: 1484
Flags: W
LayerCount: 2
Fore
SplineSet
56 90 m 1,0,1
 63 93 63 93 75.5 97 c 128,-1,2
 88 101 88 101 102.5 104.5 c 128,-1,3
 117 108 117 108 132 111.5 c 128,-1,4
 147 115 147 115 159 118 c 1,5,-1
 613 1448 l 1,6,7
 638 1452 638 1452 666.5 1453.5 c 128,-1,8
 695 1455 695 1455 722.5 1455 c 128,-1,9
 750 1455 750 1455 776 1453 c 128,-1,10
 802 1451 802 1451 823 1448 c 1,11,-1
 1291 113 l 1,12,-1
 1396 90 l 1,13,-1
 1386 0 l 1,14,-1
 1297 0 l 1,15,16
 1265 -29 1265 -29 1232.5 -59 c 128,-1,17
 1200 -89 1200 -89 1173.5 -119.5 c 128,-1,18
 1147 -150 1147 -150 1130 -180.5 c 128,-1,19
 1113 -211 1113 -211 1113 -242 c 0,20,21
 1113 -264 1113 -264 1127.5 -281 c 128,-1,22
 1142 -298 1142 -298 1181 -298 c 0,23,24
 1193 -298 1193 -298 1206 -295.5 c 128,-1,25
 1219 -293 1219 -293 1231.5 -289.5 c 128,-1,26
 1244 -286 1244 -286 1254.5 -282.5 c 128,-1,27
 1265 -279 1265 -279 1271 -276 c 1,28,-1
 1311 -364 l 1,29,30
 1293 -374 1293 -374 1271.5 -385 c 128,-1,31
 1250 -396 1250 -396 1225.5 -405 c 128,-1,32
 1201 -414 1201 -414 1172.5 -419.5 c 128,-1,33
 1144 -425 1144 -425 1113 -425 c 0,34,35
 1086 -425 1086 -425 1059.5 -417 c 128,-1,36
 1033 -409 1033 -409 1012.5 -392.5 c 128,-1,37
 992 -376 992 -376 979 -349.5 c 128,-1,38
 966 -323 966 -323 966 -287 c 0,39,40
 966 -243 966 -243 981.5 -205.5 c 128,-1,41
 997 -168 997 -168 1024 -135 c 128,-1,42
 1051 -102 1051 -102 1086.5 -72.5 c 128,-1,43
 1122 -43 1122 -43 1162 -16 c 1,44,-1
 1190 0 l 1,45,-1
 918 0 l 1,46,-1
 909 90 l 1,47,48
 929 95 929 95 954 100 c 128,-1,49
 979 105 979 105 1005.5 109 c 128,-1,50
 1032 113 1032 113 1057 116 c 128,-1,51
 1082 119 1082 119 1102 122 c 1,52,-1
 974 496 l 1,53,-1
 433 496 l 1,54,-1
 308 122 l 1,55,-1
 313 122 l 1,56,-1
 516 90 l 1,57,-1
 507 0 l 1,58,-1
 67 0 l 1,59,-1
 56 90 l 1,0,1
937 612 m 1,60,-1
 717 1247 l 1,61,-1
 699 1310 l 1,62,-1
 674 1202 l 1,63,-1
 474 612 l 1,64,-1
 937 612 l 1,60,-1
EndSplineSet
EndChar

StartChar: Eogonek
Encoding: 280 280 102
Width: 1252
Flags: W
LayerCount: 2
Fore
SplineSet
80 90 m 1,0,1
 118 104 118 104 162 109.5 c 128,-1,2
 206 115 206 115 247 120 c 1,3,-1
 247 1328 l 1,4,-1
 86 1359 l 1,5,6
 84 1364 84 1364 84 1375.5 c 128,-1,7
 84 1387 84 1387 84 1394 c 0,8,9
 84 1409 84 1409 88 1425 c 128,-1,10
 92 1441 92 1441 96 1448 c 1,11,-1
 1105 1448 l 1,12,-1
 1119 1432 l 1,13,14
 1120 1394 1120 1394 1116 1344.5 c 128,-1,15
 1112 1295 1112 1295 1105.5 1246 c 128,-1,16
 1099 1197 1099 1197 1092 1155.5 c 128,-1,17
 1085 1114 1085 1114 1079 1092 c 1,18,19
 1056 1087 1056 1087 1027.5 1087.5 c 128,-1,20
 999 1088 999 1088 970 1092 c 1,21,-1
 952 1331 l 1,22,-1
 427 1331 l 1,23,-1
 427 808 l 1,24,-1
 925 814 l 1,25,26
 930 785 930 785 927 748 c 128,-1,27
 924 711 924 711 919 679 c 1,28,-1
 427 690 l 1,29,-1
 427 120 l 1,30,-1
 999 120 l 1,31,-1
 1065 343 l 1,32,33
 1094 345 1094 345 1123.5 343 c 128,-1,34
 1153 341 1153 341 1176 334 c 1,35,36
 1175 299 1175 299 1172.5 256 c 128,-1,37
 1170 213 1170 213 1166 169.5 c 128,-1,38
 1162 126 1162 126 1158 86 c 128,-1,39
 1154 46 1154 46 1150 16 c 1,40,-1
 1129 0 l 2,41,42
 1094 -26 1094 -26 1061 -55.5 c 128,-1,43
 1028 -85 1028 -85 1002 -116.5 c 128,-1,44
 976 -148 976 -148 960 -179.5 c 128,-1,45
 944 -211 944 -211 944 -242 c 0,46,47
 944 -264 944 -264 959.5 -281 c 128,-1,48
 975 -298 975 -298 1014 -298 c 0,49,50
 1025 -298 1025 -298 1038 -295.5 c 128,-1,51
 1051 -293 1051 -293 1063.5 -289.5 c 128,-1,52
 1076 -286 1076 -286 1086.5 -282.5 c 128,-1,53
 1097 -279 1097 -279 1103 -276 c 1,54,-1
 1143 -364 l 1,55,56
 1125 -374 1125 -374 1103.5 -385 c 128,-1,57
 1082 -396 1082 -396 1057 -405 c 128,-1,58
 1032 -414 1032 -414 1003.5 -419.5 c 128,-1,59
 975 -425 975 -425 944 -425 c 0,60,61
 918 -425 918 -425 892 -417 c 128,-1,62
 866 -409 866 -409 845 -392.5 c 128,-1,63
 824 -376 824 -376 811 -349.5 c 128,-1,64
 798 -323 798 -323 798 -287 c 0,65,66
 798 -243 798 -243 813.5 -205.5 c 128,-1,67
 829 -168 829 -168 856 -135 c 128,-1,68
 883 -102 883 -102 918.5 -72.5 c 128,-1,69
 954 -43 954 -43 994 -16 c 1,70,-1
 1023 0 l 1,71,-1
 89 0 l 1,72,-1
 80 90 l 1,0,1
EndSplineSet
EndChar

StartChar: bracketleft
Encoding: 91 91 103
Width: 614
Flags: W
LayerCount: 2
Fore
SplineSet
331 -364 m 1,0,1
 351 -367 351 -367 385 -369.5 c 128,-1,2
 419 -372 419 -372 455 -374 c 128,-1,3
 491 -376 491 -376 525 -379 c 128,-1,4
 559 -382 559 -382 579 -385 c 1,5,6
 583 -406 583 -406 583 -431 c 128,-1,7
 583 -456 583 -456 579 -478 c 1,8,-1
 182 -478 l 1,9,-1
 182 1756 l 1,10,-1
 579 1756 l 1,11,12
 583 1735 583 1735 583 1710 c 128,-1,13
 583 1685 583 1685 579 1664 c 1,14,15
 559 1661 559 1661 525 1658 c 128,-1,16
 491 1655 491 1655 455 1652.5 c 128,-1,17
 419 1650 419 1650 385 1647.5 c 128,-1,18
 351 1645 351 1645 331 1642 c 1,19,-1
 331 -364 l 1,0,1
EndSplineSet
EndChar

StartChar: bracketright
Encoding: 93 93 104
Width: 629
Flags: W
LayerCount: 2
Fore
SplineSet
54 -385 m 1,0,1
 74 -382 74 -382 108 -379 c 128,-1,2
 142 -376 142 -376 178 -374 c 128,-1,3
 214 -372 214 -372 248 -369.5 c 128,-1,4
 282 -367 282 -367 302 -364 c 1,5,-1
 302 1642 l 1,6,7
 282 1645 282 1645 248 1647.5 c 128,-1,8
 214 1650 214 1650 178 1652.5 c 128,-1,9
 142 1655 142 1655 108 1658 c 128,-1,10
 74 1661 74 1661 54 1664 c 1,11,12
 51 1685 51 1685 51 1710 c 128,-1,13
 51 1735 51 1735 54 1756 c 1,14,-1
 451 1756 l 1,15,-1
 451 -478 l 1,16,-1
 54 -478 l 1,17,18
 51 -456 51 -456 51 -431 c 128,-1,19
 51 -406 51 -406 54 -385 c 1,0,1
EndSplineSet
EndChar

StartChar: Cacute
Encoding: 262 262 105
Width: 1295
Flags: W
LayerCount: 2
Fore
SplineSet
623 1538 m 1,0,1
 613 1547 613 1547 600 1567.5 c 128,-1,2
 587 1588 587 1588 576 1614 c 1,3,-1
 937 1881 l 1,4,-1
 1052 1796 l 1,5,-1
 1050 1746 l 1,6,-1
 623 1538 l 1,0,1
97 709 m 0,7,8
 97 902 97 902 143 1046 c 128,-1,9
 189 1190 189 1190 275 1286 c 128,-1,10
 361 1382 361 1382 483.5 1429.5 c 128,-1,11
 606 1477 606 1477 760 1477 c 0,12,13
 840 1477 840 1477 907 1470 c 128,-1,14
 974 1463 974 1463 1028 1452 c 128,-1,15
 1082 1441 1082 1441 1123 1428 c 128,-1,16
 1164 1415 1164 1415 1191 1404 c 1,17,18
 1195 1361 1195 1361 1194.5 1318 c 128,-1,19
 1194 1275 1194 1275 1190.5 1234 c 128,-1,20
 1187 1193 1187 1193 1181.5 1156 c 128,-1,21
 1176 1119 1176 1119 1170 1089 c 1,22,23
 1149 1089 1149 1089 1131.5 1089 c 128,-1,24
 1114 1089 1114 1089 1097.5 1090 c 128,-1,25
 1081 1091 1081 1091 1064 1092 c 128,-1,26
 1047 1093 1047 1093 1026 1096 c 1,27,-1
 1017 1292 l 1,28,29
 993 1307 993 1307 954.5 1318.5 c 128,-1,30
 916 1330 916 1330 873.5 1337 c 128,-1,31
 831 1344 831 1344 788.5 1347.5 c 128,-1,32
 746 1351 746 1351 713 1351 c 0,33,34
 597 1351 597 1351 516 1306 c 128,-1,35
 435 1261 435 1261 384 1179.5 c 128,-1,36
 333 1098 333 1098 309.5 984 c 128,-1,37
 286 870 286 870 286 733 c 0,38,39
 286 574 286 574 310 456 c 128,-1,40
 334 338 334 338 390 259.5 c 128,-1,41
 446 181 446 181 538 142.5 c 128,-1,42
 630 104 630 104 766 104 c 0,43,44
 804 104 804 104 844 107 c 128,-1,45
 884 110 884 110 920.5 116 c 128,-1,46
 957 122 957 122 987 130.5 c 128,-1,47
 1017 139 1017 139 1035 149 c 1,48,-1
 1062 392 l 1,49,50
 1083 395 1083 395 1100 396 c 128,-1,51
 1117 397 1117 397 1133 397.5 c 128,-1,52
 1149 398 1149 398 1165.5 397 c 128,-1,53
 1182 396 1182 396 1202 395 c 1,54,55
 1213 340 1213 340 1217.5 268 c 128,-1,56
 1222 196 1222 196 1217 108 c 1,57,58
 1192 85 1192 85 1144 61 c 128,-1,59
 1096 37 1096 37 1032 17 c 128,-1,60
 968 -3 968 -3 892.5 -16 c 128,-1,61
 817 -29 817 -29 737 -29 c 0,62,63
 644 -29 644 -29 560 -19 c 128,-1,64
 476 -9 476 -9 405 19.5 c 128,-1,65
 334 48 334 48 277 99 c 128,-1,66
 220 150 220 150 180 232 c 128,-1,67
 140 314 140 314 118.5 431 c 128,-1,68
 97 548 97 548 97 709 c 0,7,8
EndSplineSet
EndChar

StartChar: Oacute
Encoding: 211 211 106
Width: 1522
Flags: W
LayerCount: 2
Fore
SplineSet
665 1538 m 1,0,1
 655 1547 655 1547 642 1567.5 c 128,-1,2
 629 1588 629 1588 618 1614 c 1,3,-1
 979 1881 l 1,4,-1
 1094 1796 l 1,5,-1
 1092 1746 l 1,6,-1
 665 1538 l 1,0,1
704 -40 m 2,7,8
 587 -40 587 -40 500 -12.5 c 128,-1,9
 413 15 413 15 351 65.5 c 128,-1,10
 289 116 289 116 249.5 185.5 c 128,-1,11
 210 255 210 255 187 339.5 c 128,-1,12
 164 424 164 424 155.5 519.5 c 128,-1,13
 147 615 147 615 147 717 c 2,14,-1
 147 719 l 2,15,16
 147 824 147 824 161 921.5 c 128,-1,17
 175 1019 175 1019 205.5 1103 c 128,-1,18
 236 1187 236 1187 285 1256 c 128,-1,19
 334 1325 334 1325 403 1374 c 128,-1,20
 472 1423 472 1423 563.5 1450 c 128,-1,21
 655 1477 655 1477 771 1477 c 2,22,-1
 841 1477 l 2,23,24
 959 1477 959 1477 1045 1450.5 c 128,-1,25
 1131 1424 1131 1424 1191.5 1375.5 c 128,-1,26
 1252 1327 1252 1327 1289 1259 c 128,-1,27
 1326 1191 1326 1191 1347 1107.5 c 128,-1,28
 1368 1024 1368 1024 1375 927.5 c 128,-1,29
 1382 831 1382 831 1382 726 c 2,30,-1
 1382 713 l 2,31,32
 1382 555 1382 555 1349 418 c 128,-1,33
 1316 281 1316 281 1243.5 179 c 128,-1,34
 1171 77 1171 77 1055.5 18.5 c 128,-1,35
 940 -40 940 -40 775 -40 c 2,36,-1
 704 -40 l 2,7,8
760 83 m 0,37,38
 897 83 897 83 981.5 131 c 128,-1,39
 1066 179 1066 179 1112.5 264 c 128,-1,40
 1159 349 1159 349 1175 465.5 c 128,-1,41
 1191 582 1191 582 1191 719 c 0,42,43
 1191 801 1191 801 1187 880 c 128,-1,44
 1183 959 1183 959 1168.5 1029.5 c 128,-1,45
 1154 1100 1154 1100 1126.5 1159 c 128,-1,46
 1099 1218 1099 1218 1052 1260.5 c 128,-1,47
 1005 1303 1005 1303 935 1327 c 128,-1,48
 865 1351 865 1351 766 1351 c 0,49,50
 675 1351 675 1351 608 1329.5 c 128,-1,51
 541 1308 541 1308 493.5 1268 c 128,-1,52
 446 1228 446 1228 416.5 1171 c 128,-1,53
 387 1114 387 1114 370 1044 c 128,-1,54
 353 974 353 974 346.5 892 c 128,-1,55
 340 810 340 810 340 719 c 0,56,57
 340 641 340 641 344.5 564 c 128,-1,58
 349 487 349 487 363.5 416.5 c 128,-1,59
 378 346 378 346 406 285 c 128,-1,60
 434 224 434 224 480.5 179 c 128,-1,61
 527 134 527 134 595.5 108.5 c 128,-1,62
 664 83 664 83 760 83 c 0,37,38
EndSplineSet
EndChar

StartChar: Aacute
Encoding: 193 193 107
Width: 1407
Flags: W
LayerCount: 2
Fore
SplineSet
554 1538 m 1,0,1
 544 1547 544 1547 531 1567.5 c 128,-1,2
 518 1588 518 1588 507 1614 c 1,3,-1
 868 1881 l 1,4,-1
 983 1796 l 1,5,-1
 981 1746 l 1,6,-1
 554 1538 l 1,0,1
36 90 m 1,7,8
 43 93 43 93 55.5 97 c 128,-1,9
 68 101 68 101 82.5 104.5 c 128,-1,10
 97 108 97 108 112 111.5 c 128,-1,11
 127 115 127 115 139 118 c 1,12,-1
 593 1448 l 1,13,14
 618 1452 618 1452 646.5 1453.5 c 128,-1,15
 675 1455 675 1455 702.5 1455 c 128,-1,16
 730 1455 730 1455 756 1453 c 128,-1,17
 782 1451 782 1451 803 1448 c 1,18,-1
 1271 113 l 1,19,-1
 1376 90 l 1,20,-1
 1366 0 l 1,21,-1
 898 0 l 1,22,-1
 889 90 l 1,23,24
 909 95 909 95 934 100 c 128,-1,25
 959 105 959 105 985.5 109 c 128,-1,26
 1012 113 1012 113 1037 116 c 128,-1,27
 1062 119 1062 119 1082 122 c 1,28,-1
 954 496 l 1,29,-1
 413 496 l 1,30,-1
 288 122 l 1,31,-1
 293 122 l 1,32,-1
 496 90 l 1,33,-1
 487 0 l 1,34,-1
 47 0 l 1,35,-1
 36 90 l 1,7,8
917 612 m 1,36,-1
 697 1247 l 1,37,-1
 679 1310 l 1,38,-1
 654 1202 l 1,39,-1
 454 612 l 1,40,-1
 917 612 l 1,36,-1
EndSplineSet
EndChar

StartChar: Zacute
Encoding: 377 377 108
Width: 1166
Flags: W
LayerCount: 2
Fore
SplineSet
500 1538 m 1,0,1
 490 1547 490 1547 477 1567.5 c 128,-1,2
 464 1588 464 1588 453 1614 c 1,3,-1
 814 1881 l 1,4,-1
 929 1796 l 1,5,-1
 927 1746 l 1,6,-1
 500 1538 l 1,0,1
85 0 m 1,7,8
 79 11 79 11 73.5 28 c 128,-1,9
 68 45 68 45 63.5 64 c 128,-1,10
 59 83 59 83 56.5 101 c 128,-1,11
 54 119 54 119 54 133 c 1,12,-1
 848 1328 l 1,13,-1
 236 1328 l 1,14,-1
 236 1326 l 1,15,-1
 215 1116 l 1,16,17
 186 1112 186 1112 155 1112.5 c 128,-1,18
 124 1113 124 1113 101 1118 c 1,19,20
 98 1146 98 1146 91.5 1184.5 c 128,-1,21
 85 1223 85 1223 79 1265.5 c 128,-1,22
 73 1308 73 1308 69 1351 c 128,-1,23
 65 1394 65 1394 66 1432 c 1,24,-1
 78 1448 l 1,25,-1
 1021 1448 l 1,26,27
 1028 1439 1028 1439 1035 1425.5 c 128,-1,28
 1042 1412 1042 1412 1048 1397 c 128,-1,29
 1054 1382 1054 1382 1057.5 1366 c 128,-1,30
 1061 1350 1061 1350 1061 1337 c 1,31,-1
 265 120 l 1,32,-1
 929 120 l 1,33,-1
 1002 345 l 1,34,35
 1030 347 1030 347 1059 345 c 128,-1,36
 1088 343 1088 343 1111 336 c 1,37,38
 1110 301 1110 301 1107.5 258 c 128,-1,39
 1105 215 1105 215 1102 171 c 128,-1,40
 1099 127 1099 127 1095 86.5 c 128,-1,41
 1091 46 1091 46 1087 16 c 1,42,-1
 1066 0 l 1,43,-1
 85 0 l 1,7,8
EndSplineSet
EndChar

StartChar: Nacute
Encoding: 323 323 109
Width: 1588
Flags: W
LayerCount: 2
Fore
SplineSet
730 1538 m 1,0,1
 720 1547 720 1547 707 1567.5 c 128,-1,2
 694 1588 694 1588 683 1614 c 1,3,-1
 1044 1881 l 1,4,-1
 1159 1796 l 1,5,-1
 1157 1746 l 1,6,-1
 730 1538 l 1,0,1
97 90 m 1,7,8
 136 104 136 104 179.5 110.5 c 128,-1,9
 223 117 223 117 264 122 c 1,10,-1
 264 1328 l 1,11,-1
 97 1359 l 1,12,13
 95 1364 95 1364 95 1375.5 c 128,-1,14
 95 1387 95 1387 95 1394 c 0,15,16
 95 1409 95 1409 99 1425 c 128,-1,17
 103 1441 103 1441 106 1448 c 1,18,-1
 482 1448 l 1,19,-1
 554 1324 l 1,20,-1
 555 1324 l 1,21,-1
 1130 324 l 1,22,-1
 1211 126 l 1,23,-1
 1196 347 l 1,24,-1
 1196 1328 l 1,25,-1
 1021 1359 l 1,26,27
 1019 1364 1019 1364 1019 1375.5 c 128,-1,28
 1019 1387 1019 1387 1019 1394 c 0,29,30
 1019 1409 1019 1409 1023 1425 c 128,-1,31
 1027 1441 1027 1441 1031 1448 c 1,32,-1
 1491 1448 l 1,33,-1
 1500 1362 l 1,34,35
 1461 1351 1461 1351 1426 1342 c 128,-1,36
 1391 1333 1391 1333 1349 1328 c 1,37,-1
 1349 0 l 1,38,39
 1328 -8 1328 -8 1298.5 -13.5 c 128,-1,40
 1269 -19 1269 -19 1238.5 -22 c 128,-1,41
 1208 -25 1208 -25 1179 -25 c 128,-1,42
 1150 -25 1150 -25 1130 -21 c 1,43,-1
 1130 -18 l 1,44,-1
 475 1118 l 1,45,-1
 409 1283 l 1,46,-1
 418 1111 l 1,47,-1
 418 122 l 1,48,-1
 614 90 l 1,49,50
 616 85 616 85 616.5 74.5 c 128,-1,51
 617 64 617 64 617 57 c 0,52,53
 617 43 617 43 612.5 25 c 128,-1,54
 608 7 608 7 605 0 c 1,55,-1
 106 0 l 1,56,-1
 97 90 l 1,7,8
EndSplineSet
EndChar

StartChar: Sacute
Encoding: 346 346 110
Width: 1106
Flags: W
LayerCount: 2
Fore
SplineSet
515 1538 m 1,0,1
 505 1547 505 1547 492 1567.5 c 128,-1,2
 479 1588 479 1588 468 1614 c 1,3,-1
 829 1881 l 1,4,-1
 944 1796 l 1,5,-1
 942 1746 l 1,6,-1
 515 1538 l 1,0,1
165 415 m 1,7,8
 184 416 184 416 198 416 c 128,-1,9
 212 416 212 416 224.5 415.5 c 128,-1,10
 237 415 237 415 250.5 413 c 128,-1,11
 264 411 264 411 284 409 c 1,12,13
 289 380 289 380 292 356.5 c 128,-1,14
 295 333 295 333 298 309 c 128,-1,15
 301 285 301 285 304 258.5 c 128,-1,16
 307 232 307 232 312 196 c 1,17,18
 346 175 346 175 382.5 156 c 128,-1,19
 419 137 419 137 459.5 123 c 128,-1,20
 500 109 500 109 545 100.5 c 128,-1,21
 590 92 590 92 643 92 c 0,22,23
 708 92 708 92 756 109 c 128,-1,24
 804 126 804 126 835 156.5 c 128,-1,25
 866 187 866 187 881 231 c 128,-1,26
 896 275 896 275 896 329 c 0,27,28
 896 355 896 355 894 378.5 c 128,-1,29
 892 402 892 402 885 424 c 128,-1,30
 878 446 878 446 865 466 c 128,-1,31
 852 486 852 486 830 505 c 0,32,33
 771 555 771 555 706 594 c 128,-1,34
 641 633 641 633 573.5 669 c 128,-1,35
 506 705 506 705 438 741.5 c 128,-1,36
 370 778 370 778 305 823 c 0,37,38
 270 848 270 848 242.5 873.5 c 128,-1,39
 215 899 215 899 195.5 930.5 c 128,-1,40
 176 962 176 962 166 1001.5 c 128,-1,41
 156 1041 156 1041 156 1094 c 0,42,43
 156 1192 156 1192 184 1259.5 c 128,-1,44
 212 1327 212 1327 262 1373 c 0,45,46
 323 1430 323 1430 403.5 1453.5 c 128,-1,47
 484 1477 484 1477 591 1477 c 0,48,49
 648 1477 648 1477 708.5 1472 c 128,-1,50
 769 1467 769 1467 826.5 1457.5 c 128,-1,51
 884 1448 884 1448 935.5 1435 c 128,-1,52
 987 1422 987 1422 1028 1407 c 1,53,54
 1021 1326 1021 1326 1011.5 1244 c 128,-1,55
 1002 1162 1002 1162 988 1089 c 1,56,57
 967 1087 967 1087 952 1086.5 c 128,-1,58
 937 1086 937 1086 924.5 1086.5 c 128,-1,59
 912 1087 912 1087 898.5 1088 c 128,-1,60
 885 1089 885 1089 867 1092 c 1,61,-1
 851 1290 l 1,62,63
 785 1325 785 1325 713 1343.5 c 128,-1,64
 641 1362 641 1362 571 1362 c 0,65,66
 516 1362 516 1362 470.5 1349 c 128,-1,67
 425 1336 425 1336 392 1309.5 c 128,-1,68
 359 1283 359 1283 341 1242.5 c 128,-1,69
 323 1202 323 1202 323 1146 c 0,70,71
 323 1106 323 1106 333 1074 c 128,-1,72
 343 1042 343 1042 363.5 1014.5 c 128,-1,73
 384 987 384 987 416 963 c 128,-1,74
 448 939 448 939 492 915 c 2,75,-1
 837 721 l 2,76,77
 924 673 924 673 971.5 626 c 128,-1,78
 1019 579 1019 579 1041.5 532 c 128,-1,79
 1064 485 1064 485 1068.5 437.5 c 128,-1,80
 1073 390 1073 390 1073 340 c 0,81,82
 1073 283 1073 283 1059.5 236.5 c 128,-1,83
 1046 190 1046 190 1022 152.5 c 128,-1,84
 998 115 998 115 966 86.5 c 128,-1,85
 934 58 934 58 898 38 c 0,86,87
 856 15 856 15 811.5 2 c 128,-1,88
 767 -11 767 -11 724 -17.5 c 128,-1,89
 681 -24 681 -24 643 -25.5 c 128,-1,90
 605 -27 605 -27 577 -27 c 0,91,92
 519 -27 519 -27 454 -15.5 c 128,-1,93
 389 -4 389 -4 329 14 c 128,-1,94
 269 32 269 32 219 53.5 c 128,-1,95
 169 75 169 75 140 95 c 1,96,-1
 165 415 l 1,7,8
EndSplineSet
EndChar

StartChar: Lacute
Encoding: 313 313 111
Width: 1166
Flags: W
LayerCount: 2
Fore
SplineSet
231 1538 m 1,0,1
 221 1547 221 1547 208 1567.5 c 128,-1,2
 195 1588 195 1588 184 1614 c 1,3,-1
 545 1881 l 1,4,-1
 660 1796 l 1,5,-1
 658 1746 l 1,6,-1
 231 1538 l 1,0,1
90 90 m 1,7,8
 128 104 128 104 172 109.5 c 128,-1,9
 216 115 216 115 257 120 c 1,10,-1
 257 1328 l 1,11,-1
 94 1359 l 1,12,13
 92 1372 92 1372 93 1381.5 c 128,-1,14
 94 1391 94 1391 94 1399 c 0,15,16
 96 1416 96 1416 98 1428.5 c 128,-1,17
 100 1441 100 1441 103 1448 c 1,18,-1
 626 1448 l 1,19,-1
 635 1364 l 1,20,21
 618 1358 618 1358 592.5 1353 c 128,-1,22
 567 1348 567 1348 539.5 1343 c 128,-1,23
 512 1338 512 1338 484.5 1334.5 c 128,-1,24
 457 1331 457 1331 437 1328 c 1,25,-1
 437 120 l 1,26,-1
 945 120 l 1,27,-1
 1016 359 l 1,28,29
 1045 361 1045 361 1074.5 359 c 128,-1,30
 1104 357 1104 357 1127 350 c 1,31,32
 1126 315 1126 315 1123.5 269.5 c 128,-1,33
 1121 224 1121 224 1117 177.5 c 128,-1,34
 1113 131 1113 131 1109 88.5 c 128,-1,35
 1105 46 1105 46 1102 16 c 1,36,-1
 1080 0 l 1,37,-1
 99 0 l 1,38,-1
 90 90 l 1,7,8
EndSplineSet
EndChar

StartChar: eacute
Encoding: 233 233 112
Width: 983
Flags: W
LayerCount: 2
Fore
SplineSet
404 1106 m 1,0,1
 383 1112 383 1112 363 1125 c 128,-1,2
 343 1138 343 1138 327 1161 c 1,3,-1
 541 1504 l 1,4,-1
 719 1508 l 1,5,-1
 740 1466 l 1,6,-1
 404 1106 l 1,0,1
97 430 m 0,7,8
 96 576 96 576 126.5 680 c 128,-1,9
 157 784 157 784 213 850.5 c 128,-1,10
 269 917 269 917 349.5 948 c 128,-1,11
 430 979 430 979 530 979 c 0,12,13
 639 979 639 979 709 953.5 c 128,-1,14
 779 928 779 928 819 873.5 c 128,-1,15
 859 819 859 819 874.5 734 c 128,-1,16
 890 649 890 649 889 530 c 1,17,-1
 269 525 l 1,18,19
 269 454 269 454 271.5 395 c 128,-1,20
 274 336 274 336 284.5 288.5 c 128,-1,21
 295 241 295 241 315 205.5 c 128,-1,22
 335 170 335 170 370.5 146.5 c 128,-1,23
 406 123 406 123 458.5 111 c 128,-1,24
 511 99 511 99 586 99 c 0,25,26
 624 99 624 99 668.5 106 c 128,-1,27
 713 113 713 113 752.5 122 c 128,-1,28
 792 131 792 131 820.5 139.5 c 128,-1,29
 849 148 849 148 857 151 c 1,30,-1
 891 66 l 1,31,32
 884 61 884 61 855 45.5 c 128,-1,33
 826 30 826 30 779.5 13.5 c 128,-1,34
 733 -3 733 -3 670 -16 c 128,-1,35
 607 -29 607 -29 532 -29 c 0,36,37
 439 -29 439 -29 359.5 -12.5 c 128,-1,38
 280 4 280 4 222 53 c 128,-1,39
 164 102 164 102 131 192 c 128,-1,40
 98 282 98 282 97 430 c 0,7,8
717 638 m 1,41,42
 715 723 715 723 695.5 771 c 128,-1,43
 676 819 676 819 647.5 842.5 c 128,-1,44
 619 866 619 866 586 871.5 c 128,-1,45
 553 877 553 877 523 877 c 0,46,47
 458 877 458 877 413.5 862.5 c 128,-1,48
 369 848 369 848 340 817 c 128,-1,49
 311 786 311 786 296 737.5 c 128,-1,50
 281 689 281 689 275 622 c 1,51,-1
 717 638 l 1,41,42
EndSplineSet
EndChar

StartChar: uacute
Encoding: 250 250 113
Width: 1220
Flags: W
LayerCount: 2
Fore
SplineSet
534 1106 m 1,0,1
 513 1112 513 1112 493 1125 c 128,-1,2
 473 1138 473 1138 457 1161 c 1,3,-1
 671 1504 l 1,4,-1
 849 1508 l 1,5,-1
 870 1466 l 1,6,-1
 534 1106 l 1,0,1
208 841 m 1,7,-1
 59 841 l 1,8,-1
 47 924 l 1,9,10
 60 929 60 929 83.5 938.5 c 128,-1,11
 107 948 107 948 136.5 957 c 128,-1,12
 166 966 166 966 197.5 972.5 c 128,-1,13
 229 979 229 979 257 979 c 0,14,15
 299 979 299 979 322.5 968 c 128,-1,16
 346 957 346 957 357.5 941 c 128,-1,17
 369 925 369 925 371.5 906 c 128,-1,18
 374 887 374 887 374 872 c 2,19,-1
 374 302 l 2,20,21
 374 243 374 243 382 206 c 128,-1,22
 390 169 390 169 409 148 c 128,-1,23
 428 127 428 127 459 119.5 c 128,-1,24
 490 112 490 112 537 111 c 0,25,26
 568 110 568 110 607.5 117.5 c 128,-1,27
 647 125 647 125 687 137.5 c 128,-1,28
 727 150 727 150 764.5 166 c 128,-1,29
 802 182 802 182 830 198 c 1,30,-1
 830 841 l 1,31,-1
 657 841 l 1,32,-1
 645 927 l 1,33,34
 658 932 658 932 685.5 941 c 128,-1,35
 713 950 713 950 746.5 958.5 c 128,-1,36
 780 967 780 967 815 973 c 128,-1,37
 850 979 850 979 879 979 c 0,38,39
 921 979 921 979 944 968 c 128,-1,40
 967 957 967 957 978.5 941 c 128,-1,41
 990 925 990 925 992.5 906 c 128,-1,42
 995 887 995 887 995 872 c 2,43,-1
 995 106 l 1,44,-1
 1177 106 l 1,45,-1
 1184 23 l 1,46,47
 1172 18 1172 18 1144.5 9 c 128,-1,48
 1117 0 1117 0 1084 -8.5 c 128,-1,49
 1051 -17 1051 -17 1015.5 -23 c 128,-1,50
 980 -29 980 -29 952 -29 c 0,51,52
 910 -29 910 -29 887 -17.5 c 128,-1,53
 864 -6 864 -6 853 10.5 c 128,-1,54
 842 27 842 27 839.5 46.5 c 128,-1,55
 837 66 837 66 837 81 c 2,56,-1
 837 122 l 1,57,-1
 834 122 l 1,58,59
 808 102 808 102 768 75.5 c 128,-1,60
 728 49 728 49 678.5 26 c 128,-1,61
 629 3 629 3 573 -13 c 128,-1,62
 517 -29 517 -29 460 -29 c 0,63,64
 391 -29 391 -29 343 -15 c 128,-1,65
 295 -1 295 -1 265 35.5 c 128,-1,66
 235 72 235 72 221.5 134.5 c 128,-1,67
 208 197 208 197 208 293 c 2,68,-1
 208 841 l 1,7,-1
EndSplineSet
EndChar

StartChar: racute
Encoding: 341 341 114
Width: 846
Flags: W
LayerCount: 2
Fore
SplineSet
435 1082 m 1,0,1
 413 1087 413 1087 398 1100.5 c 128,-1,2
 383 1114 383 1114 366 1137 c 1,3,-1
 582 1479 l 1,4,-1
 740 1482 l 1,5,-1
 764 1441 l 1,6,-1
 435 1082 l 1,0,1
92 78 m 1,7,8
 130 91 130 91 172.5 97.5 c 128,-1,9
 215 104 215 104 253 111 c 1,10,-1
 253 841 l 1,11,-1
 74 841 l 1,12,-1
 61 927 l 1,13,14
 83 936 83 936 115 945 c 128,-1,15
 147 954 147 954 180.5 961.5 c 128,-1,16
 214 969 214 969 245.5 974 c 128,-1,17
 277 979 277 979 298 979 c 0,18,19
 340 979 340 979 363.5 968 c 128,-1,20
 387 957 387 957 398.5 938.5 c 128,-1,21
 410 920 410 920 412 894.5 c 128,-1,22
 414 869 414 869 414 841 c 2,23,-1
 414 764 l 1,24,25
 418 773 418 773 428 791 c 128,-1,26
 438 809 438 809 449.5 828.5 c 128,-1,27
 461 848 461 848 472.5 866 c 128,-1,28
 484 884 484 884 492 893 c 0,29,30
 524 934 524 934 572.5 958.5 c 128,-1,31
 621 983 621 983 692 983 c 0,32,33
 699 983 699 983 711 982.5 c 128,-1,34
 723 982 723 982 736 981 c 128,-1,35
 749 980 749 980 762 978.5 c 128,-1,36
 775 977 775 977 785 974 c 1,37,38
 786 962 786 962 786.5 943 c 128,-1,39
 787 924 787 924 786.5 902 c 128,-1,40
 786 880 786 880 784.5 857.5 c 128,-1,41
 783 835 783 835 780 816 c 1,42,43
 763 819 763 819 738 822 c 128,-1,44
 713 825 713 825 681 825 c 0,45,46
 643 825 643 825 606 818.5 c 128,-1,47
 569 812 569 812 539 799 c 0,48,49
 501 783 501 783 474 756 c 128,-1,50
 447 729 447 729 421 697 c 1,51,-1
 421 111 l 1,52,-1
 652 88 l 1,53,54
 654 83 654 83 654 71 c 128,-1,55
 654 59 654 59 654 52 c 0,56,57
 654 38 654 38 652.5 22.5 c 128,-1,58
 651 7 651 7 647 0 c 1,59,-1
 101 0 l 1,60,-1
 92 78 l 1,7,8
EndSplineSet
EndChar

StartChar: wacute
Encoding: 7811 7811 115
Width: 1666
Flags: W
LayerCount: 2
Fore
SplineSet
818 1082 m 1,0,1
 796 1087 796 1087 775.5 1100.5 c 128,-1,2
 755 1114 755 1114 740 1137 c 1,3,-1
 967 1479 l 1,4,-1
 1132 1484 l 1,5,-1
 1155 1444 l 1,6,-1
 818 1082 l 1,0,1
169 844 m 1,7,-1
 68 870 l 1,8,9
 66 875 66 875 66 883 c 128,-1,10
 66 891 66 891 66 898 c 0,11,12
 66 912 66 912 70 927.5 c 128,-1,13
 74 943 74 943 79 950 c 1,14,-1
 506 950 l 1,15,-1
 512 872 l 1,16,17
 478 864 478 864 433 855.5 c 128,-1,18
 388 847 388 847 352 842 c 1,19,-1
 510 225 l 1,20,-1
 537 108 l 1,21,-1
 557 189 l 1,22,-1
 754 950 l 1,23,24
 801 963 801 963 844 961.5 c 128,-1,25
 887 960 887 960 934 952 c 1,26,-1
 1128 225 l 1,27,-1
 1158 108 l 1,28,-1
 1182 192 l 1,29,-1
 1368 840 l 1,30,-1
 1196 870 l 1,31,32
 1194 875 1194 875 1193.5 883 c 128,-1,33
 1193 891 1193 891 1193 898 c 0,34,35
 1193 912 1193 912 1197 927.5 c 128,-1,36
 1201 943 1201 943 1205 950 c 1,37,-1
 1588 950 l 1,38,-1
 1597 865 l 1,39,40
 1578 856 1578 856 1551 849.5 c 128,-1,41
 1524 843 1524 843 1507 839 c 1,42,-1
 1243 -2 l 1,43,44
 1217 -8 1217 -8 1186 -9.5 c 128,-1,45
 1155 -11 1155 -11 1125.5 -10 c 128,-1,46
 1096 -9 1096 -9 1072 -6 c 128,-1,47
 1048 -3 1048 -3 1035 0 c 1,48,-1
 846 672 l 1,49,-1
 825 789 l 1,50,-1
 808 674 l 1,51,-1
 624 2 l 1,52,53
 606 -3 606 -3 576 -6 c 128,-1,54
 546 -9 546 -9 514.5 -9 c 128,-1,55
 483 -9 483 -9 455.5 -7 c 128,-1,56
 428 -5 428 -5 416 0 c 1,57,-1
 169 844 l 1,7,-1
EndSplineSet
EndChar

StartChar: Iogonek
Encoding: 302 302 116
Width: 702
Flags: W
LayerCount: 2
Fore
SplineSet
78 90 m 1,0,1
 117 104 117 104 166.5 110.5 c 128,-1,2
 216 117 216 117 258 122 c 1,3,-1
 258 1328 l 1,4,-1
 94 1359 l 1,5,6
 92 1364 92 1364 91.5 1377.5 c 128,-1,7
 91 1391 91 1391 91 1399 c 0,8,9
 91 1413 91 1413 95 1427 c 128,-1,10
 99 1441 99 1441 103 1448 c 1,11,-1
 600 1448 l 1,12,-1
 610 1364 l 1,13,14
 574 1351 574 1351 526 1342 c 128,-1,15
 478 1333 478 1333 437 1328 c 1,16,-1
 437 122 l 1,17,-1
 623 88 l 1,18,19
 625 83 625 83 625.5 73.5 c 128,-1,20
 626 64 626 64 626 57 c 0,21,22
 626 43 626 43 622 25 c 128,-1,23
 618 7 618 7 614 0 c 1,24,-1
 485 0 l 1,25,26
 453 -29 453 -29 420 -58.5 c 128,-1,27
 387 -88 387 -88 360.5 -118 c 128,-1,28
 334 -148 334 -148 317 -178.5 c 128,-1,29
 300 -209 300 -209 300 -239 c 0,30,31
 300 -261 300 -261 314.5 -278 c 128,-1,32
 329 -295 329 -295 368 -295 c 0,33,34
 380 -295 380 -295 393 -292.5 c 128,-1,35
 406 -290 406 -290 418.5 -286.5 c 128,-1,36
 431 -283 431 -283 441.5 -279.5 c 128,-1,37
 452 -276 452 -276 458 -273 c 1,38,-1
 499 -360 l 1,39,40
 463 -381 463 -381 413 -401.5 c 128,-1,41
 363 -422 363 -422 300 -422 c 0,42,43
 274 -422 274 -422 247.5 -414 c 128,-1,44
 221 -406 221 -406 200 -389.5 c 128,-1,45
 179 -373 179 -373 166 -346.5 c 128,-1,46
 153 -320 153 -320 153 -284 c 0,47,48
 153 -241 153 -241 168.5 -203.5 c 128,-1,49
 184 -166 184 -166 211 -133 c 128,-1,50
 238 -100 238 -100 274 -71.5 c 128,-1,51
 310 -43 310 -43 350 -16 c 1,52,-1
 379 0 l 1,53,-1
 87 0 l 1,54,-1
 78 90 l 1,0,1
EndSplineSet
EndChar

StartChar: odieresis
Encoding: 246 246 117
Width: 1116
Flags: W
LayerCount: 2
Fore
SplineSet
747 1206 m 0,0,1
 717 1206 717 1206 697 1214 c 128,-1,2
 677 1222 677 1222 665 1236.5 c 128,-1,3
 653 1251 653 1251 648.5 1269.5 c 128,-1,4
 644 1288 644 1288 644 1309 c 256,5,6
 644 1330 644 1330 648.5 1349.5 c 128,-1,7
 653 1369 653 1369 665 1384 c 128,-1,8
 677 1399 677 1399 697 1407.5 c 128,-1,9
 717 1416 717 1416 747 1416 c 0,10,11
 810 1416 810 1416 832 1387.5 c 128,-1,12
 854 1359 854 1359 854 1309 c 0,13,14
 854 1288 854 1288 849 1269.5 c 128,-1,15
 844 1251 844 1251 832 1236.5 c 128,-1,16
 820 1222 820 1222 799 1214 c 128,-1,17
 778 1206 778 1206 747 1206 c 0,0,1
352 1206 m 0,18,19
 322 1206 322 1206 302 1214 c 128,-1,20
 282 1222 282 1222 270 1236.5 c 128,-1,21
 258 1251 258 1251 253 1269.5 c 128,-1,22
 248 1288 248 1288 248 1309 c 256,23,24
 248 1330 248 1330 253 1349.5 c 128,-1,25
 258 1369 258 1369 270 1384 c 128,-1,26
 282 1399 282 1399 302 1407.5 c 128,-1,27
 322 1416 322 1416 352 1416 c 0,28,29
 383 1416 383 1416 403.5 1408.5 c 128,-1,30
 424 1401 424 1401 436.5 1387 c 128,-1,31
 449 1373 449 1373 454 1353.5 c 128,-1,32
 459 1334 459 1334 459 1309 c 0,33,34
 459 1288 459 1288 454 1269.5 c 128,-1,35
 449 1251 449 1251 436.5 1236.5 c 128,-1,36
 424 1222 424 1222 403.5 1214 c 128,-1,37
 383 1206 383 1206 352 1206 c 0,18,19
95 475 m 256,38,39
 95 580 95 580 124.5 671.5 c 128,-1,40
 154 763 154 763 215.5 831.5 c 128,-1,41
 277 900 277 900 370.5 939.5 c 128,-1,42
 464 979 464 979 593 979 c 256,43,44
 722 979 722 979 804 939.5 c 128,-1,45
 886 900 886 900 933.5 831.5 c 128,-1,46
 981 763 981 763 999 671.5 c 128,-1,47
 1017 580 1017 580 1017 475 c 256,48,49
 1017 370 1017 370 987 278.5 c 128,-1,50
 957 187 957 187 895.5 118.5 c 128,-1,51
 834 50 834 50 740 10.5 c 128,-1,52
 646 -29 646 -29 518 -29 c 0,53,54
 389 -29 389 -29 307 10.5 c 128,-1,55
 225 50 225 50 178 118.5 c 128,-1,56
 131 187 131 187 113 278.5 c 128,-1,57
 95 370 95 370 95 475 c 256,38,39
279 475 m 0,58,59
 279 353 279 353 298 276 c 128,-1,60
 317 199 317 199 352.5 155 c 128,-1,61
 388 111 388 111 439 94.5 c 128,-1,62
 490 78 490 78 555 78 c 0,63,64
 613 78 613 78 663.5 94.5 c 128,-1,65
 714 111 714 111 751.5 155 c 128,-1,66
 789 199 789 199 810.5 276 c 128,-1,67
 832 353 832 353 832 475 c 0,68,69
 832 596 832 596 813 673.5 c 128,-1,70
 794 751 794 751 758.5 795 c 128,-1,71
 723 839 723 839 671.5 855.5 c 128,-1,72
 620 872 620 872 555 872 c 0,73,74
 498 872 498 872 447.5 855.5 c 128,-1,75
 397 839 397 839 359.5 795 c 128,-1,76
 322 751 322 751 300.5 673.5 c 128,-1,77
 279 596 279 596 279 475 c 0,58,59
EndSplineSet
EndChar

StartChar: Zdotaccent
Encoding: 379 379 118
Width: 1166
Flags: W
LayerCount: 2
Fore
SplineSet
586 1588 m 256,0,1
 554 1588 554 1588 533 1596.5 c 128,-1,2
 512 1605 512 1605 500 1619.5 c 128,-1,3
 488 1634 488 1634 483 1653.5 c 128,-1,4
 478 1673 478 1673 478 1696 c 0,5,6
 478 1720 478 1720 483 1740.5 c 128,-1,7
 488 1761 488 1761 500 1776 c 128,-1,8
 512 1791 512 1791 533 1799.5 c 128,-1,9
 554 1808 554 1808 586 1808 c 256,10,11
 618 1808 618 1808 639.5 1799.5 c 128,-1,12
 661 1791 661 1791 673.5 1776 c 128,-1,13
 686 1761 686 1761 691.5 1740.5 c 128,-1,14
 697 1720 697 1720 697 1696 c 0,15,16
 697 1673 697 1673 691.5 1653.5 c 128,-1,17
 686 1634 686 1634 673.5 1619.5 c 128,-1,18
 661 1605 661 1605 639.5 1596.5 c 128,-1,19
 618 1588 618 1588 586 1588 c 256,0,1
85 0 m 1,20,21
 79 11 79 11 73.5 28 c 128,-1,22
 68 45 68 45 63.5 64 c 128,-1,23
 59 83 59 83 56.5 101 c 128,-1,24
 54 119 54 119 54 133 c 1,25,-1
 848 1328 l 1,26,-1
 236 1328 l 1,27,-1
 236 1326 l 1,28,-1
 215 1116 l 1,29,30
 186 1112 186 1112 155 1112.5 c 128,-1,31
 124 1113 124 1113 101 1118 c 1,32,33
 98 1146 98 1146 91.5 1184.5 c 128,-1,34
 85 1223 85 1223 79 1265.5 c 128,-1,35
 73 1308 73 1308 69 1351 c 128,-1,36
 65 1394 65 1394 66 1432 c 1,37,-1
 78 1448 l 1,38,-1
 1021 1448 l 1,39,40
 1028 1439 1028 1439 1035 1425.5 c 128,-1,41
 1042 1412 1042 1412 1048 1397 c 128,-1,42
 1054 1382 1054 1382 1057.5 1366 c 128,-1,43
 1061 1350 1061 1350 1061 1337 c 1,44,-1
 265 120 l 1,45,-1
 929 120 l 1,46,-1
 1002 345 l 1,47,48
 1030 347 1030 347 1059 345 c 128,-1,49
 1088 343 1088 343 1111 336 c 1,50,51
 1110 301 1110 301 1107.5 258 c 128,-1,52
 1105 215 1105 215 1102 171 c 128,-1,53
 1099 127 1099 127 1095 86.5 c 128,-1,54
 1091 46 1091 46 1087 16 c 1,55,-1
 1066 0 l 1,56,-1
 85 0 l 1,20,21
EndSplineSet
EndChar

StartChar: iogonek
Encoding: 303 303 119
Width: 624
Flags: W
LayerCount: 2
Fore
SplineSet
303 1206 m 256,0,1
 279 1206 279 1206 257.5 1211.5 c 128,-1,2
 236 1217 236 1217 220 1230.5 c 128,-1,3
 204 1244 204 1244 195 1266 c 128,-1,4
 186 1288 186 1288 186 1321 c 256,5,6
 186 1354 186 1354 195 1376 c 128,-1,7
 204 1398 204 1398 220 1411.5 c 128,-1,8
 236 1425 236 1425 257.5 1430.5 c 128,-1,9
 279 1436 279 1436 303 1436 c 256,10,11
 327 1436 327 1436 347.5 1430.5 c 128,-1,12
 368 1425 368 1425 384 1411.5 c 128,-1,13
 400 1398 400 1398 409 1376 c 128,-1,14
 418 1354 418 1354 418 1321 c 256,15,16
 418 1288 418 1288 409 1266 c 128,-1,17
 400 1244 400 1244 384 1230.5 c 128,-1,18
 368 1217 368 1217 347.5 1211.5 c 128,-1,19
 327 1206 327 1206 303 1206 c 256,0,1
78 28 m 1,20,-1
 79 28 l 1,21,-1
 73 78 l 1,22,23
 111 91 111 91 155.5 97.5 c 128,-1,24
 200 104 200 104 238 111 c 1,25,-1
 238 841 l 1,26,-1
 68 841 l 1,27,-1
 57 927 l 1,28,29
 76 934 76 934 106.5 943.5 c 128,-1,30
 137 953 137 953 170 960.5 c 128,-1,31
 203 968 203 968 235 973.5 c 128,-1,32
 267 979 267 979 290 979 c 0,33,34
 333 979 333 979 356.5 968 c 128,-1,35
 380 957 380 957 390.5 941 c 128,-1,36
 401 925 401 925 403 906 c 128,-1,37
 405 887 405 887 406 872 c 1,38,-1
 406 111 l 1,39,-1
 578 81 l 1,40,41
 580 61 580 61 578 39 c 128,-1,42
 576 17 576 17 569 0 c 1,43,-1
 469 0 l 1,44,45
 437 -29 437 -29 404 -59 c 128,-1,46
 371 -89 371 -89 344.5 -119.5 c 128,-1,47
 318 -150 318 -150 301 -180.5 c 128,-1,48
 284 -211 284 -211 284 -242 c 0,49,50
 284 -264 284 -264 298.5 -281 c 128,-1,51
 313 -298 313 -298 352 -298 c 0,52,53
 364 -298 364 -298 377 -295.5 c 128,-1,54
 390 -293 390 -293 402.5 -289.5 c 128,-1,55
 415 -286 415 -286 425.5 -282.5 c 128,-1,56
 436 -279 436 -279 442 -276 c 1,57,-1
 482 -364 l 1,58,59
 464 -374 464 -374 442.5 -385 c 128,-1,60
 421 -396 421 -396 396 -405 c 128,-1,61
 371 -414 371 -414 343 -419.5 c 128,-1,62
 315 -425 315 -425 284 -425 c 0,63,64
 257 -425 257 -425 230.5 -417 c 128,-1,65
 204 -409 204 -409 183.5 -392.5 c 128,-1,66
 163 -376 163 -376 150 -349.5 c 128,-1,67
 137 -323 137 -323 137 -287 c 0,68,69
 137 -243 137 -243 152.5 -205.5 c 128,-1,70
 168 -168 168 -168 195 -135 c 128,-1,71
 222 -102 222 -102 258 -72.5 c 128,-1,72
 294 -43 294 -43 334 -16 c 1,73,-1
 361 0 l 1,74,-1
 81 0 l 1,75,-1
 78 28 l 1,20,-1
EndSplineSet
EndChar

StartChar: dotlessi
Encoding: 305 305 120
Width: 657
Flags: W
LayerCount: 2
Fore
SplineSet
97 78 m 1,0,1
 135 91 135 91 179.5 97.5 c 128,-1,2
 224 104 224 104 262 111 c 1,3,-1
 262 841 l 1,4,-1
 92 841 l 1,5,-1
 81 927 l 1,6,7
 100 934 100 934 130.5 943.5 c 128,-1,8
 161 953 161 953 194 960.5 c 128,-1,9
 227 968 227 968 259 973.5 c 128,-1,10
 291 979 291 979 314 979 c 0,11,12
 357 979 357 979 380.5 968 c 128,-1,13
 404 957 404 957 414.5 941 c 128,-1,14
 425 925 425 925 427 906 c 128,-1,15
 429 887 429 887 430 872 c 1,16,-1
 430 111 l 1,17,-1
 602 81 l 1,18,19
 604 61 604 61 602 39 c 128,-1,20
 600 17 600 17 593 0 c 1,21,-1
 106 0 l 1,22,-1
 97 78 l 1,0,1
EndSplineSet
EndChar

StartChar: bar
Encoding: 124 124 121
Width: 650
Flags: W
LayerCount: 2
Fore
SplineSet
248 1756 m 1,0,-1
 381 1756 l 1,1,-1
 381 -437 l 1,2,-1
 248 -437 l 1,3,-1
 248 1756 l 1,0,-1
EndSplineSet
EndChar

StartChar: brokenbar
Encoding: 166 166 122
Width: 650
Flags: W
LayerCount: 2
Fore
SplineSet
248 1756 m 1,0,-1
 381 1756 l 1,1,-1
 381 834 l 1,2,-1
 248 834 l 1,3,-1
 248 1756 l 1,0,-1
248 515 m 1,4,-1
 381 515 l 1,5,-1
 381 -437 l 1,6,-1
 248 -437 l 1,7,-1
 248 515 l 1,4,-1
EndSplineSet
EndChar

StartChar: parenleft
Encoding: 40 40 123
Width: 664
Flags: W
LayerCount: 2
Fore
SplineSet
149 584 m 0,0,1
 147 744 147 744 165.5 884 c 128,-1,2
 184 1024 184 1024 214 1143.5 c 128,-1,3
 244 1263 244 1263 283 1362 c 128,-1,4
 322 1461 322 1461 361.5 1539.5 c 128,-1,5
 401 1618 401 1618 437 1675.5 c 128,-1,6
 473 1733 473 1733 499 1770 c 1,7,-1
 598 1709 l 1,8,9
 501 1556 501 1556 442.5 1401 c 128,-1,10
 384 1246 384 1246 352.5 1099.5 c 128,-1,11
 321 953 321 953 311 822 c 128,-1,12
 301 691 301 691 302 586 c 0,13,14
 303 530 303 530 309 457.5 c 128,-1,15
 315 385 315 385 329 301.5 c 128,-1,16
 343 218 343 218 366 126 c 128,-1,17
 389 34 389 34 423.5 -62 c 128,-1,18
 458 -158 458 -158 506 -254.5 c 128,-1,19
 554 -351 554 -351 617 -444 c 1,20,-1
 520 -510 l 1,21,22
 493 -478 493 -478 455.5 -425 c 128,-1,23
 418 -372 418 -372 377.5 -299 c 128,-1,24
 337 -226 337 -226 297 -133.5 c 128,-1,25
 257 -41 257 -41 224.5 69.5 c 128,-1,26
 192 180 192 180 171.5 309 c 128,-1,27
 151 438 151 438 149 584 c 0,0,1
EndSplineSet
EndChar

StartChar: parenright
Encoding: 41 41 124
Width: 667
Flags: W
LayerCount: 2
Fore
SplineSet
73 -449 m 1,0,1
 170 -297 170 -297 228.5 -141.5 c 128,-1,2
 287 14 287 14 318.5 160 c 128,-1,3
 350 306 350 306 359.5 437.5 c 128,-1,4
 369 569 369 569 368 674 c 0,5,6
 367 730 367 730 361.5 802.5 c 128,-1,7
 356 875 356 875 342 958.5 c 128,-1,8
 328 1042 328 1042 305 1134 c 128,-1,9
 282 1226 282 1226 247.5 1322 c 128,-1,10
 213 1418 213 1418 165 1514.5 c 128,-1,11
 117 1611 117 1611 54 1704 c 1,12,-1
 151 1770 l 1,13,14
 177 1738 177 1738 214.5 1684.5 c 128,-1,15
 252 1631 252 1631 292.5 1558 c 128,-1,16
 333 1485 333 1485 373.5 1393 c 128,-1,17
 414 1301 414 1301 446.5 1190.5 c 128,-1,18
 479 1080 479 1080 500 951 c 128,-1,19
 521 822 521 822 523 676 c 0,20,21
 525 516 525 516 506.5 376 c 128,-1,22
 488 236 488 236 458 116.5 c 128,-1,23
 428 -3 428 -3 389 -102 c 128,-1,24
 350 -201 350 -201 310.5 -279.5 c 128,-1,25
 271 -358 271 -358 234.5 -416 c 128,-1,26
 198 -474 198 -474 173 -510 c 1,27,-1
 73 -449 l 1,0,1
EndSplineSet
EndChar

StartChar: six
Encoding: 54 54 125
Width: 1125
Flags: W
LayerCount: 2
Fore
SplineSet
147 501 m 0,0,1
 147 579 147 579 157.5 667 c 128,-1,2
 168 755 168 755 197 840 c 128,-1,3
 226 925 226 925 277.5 1001.5 c 128,-1,4
 329 1078 329 1078 411 1134 c 256,5,6
 493 1190 493 1190 602 1224 c 128,-1,7
 711 1258 711 1258 830 1258 c 0,8,9
 850 1258 850 1258 873 1256 c 128,-1,10
 896 1254 896 1254 917 1252 c 1,11,12
 921 1244 921 1244 922.5 1228.5 c 128,-1,13
 924 1213 924 1213 924 1202 c 0,14,15
 924 1195 924 1195 924 1186.5 c 128,-1,16
 924 1178 924 1178 922 1166 c 1,17,-1
 891 1166 l 2,18,19
 833 1166 833 1166 775.5 1155 c 128,-1,20
 718 1144 718 1144 665.5 1125.5 c 128,-1,21
 613 1107 613 1107 568.5 1082.5 c 128,-1,22
 524 1058 524 1058 492 1031 c 0,23,24
 445 992 445 992 415 945 c 128,-1,25
 385 898 385 898 366.5 848.5 c 128,-1,26
 348 799 348 799 338.5 749.5 c 128,-1,27
 329 700 329 700 324 657 c 1,28,29
 327 660 327 660 347 678.5 c 128,-1,30
 367 697 367 697 407.5 718 c 128,-1,31
 448 739 448 739 509.5 756 c 128,-1,32
 571 773 571 773 657 773 c 0,33,34
 762 773 762 773 828.5 745 c 128,-1,35
 895 717 895 717 932.5 667 c 128,-1,36
 970 617 970 617 983.5 548.5 c 128,-1,37
 997 480 997 480 997 399 c 0,38,39
 997 311 997 311 977.5 244.5 c 128,-1,40
 958 178 958 178 926 130.5 c 128,-1,41
 894 83 894 83 851.5 52 c 128,-1,42
 809 21 809 21 763.5 3 c 128,-1,43
 718 -15 718 -15 671.5 -22 c 128,-1,44
 625 -29 625 -29 584 -29 c 0,45,46
 462 -29 462 -29 379 6.5 c 128,-1,47
 296 42 296 42 244 109.5 c 128,-1,48
 192 177 192 177 169.5 275.5 c 128,-1,49
 147 374 147 374 147 501 c 0,0,1
575 76 m 0,50,51
 707 76 707 76 765 152 c 128,-1,52
 823 228 823 228 823 366 c 0,53,54
 823 425 823 425 815.5 476 c 128,-1,55
 808 527 808 527 784 565 c 128,-1,56
 760 603 760 603 714.5 625 c 128,-1,57
 669 647 669 647 593 647 c 0,58,59
 541 647 541 647 494 635.5 c 128,-1,60
 447 624 447 624 410 609 c 128,-1,61
 373 594 373 594 349 578.5 c 128,-1,62
 325 563 325 563 319 555 c 1,63,64
 319 513 319 513 319.5 460.5 c 128,-1,65
 320 408 320 408 326.5 355 c 128,-1,66
 333 302 333 302 348 251.5 c 128,-1,67
 363 201 363 201 391.5 162 c 128,-1,68
 420 123 420 123 464.5 99.5 c 128,-1,69
 509 76 509 76 575 76 c 0,50,51
EndSplineSet
EndChar

StartChar: ellipsis
Encoding: 8230 8230 126
Width: 1351
Flags: W
LayerCount: 2
Fore
SplineSet
1012 85 m 0,0,1
 1012 108 1012 108 1017 128.5 c 128,-1,2
 1022 149 1022 149 1035 164 c 128,-1,3
 1048 179 1048 179 1069.5 187.5 c 128,-1,4
 1091 196 1091 196 1123 196 c 256,5,6
 1155 196 1155 196 1176.5 187.5 c 128,-1,7
 1198 179 1198 179 1211.5 164 c 128,-1,8
 1225 149 1225 149 1230.5 128.5 c 128,-1,9
 1236 108 1236 108 1236 85 c 0,10,11
 1236 35 1236 35 1211.5 3 c 128,-1,12
 1187 -29 1187 -29 1123 -29 c 0,13,14
 1091 -29 1091 -29 1069.5 -20.5 c 128,-1,15
 1048 -12 1048 -12 1035 3 c 128,-1,16
 1022 18 1022 18 1017 39 c 128,-1,17
 1012 60 1012 60 1012 85 c 0,0,1
568 85 m 0,18,19
 568 108 568 108 573.5 128.5 c 128,-1,20
 579 149 579 149 591.5 164 c 128,-1,21
 604 179 604 179 626 187.5 c 128,-1,22
 648 196 648 196 681 196 c 0,23,24
 713 196 713 196 734.5 187.5 c 128,-1,25
 756 179 756 179 769.5 164 c 128,-1,26
 783 149 783 149 788.5 128.5 c 128,-1,27
 794 108 794 108 794 85 c 0,28,29
 794 35 794 35 769.5 3 c 128,-1,30
 745 -29 745 -29 681 -29 c 0,31,32
 648 -29 648 -29 626 -20.5 c 128,-1,33
 604 -12 604 -12 591.5 3 c 128,-1,34
 579 18 579 18 573.5 39 c 128,-1,35
 568 60 568 60 568 85 c 0,18,19
126 85 m 0,36,37
 126 108 126 108 131.5 128.5 c 128,-1,38
 137 149 137 149 149.5 164 c 128,-1,39
 162 179 162 179 184 187.5 c 128,-1,40
 206 196 206 196 239 196 c 0,41,42
 271 196 271 196 292.5 187.5 c 128,-1,43
 314 179 314 179 326.5 164 c 128,-1,44
 339 149 339 149 344.5 128.5 c 128,-1,45
 350 108 350 108 350 85 c 0,46,47
 350 60 350 60 344.5 39 c 128,-1,48
 339 18 339 18 326.5 3 c 128,-1,49
 314 -12 314 -12 292.5 -20.5 c 128,-1,50
 271 -29 271 -29 239 -29 c 0,51,52
 206 -29 206 -29 184 -20.5 c 128,-1,53
 162 -12 162 -12 149.5 3 c 128,-1,54
 137 18 137 18 131.5 39 c 128,-1,55
 126 60 126 60 126 85 c 0,36,37
EndSplineSet
EndChar

